<?xml version="1.0" standalone="no"?>
<!DOCTYPE svg PUBLIC "-//W3C//DTD SVG 1.1//EN" "http://www.w3.org/Graphics/SVG/1.1/DTD/svg11.dtd" >
<svg>
<metadata>
Created by FontForge 20090622 at Tue Dec 19 05:05:28 2017
 By ffonts
Copyright 2011 Eduardo Tunni (www.tipo.net.ar)
</metadata>
<defs>
<font id="Changa-SemiBold" horiz-adv-x="0" >
  <font-face 
    font-family="Changa SemiBold"
    font-weight="600"
    font-stretch="normal"
    units-per-em="1000"
    panose-1="0 0 7 0 0 0 0 0 0 0"
    ascent="800"
    descent="-200"
    x-height="500"
    cap-height="625"
    bbox="-653 -582 1833 1225"
    underline-thickness="50"
    underline-position="-50"
    unicode-range="U+0020-U+FEFC"
  />
<missing-glyph horiz-adv-x="380" 
 />
    <glyph glyph-name="f_f" unicode="ff" horiz-adv-x="690" 
d="M40 0zM249 578v-78h70v-98h-70v-402h-149v402h-60v98h60q4 68 19 105.5t46 53.5t86 16q48 0 101 -10l-8 -96zM594 578v-78h70v-98h-70v-402h-149v402h-60v98h60q4 68 19 105.5t46 53.5t86 16q48 0 101 -10l-8 -96z" />
    <glyph glyph-name="f_f_i" unicode="ffi" horiz-adv-x="980" 
d="M40 0zM249 578v-78h70v-98h-70v-402h-149v402h-60v98h60q4 68 19 105.5t46 53.5t86 16q48 0 101 -10l-8 -96zM594 578v-78h70v-98h-70v-402h-149v402h-60v98h60q4 68 19 105.5t46 53.5t86 16q48 0 101 -10l-8 -96zM909 504v-504h-149v484zM769.5 582q-17.5 17 -17.5 65
q0 49 17.5 66.5t66.5 17.5q47 0 64.5 -17.5t17.5 -66.5q0 -48 -17 -65t-65 -17q-49 0 -66.5 17z" />
    <glyph glyph-name="f_f_l" unicode="ffl" horiz-adv-x="980" 
d="M40 0zM249 578v-78h70v-98h-70v-402h-149v402h-60v98h60q4 68 19 105.5t46 53.5t86 16q48 0 101 -10l-8 -96zM594 578v-78h70v-98h-70v-402h-149v402h-60v98h60q4 68 19 105.5t46 53.5t86 16q48 0 101 -10l-8 -96zM954 102l-7 -101q-48 -13 -88 -13q-52 0 -76.5 22
t-24.5 69v571l149 15v-557q23 -4 47 -6z" />
    <glyph glyph-name="fi" unicode="fi" horiz-adv-x="635" 
d="M40 0zM249 578v-78h70v-98h-70v-402h-149v402h-60v98h60q4 68 19 105.5t46 53.5t86 16q48 0 101 -10l-8 -96zM564 504v-504h-149v484zM424.5 582q-17.5 17 -17.5 65q0 49 17.5 66.5t66.5 17.5q47 0 64.5 -17.5t17.5 -66.5q0 -48 -17 -65t-65 -17q-49 0 -66.5 17z" />
    <glyph glyph-name="fl" unicode="fl" horiz-adv-x="635" 
d="M40 0zM249 578v-78h70v-98h-70v-402h-149v402h-60v98h60q4 68 19 105.5t46 53.5t86 16q48 0 101 -10l-8 -96zM609 102l-7 -101q-48 -13 -88 -13q-52 0 -76.5 22t-24.5 69v571l149 15v-557q23 -4 47 -6z" />
    <glyph glyph-name="uniFEFB" unicode="&#xfedf;&#xfe8e;" horiz-adv-x="655" arabic-form="isolated" 
d="M563.5 243.5q15.5 -35.5 15.5 -81.5q0 -94 -62 -135.5t-202 -41.5q-96 0 -149.5 17t-76 53.5t-22.5 100.5q0 52 11.5 86.5t41 59.5t85.5 45l45 16l-165 134l82 100l226 -184l48 17v200h119v-181q0 -63 -9.5 -88.5t-39.5 -35.5v-7q37 -39 52.5 -74.5zM434.5 133
q18.5 14 18.5 36q0 14 -9 29.5t-26 27.5l-53 43l-171 -61v-89h184q38 0 56.5 14z" />
    <glyph glyph-name="uniFEFC" unicode="&#xfee0;&#xfe8e;" horiz-adv-x="679" arabic-form="final" 
d="M699 134v-134h-679v134h151l-36 411h119l36 -411h185v496h119v-496h105z" />
    <glyph glyph-name="uniFEF7" unicode="&#xfedf;&#xfe84;" horiz-adv-x="655" arabic-form="isolated" 
d="M64 0zM563.5 243.5q15.5 -35.5 15.5 -81.5q0 -94 -62 -135.5t-202 -41.5q-96 0 -149.5 17t-76 53.5t-22.5 100.5q0 52 11.5 86.5t41 59.5t85.5 45l45 16l-165 134l82 100l226 -184l48 17v200h119v-181q0 -63 -9.5 -88.5t-39.5 -35.5v-7q37 -39 52.5 -74.5zM434.5 133
q18.5 14 18.5 36q0 14 -9 29.5t-26 27.5l-53 43l-171 -61v-89h184q38 0 56.5 14zM296 773v-59l-232 -62v58l40 11q-9 24 -9 62q0 76 44.5 108t129.5 36v-69q-51 -3 -95 -22v-66q0 -12 4 -17.5t14 -5.5q4 0 22 4z" />
    <glyph glyph-name="uniFEF8" unicode="&#xfee0;&#xfe84;" horiz-adv-x="679" arabic-form="final" 
d="M20 0zM699 134v-134h-679v134h151l-36 411h119l36 -411h185v496h119v-496h105zM311 773v-59l-232 -62v58l40 11q-9 24 -9 62q0 76 44.5 108t129.5 36v-69q-51 -3 -95 -22v-66q0 -12 4 -17.5t14 -5.5q4 0 22 4z" />
    <glyph glyph-name="uniFEF9" unicode="&#xfedf;&#xfe88;" horiz-adv-x="655" arabic-form="isolated" 
d="M26 0zM563.5 243.5q15.5 -35.5 15.5 -81.5q0 -94 -62 -135.5t-202 -41.5q-96 0 -149.5 17t-76 53.5t-22.5 100.5q0 52 11.5 86.5t41 59.5t85.5 45l45 16l-165 134l82 100l226 -184l48 17v200h119v-181q0 -63 -9.5 -88.5t-39.5 -35.5v-7q37 -39 52.5 -74.5zM434.5 133
q18.5 14 18.5 36q0 14 -9 29.5t-26 27.5l-53 43l-171 -61v-89h184q38 0 56.5 14zM258 -231v-59l-232 -62v58l40 11q-9 24 -9 62q0 76 44.5 108t129.5 36v-69q-51 -3 -95 -22v-66q0 -12 4 -17.5t14 -5.5q4 0 22 4z" />
    <glyph glyph-name="uniFEFA" unicode="&#xfee0;&#xfe88;" horiz-adv-x="679" arabic-form="final" 
d="M20 0zM699 134v-134h-679v134h151l-36 411h119l36 -411h185v496h119v-496h105zM361 -231v-59l-232 -62v58l40 11q-9 24 -9 62q0 76 44.5 108t129.5 36v-69q-51 -3 -95 -22v-66q0 -12 4 -17.5t14 -5.5q4 0 22 4z" />
    <glyph glyph-name="uniFEF5" unicode="&#xfedf;&#xfe82;" horiz-adv-x="655" arabic-form="isolated" 
d="M48 0zM563.5 243.5q15.5 -35.5 15.5 -81.5q0 -94 -62 -135.5t-202 -41.5q-96 0 -149.5 17t-76 53.5t-22.5 100.5q0 52 11.5 86.5t41 59.5t85.5 45l45 16l-165 134l82 100l226 -184l48 17v200h119v-181q0 -63 -9.5 -88.5t-39.5 -35.5v-7q37 -39 52.5 -74.5zM434.5 133
q18.5 14 18.5 36q0 14 -9 29.5t-26 27.5l-53 43l-171 -61v-89h184q38 0 56.5 14zM166.5 690q-11.5 8 -34.5 33l-64 -30l-20 36q54 42 78 55.5t40 13.5q14 0 25.5 -7.5t34.5 -33.5l64 30l20 -36q-51 -41 -76 -55t-41 -14q-15 0 -26.5 8z" />
    <glyph glyph-name="uniFEF6" unicode="&#xfee0;&#xfe82;" horiz-adv-x="679" arabic-form="final" 
d="M20 0zM699 134v-134h-679v134h151l-36 411h119l36 -411h185v496h119v-496h105zM181.5 690q-11.5 8 -34.5 33l-64 -30l-20 36q54 42 78 55.5t40 13.5q14 0 25.5 -7.5t34.5 -33.5l64 30l20 -36q-51 -41 -76 -55t-41 -14q-15 0 -26.5 8z" />
    <glyph glyph-name="uni06440671" unicode="&#xfedf;&#xfb51;" horiz-adv-x="655" 
d="M7 0zM563.5 243.5q15.5 -35.5 15.5 -81.5q0 -94 -62 -135.5t-202 -41.5q-96 0 -149.5 17t-76 53.5t-22.5 100.5q0 52 11.5 86.5t41 59.5t85.5 45l45 16l-165 134l82 100l226 -184l48 17v200h119v-181q0 -63 -9.5 -88.5t-39.5 -35.5v-7q37 -39 52.5 -74.5zM434.5 133
q18.5 14 18.5 36q0 14 -9 29.5t-26 27.5l-53 43l-171 -61v-89h184q38 0 56.5 14zM299.5 875.5q30.5 -19.5 30.5 -62.5v-148h-323v58h30q4 82 46 127t119 45q67 0 97.5 -19.5zM241 723v103q-12 6 -39 6q-37 0 -55.5 -26.5t-20.5 -82.5h115z" />
    <glyph glyph-name="uni06440671.fina" unicode="&#xfee0;&#xfb51;" horiz-adv-x="679" 
d="M20 0zM699 134v-134h-679v134h151l-36 411h119l36 -411h185v496h119v-496h105zM314.5 875.5q30.5 -19.5 30.5 -62.5v-148h-323v58h30q4 82 46 127t119 45q67 0 97.5 -19.5zM256 723v103q-12 6 -39 6q-37 0 -55.5 -26.5t-20.5 -82.5h115z" />
    <glyph glyph-name="uniFDF2" unicode="&#x627;&#xfedf;&#xfee0;&#xfeea;" horiz-adv-x="1602" arabic-form="isolated" 
d="M1185 1027l-70 -18v198l70 18v-198zM1315 993l1 -206l-264 -70q-16 -4 -22 -4q-23 0 -34 20.5t-11 63.5q0 56 13 110l69 10q-10 -44 -10 -88q0 -29 5 -51l57 15q-7 15 -7 52v82l70 20v-137l53 14v137zM1107 630h119v-630h-930q-95 0 -141.5 18.5t-64 67t-17.5 149.5
q0 100 17.5 149t64 67.5t141.5 18.5h256v-336h215v496h119v-496h221v496zM1516 630v-630h-119v630h119zM432 336h-181q-27 0 -39.5 -10.5t-12.5 -33.5v-114q0 -23 12.5 -33.5t39.5 -10.5h181v202z" />
    <glyph glyph-name="uniFE8E" unicode="&#x627;" horiz-adv-x="290" arabic-form="final" 
d="M85 630h119v-496h106v-134h-225v630z" />
    <glyph glyph-name="uniFE84" unicode="&#x623;" horiz-adv-x="290" arabic-form="final" 
d="M29 0zM85 470h119v-336h106v-134h-225v470zM261 698v-59l-232 -62v58l40 11q-9 24 -9 62q0 76 44.5 108t129.5 36v-69q-51 -3 -95 -22v-66q0 -12 4 -17.5t14 -5.5q4 0 22 4z" />
    <glyph glyph-name="uniFE88" unicode="&#x625;" horiz-adv-x="290" arabic-form="final" 
d="M29 0zM85 630h119v-496h106v-134h-225v630zM261 -231v-59l-232 -62v58l40 11q-9 24 -9 62q0 76 44.5 108t129.5 36v-69q-51 -3 -95 -22v-66q0 -12 4 -17.5t14 -5.5q4 0 22 4z" />
    <glyph glyph-name="uniFE82" unicode="&#x622;" horiz-adv-x="290" arabic-form="final" 
d="M13 0zM85 470h119v-336h106v-134h-225v470zM131.5 615q-11.5 8 -34.5 33l-64 -30l-20 36q54 42 78 55.5t40 13.5q14 0 25.5 -7.5t34.5 -33.5l64 30l20 -36q-51 -41 -76 -55t-41 -14q-15 0 -26.5 8z" />
    <glyph glyph-name="uniFB51" unicode="&#x671;" horiz-adv-x="290" arabic-form="final" 
d="M0 0zM85 470h119v-336h106v-134h-225v470zM264.5 800.5q30.5 -19.5 30.5 -62.5v-148h-323v58h30q4 82 46 127t119 45q67 0 97.5 -19.5zM206 648v103q-12 6 -39 6q-37 0 -55.5 -26.5t-20.5 -82.5h115z" />
    <glyph glyph-name="uni066E.init" unicode="&#x66e;" horiz-adv-x="340" 
d="M-20 134h155v336h119v-470h-274v134z" />
    <glyph glyph-name="uni066E.medi" unicode="&#x66e;" horiz-adv-x="340" 
d="M360 134v-134h-380v134h155v336h119v-336h106z" />
    <glyph glyph-name="uni066E.fina" unicode="&#x66e;" horiz-adv-x="904" 
d="M923 134v-134h-704q-85 0 -122 50t-37 164q0 102 30 190l114 -19q-25 -77 -25 -138q0 -71 15 -113h505v336h119v-336h105z" />
    <glyph glyph-name="uniFE90" unicode="&#x628;" horiz-adv-x="904" arabic-form="final" 
d="M60 0zM923 134v-134h-704q-85 0 -122 50t-37 164q0 102 30 190l114 -19q-25 -77 -25 -138q0 -71 15 -113h505v336h119v-336h105zM419.5 -213q-16.5 12 -28.5 28.5t-12 29.5q0 20 25 44.5t45 25.5q20 -1 44.5 -25.5t24.5 -44.5q0 -12 -12 -29t-28.5 -29t-28.5 -12
q-13 0 -29.5 12z" />
    <glyph glyph-name="uniFE92" unicode="&#x628;" horiz-adv-x="340" arabic-form="medial" 
d="M0 0zM360 134v-134h-380v134h155v336h119v-336h106zM165.5 -208q-16.5 12 -28.5 28.5t-12 29.5q0 20 25 44.5t45 25.5q20 -1 44.5 -25.5t24.5 -44.5q0 -12 -12 -29t-28.5 -29t-28.5 -12q-13 0 -29.5 12z" />
    <glyph glyph-name="uniFE91" unicode="&#x628;" horiz-adv-x="340" arabic-form="initial" 
d="M0 0zM-20 134h155v336h119v-470h-274v134zM165.5 -208q-16.5 12 -28.5 28.5t-12 29.5q0 20 25 44.5t45 25.5q20 -1 44.5 -25.5t24.5 -44.5q0 -12 -12 -29t-28.5 -29t-28.5 -12q-13 0 -29.5 12z" />
    <glyph glyph-name="uniFB57" unicode="&#x67e;" horiz-adv-x="904" arabic-form="final" 
d="M60 0zM923 134v-134h-704q-85 0 -122 50t-37 164q0 102 30 190l114 -19q-25 -77 -25 -138q0 -71 15 -113h505v336h119v-336h105zM419.5 -380q-16.5 12 -28.5 28.5t-12 29.5q0 20 25 44.5t45 25.5q20 -1 44.5 -25.5t24.5 -44.5q0 -12 -12 -29t-28.5 -29t-28.5 -12
q-13 0 -29.5 12zM336.5 -203q-16.5 12 -28.5 28.5t-12 29.5q0 20 25 44.5t45 25.5q20 -1 44.5 -25.5t24.5 -44.5q0 -12 -12 -29t-28.5 -29t-28.5 -12q-13 0 -29.5 12zM503.5 -203q-16.5 12 -28.5 28.5t-12 29.5q0 20 25 44.5t45 25.5q20 -1 44.5 -25.5t24.5 -44.5
q0 -12 -12 -29t-28.5 -29t-28.5 -12q-13 0 -29.5 12z" />
    <glyph glyph-name="uniFB59" unicode="&#x67e;" horiz-adv-x="340" arabic-form="medial" 
d="M0 0zM360 134v-134h-380v134h155v336h119v-336h106zM165.5 -375q-16.5 12 -28.5 28.5t-12 29.5q0 20 25 44.5t45 25.5q20 -1 44.5 -25.5t24.5 -44.5q0 -12 -12 -29t-28.5 -29t-28.5 -12q-13 0 -29.5 12zM82.5 -198q-16.5 12 -28.5 28.5t-12 29.5q0 20 25 44.5t45 25.5
q20 -1 44.5 -25.5t24.5 -44.5q0 -12 -12 -29t-28.5 -29t-28.5 -12q-13 0 -29.5 12zM249.5 -198q-16.5 12 -28.5 28.5t-12 29.5q0 20 25 44.5t45 25.5q20 -1 44.5 -25.5t24.5 -44.5q0 -12 -12 -29t-28.5 -29t-28.5 -12q-13 0 -29.5 12z" />
    <glyph glyph-name="uniFB58" unicode="&#x67e;" horiz-adv-x="340" arabic-form="initial" 
d="M0 0zM-20 134h155v336h119v-470h-274v134zM106.5 -369q-16.5 12 -28.5 28.5t-12 29.5q0 20 25 44.5t45 25.5q20 -1 44.5 -25.5t24.5 -44.5q0 -12 -12 -29t-28.5 -29t-28.5 -12q-13 0 -29.5 12zM23.5 -192q-16.5 12 -28.5 28.5t-12 29.5q0 20 25 44.5t45 25.5
q20 -1 44.5 -25.5t24.5 -44.5q0 -12 -12 -29t-28.5 -29t-28.5 -12q-13 0 -29.5 12zM190.5 -192q-16.5 12 -28.5 28.5t-12 29.5q0 20 25 44.5t45 25.5q20 -1 44.5 -25.5t24.5 -44.5q0 -12 -12 -29t-28.5 -29t-28.5 -12q-13 0 -29.5 12z" />
    <glyph glyph-name="uniFE96" unicode="&#x62a;" horiz-adv-x="904" arabic-form="final" 
d="M60 0zM923 134v-134h-704q-85 0 -122 50t-37 164q0 102 30 190l114 -19q-25 -77 -25 -138q0 -71 15 -113h505v336h119v-336h105zM336.5 499q-16.5 12 -28.5 28.5t-12 29.5q0 20 25 44.5t45 25.5q20 -1 44.5 -25.5t24.5 -44.5q0 -12 -12 -29t-28.5 -29t-28.5 -12
q-13 0 -29.5 12zM503.5 499q-16.5 12 -28.5 28.5t-12 29.5q0 20 25 44.5t45 25.5q20 -1 44.5 -25.5t24.5 -44.5q0 -12 -12 -29t-28.5 -29t-28.5 -12q-13 0 -29.5 12z" />
    <glyph glyph-name="uniFE98" unicode="&#x62a;" horiz-adv-x="340" arabic-form="medial" 
d="M0 0zM360 134v-134h-380v134h155v336h119v-336h106zM82.5 599q-16.5 12 -28.5 28.5t-12 29.5q0 20 25 44.5t45 25.5q20 -1 44.5 -25.5t24.5 -44.5q0 -12 -12 -29t-28.5 -29t-28.5 -12q-13 0 -29.5 12zM249.5 599q-16.5 12 -28.5 28.5t-12 29.5q0 20 25 44.5t45 25.5
q20 -1 44.5 -25.5t24.5 -44.5q0 -12 -12 -29t-28.5 -29t-28.5 -12q-13 0 -29.5 12z" />
    <glyph glyph-name="uniFE97" unicode="&#x62a;" horiz-adv-x="340" arabic-form="initial" 
d="M0 0zM-20 134h155v336h119v-470h-274v134zM82.5 599q-16.5 12 -28.5 28.5t-12 29.5q0 20 25 44.5t45 25.5q20 -1 44.5 -25.5t24.5 -44.5q0 -12 -12 -29t-28.5 -29t-28.5 -12q-13 0 -29.5 12zM249.5 599q-16.5 12 -28.5 28.5t-12 29.5q0 20 25 44.5t45 25.5
q20 -1 44.5 -25.5t24.5 -44.5q0 -12 -12 -29t-28.5 -29t-28.5 -12q-13 0 -29.5 12z" />
    <glyph glyph-name="uniFE9A" unicode="&#x62b;" horiz-adv-x="904" arabic-form="final" 
d="M60 0zM923 134v-134h-704q-85 0 -122 50t-37 164q0 102 30 190l114 -19q-25 -77 -25 -138q0 -71 15 -113h505v336h119v-336h105zM336.5 499q-16.5 12 -28.5 28.5t-12 29.5q0 20 25 44.5t45 25.5q20 -1 44.5 -25.5t24.5 -44.5q0 -12 -12 -29t-28.5 -29t-28.5 -12
q-13 0 -29.5 12zM503.5 499q-16.5 12 -28.5 28.5t-12 29.5q0 20 25 44.5t45 25.5q20 -1 44.5 -25.5t24.5 -44.5q0 -12 -12 -29t-28.5 -29t-28.5 -12q-13 0 -29.5 12zM419.5 676q-16.5 12 -28.5 28.5t-12 29.5q0 20 25 44.5t45 25.5q20 -1 44.5 -25.5t24.5 -44.5
q0 -12 -12 -29t-28.5 -29t-28.5 -12q-13 0 -29.5 12z" />
    <glyph glyph-name="uniFE9C" unicode="&#x62b;" horiz-adv-x="340" arabic-form="medial" 
d="M0 0zM360 134v-134h-380v134h155v336h119v-336h106zM82.5 599q-16.5 12 -28.5 28.5t-12 29.5q0 20 25 44.5t45 25.5q20 -1 44.5 -25.5t24.5 -44.5q0 -12 -12 -29t-28.5 -29t-28.5 -12q-13 0 -29.5 12zM249.5 599q-16.5 12 -28.5 28.5t-12 29.5q0 20 25 44.5t45 25.5
q20 -1 44.5 -25.5t24.5 -44.5q0 -12 -12 -29t-28.5 -29t-28.5 -12q-13 0 -29.5 12zM165.5 776q-16.5 12 -28.5 28.5t-12 29.5q0 20 25 44.5t45 25.5q20 -1 44.5 -25.5t24.5 -44.5q0 -12 -12 -29t-28.5 -29t-28.5 -12q-13 0 -29.5 12z" />
    <glyph glyph-name="uniFE9B" unicode="&#x62b;" horiz-adv-x="340" arabic-form="initial" 
d="M0 0zM-20 134h155v336h119v-470h-274v134zM82.5 599q-16.5 12 -28.5 28.5t-12 29.5q0 20 25 44.5t45 25.5q20 -1 44.5 -25.5t24.5 -44.5q0 -12 -12 -29t-28.5 -29t-28.5 -12q-13 0 -29.5 12zM249.5 599q-16.5 12 -28.5 28.5t-12 29.5q0 20 25 44.5t45 25.5
q20 -1 44.5 -25.5t24.5 -44.5q0 -12 -12 -29t-28.5 -29t-28.5 -12q-13 0 -29.5 12zM165.5 776q-16.5 12 -28.5 28.5t-12 29.5q0 20 25 44.5t45 25.5q20 -1 44.5 -25.5t24.5 -44.5q0 -12 -12 -29t-28.5 -29t-28.5 -12q-13 0 -29.5 12z" />
    <glyph glyph-name="uniFB67" unicode="&#x679;" horiz-adv-x="904" arabic-form="final" 
d="M60 0zM923 134v-134h-704q-85 0 -122 50t-37 164q0 102 30 190l114 -19q-25 -77 -25 -138q0 -71 15 -113h505v336h119v-336h105zM577 681.5q20 -18.5 20 -63.5v-128h-318v58h30v215h89v-115q15 25 45 38.5t69 13.5q45 0 65 -18.5zM508 548v82q-17 7 -39 7
q-35 0 -52 -22.5t-19 -66.5h110z" />
    <glyph glyph-name="uniFB69" unicode="&#x679;" horiz-adv-x="340" arabic-form="medial" 
d="M0 0zM360 134v-134h-380v134h155v336h119v-336h106zM323 781.5q20 -18.5 20 -63.5v-128h-318v58h30v215h89v-115q15 25 45 38.5t69 13.5q45 0 65 -18.5zM254 648v82q-17 7 -39 7q-35 0 -52 -22.5t-19 -66.5h110z" />
    <glyph glyph-name="uniFB68" unicode="&#x679;" horiz-adv-x="340" arabic-form="initial" 
d="M0 0zM-20 134h155v336h119v-470h-274v134zM323 781.5q20 -18.5 20 -63.5v-128h-318v58h30v215h89v-115q15 25 45 38.5t69 13.5q45 0 65 -18.5zM254 648v82q-17 7 -39 7q-35 0 -52 -22.5t-19 -66.5h110z" />
    <glyph glyph-name="uniFE9E" unicode="&#x62c;" horiz-adv-x="597" arabic-form="final" 
d="M617 134v-134h-87q-31 0 -50 13.5t-30 42.5l-34 88q-124 -9 -184 -41.5t-60 -94.5v-153q51 -8 122 -8q44 0 85.5 5.5t94.5 17.5l15 -127q-98 -30 -229 -30q-84 0 -130 23.5t-65.5 75.5t-19.5 143q0 138 79.5 206.5t250.5 85.5q-28 55 -73 78t-123 23q-49 0 -107 -6
l-18 132q68 8 128 8q127 0 199 -49t113 -163l50 -136h73zM273.5 18q22.5 22 40.5 22t40 -22t22 -41q0 -17 -22.5 -40t-39.5 -23t-40 23t-23 40q0 19 22.5 41z" />
    <glyph glyph-name="uniFEA0" unicode="&#x62c;" horiz-adv-x="596" arabic-form="medial" 
d="M0 0zM617 134v-134h-87q-31 0 -50 13.5t-30 42.5l-25 67q-45 -62 -110.5 -92.5t-146.5 -30.5h-188v134h210q123 0 176 130q-27 45 -70.5 64.5t-116.5 19.5q-59 0 -107 -6l-18 132q75 8 128 8q128 0 199.5 -49.5t112.5 -162.5l50 -136h73zM261.5 -208q-16.5 12 -28.5 28.5
t-12 29.5q0 20 25 44.5t45 25.5q20 -1 44.5 -25.5t24.5 -44.5q0 -12 -12 -29t-28.5 -29t-28.5 -12q-13 0 -29.5 12z" />
    <glyph glyph-name="uniFE9F" unicode="&#x62c;" horiz-adv-x="573" arabic-form="initial" 
d="M0 0zM573 299v-134h-106q-12 0 -18 1q-48 -83 -126 -124.5t-180 -41.5h-163v134h180q78 0 128.5 36.5t77.5 95.5q-26 44 -69.5 63t-117.5 19q-59 0 -107 -6l-18 132q75 8 128 8q123 0 191.5 -42.5t107.5 -140.5h92zM247.5 -208q-16.5 12 -28.5 28.5t-12 29.5
q0 20 25 44.5t45 25.5q20 -1 44.5 -25.5t24.5 -44.5q0 -12 -12 -29t-28.5 -29t-28.5 -12q-13 0 -29.5 12z" />
    <glyph glyph-name="uniFB7B" unicode="&#x686;" horiz-adv-x="721" arabic-form="final" 
d="M741 134v-134h-87q-31 0 -50 13.5t-30 42.5l-30 79q-198 -2 -286.5 -32t-88.5 -95v-153q23 -6 56 -6q38 0 84 8l15 -127q-54 -15 -96 -15q-72 0 -111 23.5t-54.5 75t-15.5 141.5q0 102 46 163.5t145 90.5t265 30q-29 59 -74 84t-126 25q-49 0 -107 -6l-18 132q68 8 128 8
q127 0 199 -49t113 -163l50 -136h73zM376.5 -48q-22.5 -23 -39.5 -23t-40 22.5t-23 40.5t22.5 40t40.5 23q18 -1 40 -23t22 -40q0 -17 -22.5 -40zM528 32q22 -22 22 -40q0 -17 -22.5 -40t-39.5 -23t-40 22.5t-23 40.5t22.5 40t40.5 23q18 -1 40 -23zM452 -127q22 -22 22 -40
q0 -17 -22.5 -40t-39.5 -23t-40 22.5t-23 40.5t22.5 40t40.5 23q18 -1 40 -23z" />
    <glyph glyph-name="uniFB7D" unicode="&#x686;" horiz-adv-x="596" arabic-form="medial" 
d="M0 0zM617 134v-134h-87q-31 0 -50 13.5t-30 42.5l-25 67q-45 -62 -110.5 -92.5t-146.5 -30.5h-188v134h210q123 0 176 130q-27 45 -70.5 64.5t-116.5 19.5q-59 0 -107 -6l-18 132q75 8 128 8q128 0 199.5 -49.5t112.5 -162.5l50 -136h73zM261.5 -375q-16.5 12 -28.5 28.5
t-12 29.5q0 20 25 44.5t45 25.5q20 -1 44.5 -25.5t24.5 -44.5q0 -12 -12 -29t-28.5 -29t-28.5 -12q-13 0 -29.5 12zM178.5 -198q-16.5 12 -28.5 28.5t-12 29.5q0 20 25 44.5t45 25.5q20 -1 44.5 -25.5t24.5 -44.5q0 -12 -12 -29t-28.5 -29t-28.5 -12q-13 0 -29.5 12z
M345.5 -198q-16.5 12 -28.5 28.5t-12 29.5q0 20 25 44.5t45 25.5q20 -1 44.5 -25.5t24.5 -44.5q0 -12 -12 -29t-28.5 -29t-28.5 -12q-13 0 -29.5 12z" />
    <glyph glyph-name="uniFB7C" unicode="&#x686;" horiz-adv-x="573" arabic-form="initial" 
d="M0 0zM573 299v-134h-106q-12 0 -18 1q-48 -83 -126 -124.5t-180 -41.5h-163v134h180q78 0 128.5 36.5t77.5 95.5q-26 44 -69.5 63t-117.5 19q-59 0 -107 -6l-18 132q75 8 128 8q123 0 191.5 -42.5t107.5 -140.5h92zM247.5 -375q-16.5 12 -28.5 28.5t-12 29.5
q0 20 25 44.5t45 25.5q20 -1 44.5 -25.5t24.5 -44.5q0 -12 -12 -29t-28.5 -29t-28.5 -12q-13 0 -29.5 12zM164.5 -198q-16.5 12 -28.5 28.5t-12 29.5q0 20 25 44.5t45 25.5q20 -1 44.5 -25.5t24.5 -44.5q0 -12 -12 -29t-28.5 -29t-28.5 -12q-13 0 -29.5 12zM331.5 -198
q-16.5 12 -28.5 28.5t-12 29.5q0 20 25 44.5t45 25.5q20 -1 44.5 -25.5t24.5 -44.5q0 -12 -12 -29t-28.5 -29t-28.5 -12q-13 0 -29.5 12z" />
    <glyph glyph-name="uniFEA2" unicode="&#x62d;" horiz-adv-x="597" arabic-form="final" 
d="M617 134v-134h-87q-31 0 -50 13.5t-30 42.5l-34 88q-124 -9 -184 -41.5t-60 -94.5v-153q51 -8 122 -8q44 0 85.5 5.5t94.5 17.5l15 -127q-98 -30 -229 -30q-84 0 -130 23.5t-65.5 75.5t-19.5 143q0 138 79.5 206.5t250.5 85.5q-28 55 -73 78t-123 23q-49 0 -107 -6
l-18 132q68 8 128 8q127 0 199 -49t113 -163l50 -136h73z" />
    <glyph glyph-name="uniFEA4" unicode="&#x62d;" horiz-adv-x="596" arabic-form="medial" 
d="M617 134v-134h-87q-31 0 -50 13.5t-30 42.5l-25 67q-45 -62 -110.5 -92.5t-146.5 -30.5h-188v134h210q123 0 176 130q-27 45 -70.5 64.5t-116.5 19.5q-59 0 -107 -6l-18 132q75 8 128 8q128 0 199.5 -49.5t112.5 -162.5l50 -136h73z" />
    <glyph glyph-name="uniFEA3" unicode="&#x62d;" horiz-adv-x="573" arabic-form="initial" 
d="M573 299v-134h-106q-12 0 -18 1q-48 -83 -126 -124.5t-180 -41.5h-163v134h180q78 0 128.5 36.5t77.5 95.5q-26 44 -69.5 63t-117.5 19q-59 0 -107 -6l-18 132q75 8 128 8q123 0 191.5 -42.5t107.5 -140.5h92z" />
    <glyph glyph-name="uniFEA6" unicode="&#x62e;" horiz-adv-x="597" arabic-form="final" 
d="M45 0zM617 134v-134h-87q-31 0 -50 13.5t-30 42.5l-34 88q-124 -9 -184 -41.5t-60 -94.5v-153q51 -8 122 -8q44 0 85.5 5.5t94.5 17.5l15 -127q-98 -30 -229 -30q-84 0 -130 23.5t-65.5 75.5t-19.5 143q0 138 79.5 206.5t250.5 85.5q-28 55 -73 78t-123 23q-49 0 -107 -6
l-18 132q68 8 128 8q127 0 199 -49t113 -163l50 -136h73zM259.5 622q-16.5 12 -28.5 28.5t-12 29.5q0 20 25 44.5t45 25.5q20 -1 44.5 -25.5t24.5 -44.5q0 -12 -12 -29t-28.5 -29t-28.5 -12q-13 0 -29.5 12z" />
    <glyph glyph-name="uniFEA8" unicode="&#x62e;" horiz-adv-x="596" arabic-form="medial" 
d="M0 0zM617 134v-134h-87q-31 0 -50 13.5t-30 42.5l-25 67q-45 -62 -110.5 -92.5t-146.5 -30.5h-188v134h210q123 0 176 130q-27 45 -70.5 64.5t-116.5 19.5q-59 0 -107 -6l-18 132q75 8 128 8q128 0 199.5 -49.5t112.5 -162.5l50 -136h73zM234.5 599q-16.5 12 -28.5 28.5
t-12 29.5q0 20 25 44.5t45 25.5q20 -1 44.5 -25.5t24.5 -44.5q0 -12 -12 -29t-28.5 -29t-28.5 -12q-13 0 -29.5 12z" />
    <glyph glyph-name="uniFEA7" unicode="&#x62e;" horiz-adv-x="573" arabic-form="initial" 
d="M0 0zM573 299v-134h-106q-12 0 -18 1q-48 -83 -126 -124.5t-180 -41.5h-163v134h180q78 0 128.5 36.5t77.5 95.5q-26 44 -69.5 63t-117.5 19q-59 0 -107 -6l-18 132q75 8 128 8q123 0 191.5 -42.5t107.5 -140.5h92zM234.5 599q-16.5 12 -28.5 28.5t-12 29.5q0 20 25 44.5
t45 25.5q20 -1 44.5 -25.5t24.5 -44.5q0 -12 -12 -29t-28.5 -29t-28.5 -12q-13 0 -29.5 12z" />
    <glyph glyph-name="uniFEAA" unicode="&#x62f;" horiz-adv-x="517" arabic-form="final" 
d="M537 134v-134h-517v134h314q-24 95 -44.5 141.5t-48 64t-75.5 17.5q-47 0 -97 -12l-33 131q58 15 130 15q92 0 141 -26t84 -99t78 -232h68z" />
    <glyph glyph-name="uniFEAC" unicode="&#x630;" horiz-adv-x="517" arabic-form="final" 
d="M20 0zM537 134v-134h-517v134h314q-24 95 -44.5 141.5t-48 64t-75.5 17.5q-47 0 -97 -12l-33 131q58 15 130 15q92 0 141 -26t84 -99t78 -232h68zM165.5 599q-16.5 12 -28.5 28.5t-12 29.5q0 20 25 44.5t45 25.5q20 -1 44.5 -25.5t24.5 -44.5q0 -12 -12 -29t-28.5 -29
t-28.5 -12q-13 0 -29.5 12z" />
    <glyph glyph-name="uniFB89" unicode="&#x688;" horiz-adv-x="517" arabic-form="final" 
d="M20 0zM537 134v-134h-517v134h314q-24 95 -44.5 141.5t-48 64t-75.5 17.5q-47 0 -97 -12l-33 131q58 15 130 15q92 0 141 -26t84 -99t78 -232h68zM323 781.5q20 -18.5 20 -63.5v-128h-318v58h30v215h89v-115q15 25 45 38.5t69 13.5q45 0 65 -18.5zM254 648v82
q-17 7 -39 7q-35 0 -52 -22.5t-19 -66.5h110z" />
    <glyph glyph-name="uniFEAE" unicode="&#x631;" horiz-adv-x="325" arabic-form="final" 
d="M344 0h-103q-2 -106 -42 -169t-130 -103l-46 107q40 18 61 39t29.5 53.5t8.5 86.5v456h119v-336h103v-134z" />
    <glyph glyph-name="uniFEB0" unicode="&#x632;" horiz-adv-x="325" arabic-form="final" 
d="M23 0zM344 0h-103q-2 -106 -42 -169t-130 -103l-46 107q40 18 61 39t29.5 53.5t8.5 86.5v456h119v-336h103v-134zM150.5 599q-16.5 12 -28.5 28.5t-12 29.5q0 20 25 44.5t45 25.5q20 -1 44.5 -25.5t24.5 -44.5q0 -12 -12 -29t-28.5 -29t-28.5 -12q-13 0 -29.5 12z" />
    <glyph glyph-name="uniFB8D" unicode="&#x691;" horiz-adv-x="325" arabic-form="final" 
d="M10 0zM344 0h-103q-2 -106 -42 -169t-130 -103l-46 107q40 18 61 39t29.5 53.5t8.5 86.5v456h119v-336h103v-134zM308 781.5q20 -18.5 20 -63.5v-128h-318v58h30v215h89v-115q15 25 45 38.5t69 13.5q45 0 65 -18.5zM239 648v82q-17 7 -39 7q-35 0 -52 -22.5t-19 -66.5
h110z" />
    <glyph glyph-name="uniFB8B" unicode="&#x698;" horiz-adv-x="325" arabic-form="final" 
d="M23 0zM344 0h-103q-2 -106 -42 -169t-130 -103l-46 107q40 18 61 39t29.5 53.5t8.5 86.5v456h119v-336h103v-134zM67.5 599q-16.5 12 -28.5 28.5t-12 29.5q0 20 25 44.5t45 25.5q20 -1 44.5 -25.5t24.5 -44.5q0 -12 -12 -29t-28.5 -29t-28.5 -12q-13 0 -29.5 12z
M234.5 599q-16.5 12 -28.5 28.5t-12 29.5q0 20 25 44.5t45 25.5q20 -1 44.5 -25.5t24.5 -44.5q0 -12 -12 -29t-28.5 -29t-28.5 -12q-13 0 -29.5 12zM150.5 776q-16.5 12 -28.5 28.5t-12 29.5q0 20 25 44.5t45 25.5q20 -1 44.5 -25.5t24.5 -44.5q0 -12 -12 -29t-28.5 -29
t-28.5 -12q-13 0 -29.5 12z" />
    <glyph glyph-name="uniFEB2" unicode="&#x633;" horiz-adv-x="1328" arabic-form="final" 
d="M1348 134v-134h-327q-62 0 -101.5 7t-64.5 24q-27 -17 -70 -24t-110 -7h-88v-14q0 -94 -20.5 -141t-76.5 -66t-172 -19q-108 0 -161 19.5t-72.5 68.5t-19.5 148q0 126 29 216l119 -19q-29 -104 -29 -173q0 -75 11 -126h157q64 0 90 11t26 42v433h119v-246h133q40 0 58 11
t18 42v193h119v-193q0 -31 18 -42t58 -11h122q11 47 11 123q0 78 -27 194l118 18q13 -42 20.5 -98.5t7.5 -107.5q0 -78 -13 -129h118z" />
    <glyph glyph-name="uniFEB4" unicode="&#x633;" horiz-adv-x="996" arabic-form="medial" 
d="M1015 134v-134h-332q-60 0 -99 7t-63 24q-26 -17 -69 -24t-110 -7h-362v134h155v246h119v-246h133q40 0 58 11t18 42v193h119v-193q0 -31 18 -42t58 -11h122q11 47 11 123q0 78 -27 194l118 18q13 -42 20.5 -98.5t7.5 -107.5q0 -78 -13 -129h118z" />
    <glyph glyph-name="uniFEB3" unicode="&#x633;" horiz-adv-x="988" arabic-form="initial" 
d="M902.5 370.5q7.5 -56.5 7.5 -107.5q0 -102 -22 -159t-70 -80.5t-130 -23.5q-62 0 -101.5 7t-64.5 24q-27 -17 -70 -24t-110 -7h-362v134h155v246h119v-246h133q40 0 58 11t18 42v193h119v-193q0 -31 18 -42t58 -11h122q11 47 11 123q0 78 -27 194l118 18
q13 -42 20.5 -98.5z" />
    <glyph glyph-name="uniFEB6" unicode="&#x634;" horiz-adv-x="1328" arabic-form="final" 
d="M65 0zM1348 134v-134h-327q-62 0 -101.5 7t-64.5 24q-27 -17 -70 -24t-110 -7h-88v-14q0 -94 -20.5 -141t-76.5 -66t-172 -19q-108 0 -161 19.5t-72.5 68.5t-19.5 148q0 126 29 216l119 -19q-29 -104 -29 -173q0 -75 11 -126h157q64 0 90 11t26 42v433h119v-246h133
q40 0 58 11t18 42v193h119v-193q0 -31 18 -42t58 -11h122q11 47 11 123q0 78 -27 194l118 18q13 -42 20.5 -98.5t7.5 -107.5q0 -78 -13 -129h118zM747.5 599q-16.5 12 -28.5 28.5t-12 29.5q0 20 25 44.5t45 25.5q20 -1 44.5 -25.5t24.5 -44.5q0 -12 -12 -29t-28.5 -29
t-28.5 -12q-13 0 -29.5 12zM914.5 599q-16.5 12 -28.5 28.5t-12 29.5q0 20 25 44.5t45 25.5q20 -1 44.5 -25.5t24.5 -44.5q0 -12 -12 -29t-28.5 -29t-28.5 -12q-13 0 -29.5 12zM830.5 776q-16.5 12 -28.5 28.5t-12 29.5q0 20 25 44.5t45 25.5q20 -1 44.5 -25.5t24.5 -44.5
q0 -12 -12 -29t-28.5 -29t-28.5 -12q-13 0 -29.5 12z" />
    <glyph glyph-name="uniFEB8" unicode="&#x634;" horiz-adv-x="996" arabic-form="medial" 
d="M0 0zM1015 134v-134h-332q-60 0 -99 7t-63 24q-26 -17 -69 -24t-110 -7h-362v134h155v246h119v-246h133q40 0 58 11t18 42v193h119v-193q0 -31 18 -42t58 -11h122q11 47 11 123q0 78 -27 194l118 18q13 -42 20.5 -98.5t7.5 -107.5q0 -78 -13 -129h118zM415.5 599
q-16.5 12 -28.5 28.5t-12 29.5q0 20 25 44.5t45 25.5q20 -1 44.5 -25.5t24.5 -44.5q0 -12 -12 -29t-28.5 -29t-28.5 -12q-13 0 -29.5 12zM582.5 599q-16.5 12 -28.5 28.5t-12 29.5q0 20 25 44.5t45 25.5q20 -1 44.5 -25.5t24.5 -44.5q0 -12 -12 -29t-28.5 -29t-28.5 -12
q-13 0 -29.5 12zM498.5 776q-16.5 12 -28.5 28.5t-12 29.5q0 20 25 44.5t45 25.5q20 -1 44.5 -25.5t24.5 -44.5q0 -12 -12 -29t-28.5 -29t-28.5 -12q-13 0 -29.5 12z" />
    <glyph glyph-name="uniFEB7" unicode="&#x634;" horiz-adv-x="988" arabic-form="initial" 
d="M0 0zM902.5 370.5q7.5 -56.5 7.5 -107.5q0 -102 -22 -159t-70 -80.5t-130 -23.5q-62 0 -101.5 7t-64.5 24q-27 -17 -70 -24t-110 -7h-362v134h155v246h119v-246h133q40 0 58 11t18 42v193h119v-193q0 -31 18 -42t58 -11h122q11 47 11 123q0 78 -27 194l118 18
q13 -42 20.5 -98.5zM415.5 599q-16.5 12 -28.5 28.5t-12 29.5q0 20 25 44.5t45 25.5q20 -1 44.5 -25.5t24.5 -44.5q0 -12 -12 -29t-28.5 -29t-28.5 -12q-13 0 -29.5 12zM582.5 599q-16.5 12 -28.5 28.5t-12 29.5q0 20 25 44.5t45 25.5q20 -1 44.5 -25.5t24.5 -44.5
q0 -12 -12 -29t-28.5 -29t-28.5 -12q-13 0 -29.5 12zM498.5 776q-16.5 12 -28.5 28.5t-12 29.5q0 20 25 44.5t45 25.5q20 -1 44.5 -25.5t24.5 -44.5q0 -12 -12 -29t-28.5 -29t-28.5 -12q-13 0 -29.5 12z" />
    <glyph glyph-name="uniFEBA" unicode="&#x635;" horiz-adv-x="1165" arabic-form="final" 
d="M1185 134v-134h-598v-14q0 -94 -20.5 -141t-76.5 -66t-172 -19q-108 0 -161 19.5t-72.5 68.5t-19.5 148q0 126 29 216l119 -19q-29 -104 -29 -173q0 -75 11 -126h157q64 0 90 11t26 42v523h119v-156q31 77 114.5 121.5t194.5 44.5q71 0 110.5 -14t56 -47t16.5 -93v-192
h106zM960 134v201q-35 11 -116 11q-117 0 -180.5 -52.5t-74.5 -159.5h371z" />
    <glyph glyph-name="uniFEBC" unicode="&#x635;" horiz-adv-x="832" arabic-form="medial" 
d="M852 134v-134h-872v134h155v336h119v-156q31 77 114.5 121.5t194.5 44.5q71 0 110.5 -14t56 -47t16.5 -93v-192h106zM330.5 293.5q-63.5 -52.5 -74.5 -159.5h371v201q-35 11 -116 11q-117 0 -180.5 -52.5z" />
    <glyph glyph-name="uniFEBB" unicode="&#x635;" horiz-adv-x="829" arabic-form="initial" 
d="M673.5 466q39.5 -14 56 -47t16.5 -93v-326h-766v134h155v336h119v-156q31 77 114.5 121.5t194.5 44.5q71 0 110.5 -14zM627 134v201q-35 11 -116 11q-117 0 -180.5 -52.5t-74.5 -159.5h371z" />
    <glyph glyph-name="uniFEBE" unicode="&#x636;" horiz-adv-x="1165" arabic-form="final" 
d="M65 0zM1185 134v-134h-598v-14q0 -94 -20.5 -141t-76.5 -66t-172 -19q-108 0 -161 19.5t-72.5 68.5t-19.5 148q0 126 29 216l119 -19q-29 -104 -29 -173q0 -75 11 -126h157q64 0 90 11t26 42v523h119v-156q31 77 114.5 121.5t194.5 44.5q71 0 110.5 -14t56 -47t16.5 -93
v-192h106zM960 134v201q-35 11 -116 11q-117 0 -180.5 -52.5t-74.5 -159.5h371zM823.5 599q-16.5 12 -28.5 28.5t-12 29.5q0 20 25 44.5t45 25.5q20 -1 44.5 -25.5t24.5 -44.5q0 -12 -12 -29t-28.5 -29t-28.5 -12q-13 0 -29.5 12z" />
    <glyph glyph-name="uniFEC0" unicode="&#x636;" horiz-adv-x="832" arabic-form="medial" 
d="M0 0zM852 134v-134h-872v134h155v336h119v-156q31 77 114.5 121.5t194.5 44.5q71 0 110.5 -14t56 -47t16.5 -93v-192h106zM330.5 293.5q-63.5 -52.5 -74.5 -159.5h371v201q-35 11 -116 11q-117 0 -180.5 -52.5zM455.5 599q-16.5 12 -28.5 28.5t-12 29.5q0 20 25 44.5
t45 25.5q20 -1 44.5 -25.5t24.5 -44.5q0 -12 -12 -29t-28.5 -29t-28.5 -12q-13 0 -29.5 12z" />
    <glyph glyph-name="uniFEBF" unicode="&#x636;" horiz-adv-x="829" arabic-form="initial" 
d="M0 0zM673.5 466q39.5 -14 56 -47t16.5 -93v-326h-766v134h155v336h119v-156q31 77 114.5 121.5t194.5 44.5q71 0 110.5 -14zM627 134v201q-35 11 -116 11q-117 0 -180.5 -52.5t-74.5 -159.5h371zM455.5 599q-16.5 12 -28.5 28.5t-12 29.5q0 20 25 44.5t45 25.5
q20 -1 44.5 -25.5t24.5 -44.5q0 -12 -12 -29t-28.5 -29t-28.5 -12q-13 0 -29.5 12z" />
    <glyph glyph-name="uniFEC2" unicode="&#x637;" horiz-adv-x="832" arabic-form="final" 
d="M851 134v-134h-831v134h115v496h119v-316q31 77 114.5 121.5t194.5 44.5q71 0 110.5 -14t56 -47t16.5 -93v-192h105zM627 134v201q-35 11 -116 11q-117 0 -180.5 -52.5t-74.5 -159.5h371z" />
    <glyph glyph-name="uniFEC4" unicode="&#x637;" horiz-adv-x="832" arabic-form="medial" 
d="M852 134v-134h-872v134h155v496h119v-316q31 77 114.5 121.5t194.5 44.5q71 0 110.5 -14t56 -47t16.5 -93v-192h106zM627 134v201q-35 11 -116 11q-117 0 -180.5 -52.5t-74.5 -159.5h371z" />
    <glyph glyph-name="uniFEC3" unicode="&#x637;" horiz-adv-x="829" arabic-form="initial" 
d="M673.5 466q39.5 -14 56 -47t16.5 -93v-326h-766v134h155v496h119v-316q31 77 114.5 121.5t194.5 44.5q71 0 110.5 -14zM627 335q-35 11 -116 11q-117 0 -180.5 -52.5t-74.5 -159.5h371v201z" />
    <glyph glyph-name="uniFEC6" unicode="&#x638;" horiz-adv-x="832" arabic-form="final" 
d="M20 0zM851 134v-134h-831v134h115v496h119v-316q31 77 114.5 121.5t194.5 44.5q71 0 110.5 -14t56 -47t16.5 -93v-192h105zM627 134v201q-35 11 -116 11q-117 0 -180.5 -52.5t-74.5 -159.5h371zM504.5 599q-16.5 12 -28.5 28.5t-12 29.5q0 20 25 44.5t45 25.5
q20 -1 44.5 -25.5t24.5 -44.5q0 -12 -12 -29t-28.5 -29t-28.5 -12q-13 0 -29.5 12z" />
    <glyph glyph-name="uniFEC8" unicode="&#x638;" horiz-adv-x="832" arabic-form="medial" 
d="M0 0zM852 134v-134h-872v134h155v496h119v-316q31 77 114.5 121.5t194.5 44.5q71 0 110.5 -14t56 -47t16.5 -93v-192h106zM627 134v201q-35 11 -116 11q-117 0 -180.5 -52.5t-74.5 -159.5h371zM504.5 599q-16.5 12 -28.5 28.5t-12 29.5q0 20 25 44.5t45 25.5
q20 -1 44.5 -25.5t24.5 -44.5q0 -12 -12 -29t-28.5 -29t-28.5 -12q-13 0 -29.5 12z" />
    <glyph glyph-name="uniFEC7" unicode="&#x638;" horiz-adv-x="829" arabic-form="initial" 
d="M0 0zM673.5 466q39.5 -14 56 -47t16.5 -93v-326h-766v134h155v496h119v-316q31 77 114.5 121.5t194.5 44.5q71 0 110.5 -14zM627 335q-35 11 -116 11q-117 0 -180.5 -52.5t-74.5 -159.5h371v201zM504.5 599q-16.5 12 -28.5 28.5t-12 29.5q0 20 25 44.5t45 25.5
q20 -1 44.5 -25.5t24.5 -44.5q0 -12 -12 -29t-28.5 -29t-28.5 -12q-13 0 -29.5 12z" />
    <glyph glyph-name="uniFECA" unicode="&#x639;" horiz-adv-x="675" arabic-form="final" 
d="M64 -16q17 41 51.5 68t93.5 52q-67 50 -104 119.5t-37 149.5q0 40 26.5 64t85 34.5t158.5 10.5q101 0 159 -10.5t84 -34t26 -64.5q0 -140 -107 -233q45 -6 94 -6h101v-134h-164q-101 0 -194 33q-81 -30 -124.5 -52.5t-43.5 -42.5v-113q48 -8 125 -8q42 0 83.5 5.5
t96.5 17.5l16 -132q-81 -25 -230 -25q-79 0 -125.5 20t-67 63t-20.5 114q0 63 17 104zM336 153q152 49 152 195h-301q0 -151 149 -195z" />
    <glyph glyph-name="uniFECC" unicode="&#x639;" horiz-adv-x="675" arabic-form="medial" 
d="M695 134v-134h-165q-99 0 -192 33q-91 -33 -193 -33h-165v134h165h29q-51 49 -78.5 110.5t-27.5 128.5q0 40 26.5 64t85 34.5t158.5 10.5q101 0 159 -10.5t84 -34t26 -64.5q0 -68 -27 -128.5t-77 -110.5h28h164zM224 228.5q37 -47.5 114 -71.5q76 24 113 71.5t37 119.5
h-301q0 -72 37 -119.5z" />
    <glyph glyph-name="uniFECB" unicode="&#x639;" horiz-adv-x="590" arabic-form="initial" 
d="M547 134v-134h-567v134h139q-9 45 -9 109q0 93 18.5 143.5t62.5 72.5t125 22q95 0 186 -27l-19 -127q-86 19 -154 19q-62 0 -97 -7v-146q-1 -32 17 -45.5t57 -13.5h241z" />
    <glyph glyph-name="uniFECE" unicode="&#x63a;" horiz-adv-x="675" arabic-form="final" 
d="M47 0zM64 -16q17 41 51.5 68t93.5 52q-67 50 -104 119.5t-37 149.5q0 40 26.5 64t85 34.5t158.5 10.5q101 0 159 -10.5t84 -34t26 -64.5q0 -140 -107 -233q45 -6 94 -6h101v-134h-164q-101 0 -194 33q-81 -30 -124.5 -52.5t-43.5 -42.5v-113q48 -8 125 -8q42 0 83.5 5.5
t96.5 17.5l16 -132q-81 -25 -230 -25q-79 0 -125.5 20t-67 63t-20.5 114q0 63 17 104zM336 153q152 49 152 195h-301q0 -151 149 -195zM308.5 599q-16.5 12 -28.5 28.5t-12 29.5q0 20 25 44.5t45 25.5q20 -1 44.5 -25.5t24.5 -44.5q0 -12 -12 -29t-28.5 -29t-28.5 -12
q-13 0 -29.5 12z" />
    <glyph glyph-name="uniFED0" unicode="&#x63a;" horiz-adv-x="675" arabic-form="medial" 
d="M0 0zM695 134v-134h-165q-99 0 -192 33q-91 -33 -193 -33h-165v134h165h29q-51 49 -78.5 110.5t-27.5 128.5q0 40 26.5 64t85 34.5t158.5 10.5q101 0 159 -10.5t84 -34t26 -64.5q0 -68 -27 -128.5t-77 -110.5h28h164zM224 228.5q37 -47.5 114 -71.5q76 24 113 71.5
t37 119.5h-301q0 -72 37 -119.5zM308.5 599q-16.5 12 -28.5 28.5t-12 29.5q0 20 25 44.5t45 25.5q20 -1 44.5 -25.5t24.5 -44.5q0 -12 -12 -29t-28.5 -29t-28.5 -12q-13 0 -29.5 12z" />
    <glyph glyph-name="uniFECF" unicode="&#x63a;" horiz-adv-x="590" arabic-form="initial" 
d="M0 0zM547 134v-134h-567v134h139q-9 45 -9 109q0 93 18.5 143.5t62.5 72.5t125 22q95 0 186 -27l-19 -127q-86 19 -154 19q-62 0 -97 -7v-146q-1 -32 17 -45.5t57 -13.5h241zM295.5 599q-16.5 12 -28.5 28.5t-12 29.5q0 20 25 44.5t45 25.5q20 -1 44.5 -25.5t24.5 -44.5
q0 -12 -12 -29t-28.5 -29t-28.5 -12q-13 0 -29.5 12z" />
    <glyph glyph-name="uniFED2" unicode="&#x641;" horiz-adv-x="1004" arabic-form="final" 
d="M60 0zM1023 135v-135h-804q-85 0 -122 50t-37 164q0 102 30 190l114 -19q-25 -77 -25 -138q0 -71 15 -113h280q-8 32 -11.5 64t-3.5 82q0 75 22.5 118.5t73.5 63.5t139 20q65 0 116 -8t108 -27v-312h105zM799 345h-170q-25 0 -34 -9.5t-9 -36.5v-165h170q24 0 33.5 9.5
t9.5 34.5v167zM689.5 599q-16.5 12 -28.5 28.5t-12 29.5q0 20 25 44.5t45 25.5q20 -1 44.5 -25.5t24.5 -44.5q0 -12 -12 -29t-28.5 -29t-28.5 -12q-13 0 -29.5 12z" />
    <glyph glyph-name="uniFED4" unicode="&#x641;" horiz-adv-x="661" arabic-form="medial" 
d="M0 0zM680 135v-135h-700v134h152q-8 32 -11.5 64t-3.5 82q0 75 22 118.5t73 63.5t139 20q65 0 116 -8t108 -27v-312h105zM456 347h-170q-25 0 -34 -9.5t-9 -36.5v-167h170q24 0 33.5 9.5t9.5 34.5v169zM321.5 599q-16.5 12 -28.5 28.5t-12 29.5q0 20 25 44.5t45 25.5
q20 -1 44.5 -25.5t24.5 -44.5q0 -12 -12 -29t-28.5 -29t-28.5 -12q-13 0 -29.5 12z" />
    <glyph glyph-name="uniFED3" unicode="&#x641;" horiz-adv-x="661" arabic-form="initial" 
d="M0 0zM132 134q-8 32 -11.5 64t-3.5 82q0 75 22 118.5t73 63.5t139 20q65 0 116 -8t108 -27v-447h-595v134h152zM446.5 143.5q9.5 9.5 9.5 34.5v169h-170q-25 0 -34 -9.5t-9 -36.5v-167h170q24 0 33.5 9.5zM321.5 599q-16.5 12 -28.5 28.5t-12 29.5q0 20 25 44.5t45 25.5
q20 -1 44.5 -25.5t24.5 -44.5q0 -12 -12 -29t-28.5 -29t-28.5 -12q-13 0 -29.5 12z" />
    <glyph glyph-name="uniFB6B" unicode="&#x6a4;" horiz-adv-x="1004" arabic-form="final" 
d="M60 0zM1023 135v-135h-804q-85 0 -122 50t-37 164q0 102 30 190l114 -19q-25 -77 -25 -138q0 -71 15 -113h280q-8 32 -11.5 64t-3.5 82q0 75 22.5 118.5t73.5 63.5t139 20q65 0 116 -8t108 -27v-312h105zM799 345h-170q-25 0 -34 -9.5t-9 -36.5v-165h170q24 0 33.5 9.5
t9.5 34.5v167zM606.5 599q-16.5 12 -28.5 28.5t-12 29.5q0 20 25 44.5t45 25.5q20 -1 44.5 -25.5t24.5 -44.5q0 -12 -12 -29t-28.5 -29t-28.5 -12q-13 0 -29.5 12zM773.5 599q-16.5 12 -28.5 28.5t-12 29.5q0 20 25 44.5t45 25.5q20 -1 44.5 -25.5t24.5 -44.5q0 -12 -12 -29
t-28.5 -29t-28.5 -12q-13 0 -29.5 12zM689.5 776q-16.5 12 -28.5 28.5t-12 29.5q0 20 25 44.5t45 25.5q20 -1 44.5 -25.5t24.5 -44.5q0 -12 -12 -29t-28.5 -29t-28.5 -12q-13 0 -29.5 12z" />
    <glyph glyph-name="uniFB6D" unicode="&#x6a4;" horiz-adv-x="661" arabic-form="medial" 
d="M0 0zM680 135v-135h-700v134h152q-8 32 -11.5 64t-3.5 82q0 75 22 118.5t73 63.5t139 20q65 0 116 -8t108 -27v-312h105zM456 347h-170q-25 0 -34 -9.5t-9 -36.5v-167h170q24 0 33.5 9.5t9.5 34.5v169zM238.5 599q-16.5 12 -28.5 28.5t-12 29.5q0 20 25 44.5t45 25.5
q20 -1 44.5 -25.5t24.5 -44.5q0 -12 -12 -29t-28.5 -29t-28.5 -12q-13 0 -29.5 12zM405.5 599q-16.5 12 -28.5 28.5t-12 29.5q0 20 25 44.5t45 25.5q20 -1 44.5 -25.5t24.5 -44.5q0 -12 -12 -29t-28.5 -29t-28.5 -12q-13 0 -29.5 12zM321.5 776q-16.5 12 -28.5 28.5
t-12 29.5q0 20 25 44.5t45 25.5q20 -1 44.5 -25.5t24.5 -44.5q0 -12 -12 -29t-28.5 -29t-28.5 -12q-13 0 -29.5 12z" />
    <glyph glyph-name="uniFB6C" unicode="&#x6a4;" horiz-adv-x="661" arabic-form="initial" 
d="M0 0zM132 134q-8 32 -11.5 64t-3.5 82q0 75 22 118.5t73 63.5t139 20q65 0 116 -8t108 -27v-447h-595v134h152zM446.5 143.5q9.5 9.5 9.5 34.5v169h-170q-25 0 -34 -9.5t-9 -36.5v-167h170q24 0 33.5 9.5zM238.5 599q-16.5 12 -28.5 28.5t-12 29.5q0 20 25 44.5t45 25.5
q20 -1 44.5 -25.5t24.5 -44.5q0 -12 -12 -29t-28.5 -29t-28.5 -12q-13 0 -29.5 12zM405.5 599q-16.5 12 -28.5 28.5t-12 29.5q0 20 25 44.5t45 25.5q20 -1 44.5 -25.5t24.5 -44.5q0 -12 -12 -29t-28.5 -29t-28.5 -12q-13 0 -29.5 12zM321.5 776q-16.5 12 -28.5 28.5
t-12 29.5q0 20 25 44.5t45 25.5q20 -1 44.5 -25.5t24.5 -44.5q0 -12 -12 -29t-28.5 -29t-28.5 -12q-13 0 -29.5 12z" />
    <glyph glyph-name="uni06A1.init" unicode="&#x6a1;" horiz-adv-x="661" 
d="M132 134q-8 32 -11.5 64t-3.5 82q0 75 22 118.5t73 63.5t139 20q65 0 116 -8t108 -27v-447h-595v134h152zM446.5 143.5q9.5 9.5 9.5 34.5v169h-170q-25 0 -34 -9.5t-9 -36.5v-167h170q24 0 33.5 9.5z" />
    <glyph glyph-name="uni06A1.medi" unicode="&#x6a1;" horiz-adv-x="661" 
d="M680 135v-135h-700v134h152q-8 32 -11.5 64t-3.5 82q0 75 22 118.5t73 63.5t139 20q65 0 116 -8t108 -27v-312h105zM456 347h-170q-25 0 -34 -9.5t-9 -36.5v-167h170q24 0 33.5 9.5t9.5 34.5v169z" />
    <glyph glyph-name="uni06A1.fina" unicode="&#x6a1;" horiz-adv-x="1004" 
d="M1023 135v-135h-804q-85 0 -122 50t-37 164q0 102 30 190l114 -19q-25 -77 -25 -138q0 -71 15 -113h280q-8 32 -11.5 64t-3.5 82q0 75 22.5 118.5t73.5 63.5t139 20q65 0 116 -8t108 -27v-312h105zM799 345h-170q-25 0 -34 -9.5t-9 -36.5v-165h170q24 0 33.5 9.5
t9.5 34.5v167z" />
    <glyph glyph-name="uni066F.fina" unicode="&#x66f;" horiz-adv-x="912" 
d="M932 134v-134h-105v-83q0 -100 -46 -143.5t-151 -43.5h-416q-85 0 -122 58.5t-37 192.5q0 58 8 117.5t22 109.5l114 -18q-25 -98 -25 -176q0 -98 14 -150h520v136h-158q-68 0 -107 23.5t-57 76.5t-18 145q0 91 22.5 142t73 73t139.5 22q71 0 122 -8t102 -27v-313h105z
M698.5 143.5q9.5 9.5 9.5 34.5v170h-161q-30 0 -41 -9.5t-11 -36.5v-168h170q24 0 33.5 9.5z" />
    <glyph glyph-name="uniFED6" unicode="&#x642;" horiz-adv-x="912" arabic-form="final" 
d="M55 0zM932 134v-134h-105v-83q0 -100 -46 -143.5t-151 -43.5h-416q-85 0 -122 58.5t-37 192.5q0 58 8 117.5t22 109.5l114 -18q-25 -98 -25 -176q0 -98 14 -150h520v136h-158q-68 0 -107 23.5t-57 76.5t-18 145q0 91 22.5 142t73 73t139.5 22q71 0 122 -8t102 -27v-313
h105zM698.5 143.5q9.5 9.5 9.5 34.5v170h-161q-30 0 -41 -9.5t-11 -36.5v-168h170q24 0 33.5 9.5zM486.5 599q-16.5 12 -28.5 28.5t-12 29.5q0 20 25 44.5t45 25.5q20 -1 44.5 -25.5t24.5 -44.5q0 -12 -12 -29t-28.5 -29t-28.5 -12q-13 0 -29.5 12zM653.5 599
q-16.5 12 -28.5 28.5t-12 29.5q0 20 25 44.5t45 25.5q20 -1 44.5 -25.5t24.5 -44.5q0 -12 -12 -29t-28.5 -29t-28.5 -12q-13 0 -29.5 12z" />
    <glyph glyph-name="uniFED8" unicode="&#x642;" horiz-adv-x="661" arabic-form="medial" 
d="M0 0zM680 135v-135h-700v134h152q-8 32 -11.5 64t-3.5 82q0 75 22 118.5t73 63.5t139 20q65 0 116 -8t108 -27v-312h105zM456 347h-170q-25 0 -34 -9.5t-9 -36.5v-167h170q24 0 33.5 9.5t9.5 34.5v169zM238.5 599q-16.5 12 -28.5 28.5t-12 29.5q0 20 25 44.5t45 25.5
q20 -1 44.5 -25.5t24.5 -44.5q0 -12 -12 -29t-28.5 -29t-28.5 -12q-13 0 -29.5 12zM405.5 599q-16.5 12 -28.5 28.5t-12 29.5q0 20 25 44.5t45 25.5q20 -1 44.5 -25.5t24.5 -44.5q0 -12 -12 -29t-28.5 -29t-28.5 -12q-13 0 -29.5 12z" />
    <glyph glyph-name="uniFED7" unicode="&#x642;" horiz-adv-x="661" arabic-form="initial" 
d="M0 0zM132 134q-8 32 -11.5 64t-3.5 82q0 75 22 118.5t73 63.5t139 20q65 0 116 -8t108 -27v-447h-595v134h152zM446.5 143.5q9.5 9.5 9.5 34.5v169h-170q-25 0 -34 -9.5t-9 -36.5v-167h170q24 0 33.5 9.5zM238.5 599q-16.5 12 -28.5 28.5t-12 29.5q0 20 25 44.5t45 25.5
q20 -1 44.5 -25.5t24.5 -44.5q0 -12 -12 -29t-28.5 -29t-28.5 -12q-13 0 -29.5 12zM405.5 599q-16.5 12 -28.5 28.5t-12 29.5q0 20 25 44.5t45 25.5q20 -1 44.5 -25.5t24.5 -44.5q0 -12 -12 -29t-28.5 -29t-28.5 -12q-13 0 -29.5 12z" />
    <glyph glyph-name="uniFEDA" unicode="&#x643;" horiz-adv-x="904" arabic-form="final" 
d="M559 439l-232 -62v58l40 11q-9 24 -9 62q0 76 44.5 108t129.5 36v-69q-51 -3 -95 -22v-66q0 -12 4 -17.5t14 -5.5q4 0 22 4l82 22v-59zM923 134v-134h-704q-85 0 -122 50t-37 164q0 102 30 190l114 -19q-25 -77 -25 -138q0 -71 15 -113h505v496h119v-496h105z" />
    <glyph glyph-name="uniFEDC" unicode="&#x643;" horiz-adv-x="714" arabic-form="medial" 
d="M734 134v-134h-754v134h530v163h-319q-52 0 -79.5 27t-27.5 79q0 71 45 166t108 157l97 -53q-47 -46 -88 -117t-51 -125h280q61 0 93.5 -14t46.5 -46.5t14 -93.5v-143h105z" />
    <glyph glyph-name="uniFEDB" unicode="&#x643;" horiz-adv-x="714" arabic-form="initial" 
d="M-20 134h530v163h-319q-52 0 -79.5 27t-27.5 79q0 71 45 166t108 157l97 -53q-47 -46 -88 -117t-51 -125h280q61 0 93.5 -14t46.5 -46.5t14 -93.5v-277h-649v134z" />
    <glyph glyph-name="uniFB8F" unicode="&#x6a9;" horiz-adv-x="869" arabic-form="final" 
d="M888 134v-134h-669q-85 0 -122 50t-37 164q0 102 30 190l114 -19q-25 -77 -25 -138q0 -71 15 -113h470v163h-229q-53 0 -80.5 27t-27.5 79q0 71 45 166t109 157l97 -53q-47 -46 -87.5 -116.5t-51.5 -125.5h190q61 0 93.5 -14t46.5 -46.5t14 -93.5v-143h105z" />
    <glyph glyph-name="uniFB91" unicode="&#x6a9;" horiz-adv-x="714" arabic-form="medial" 
d="M0 0zM734 134v-134h-754v134h530v163h-319q-52 0 -79.5 27t-27.5 79q0 71 45 166t108 157l97 -53q-47 -46 -88 -117t-51 -125h280q61 0 93.5 -14t46.5 -46.5t14 -93.5v-143h105z" />
    <glyph glyph-name="uniFB90" unicode="&#x6a9;" horiz-adv-x="714" arabic-form="initial" 
d="M0 0zM-20 134h530v163h-319q-52 0 -79.5 27t-27.5 79q0 71 45 166t108 157l97 -53q-47 -46 -88 -117t-51 -125h280q61 0 93.5 -14t46.5 -46.5t14 -93.5v-277h-649v134z" />
    <glyph glyph-name="uniFB93" unicode="&#x6af;" horiz-adv-x="869" arabic-form="final" 
d="M60 0zM888 134v-134h-669q-85 0 -122 50t-37 164q0 102 30 190l114 -19q-25 -77 -25 -138q0 -71 15 -113h470v163h-229q-53 0 -80.5 27t-27.5 79q0 71 45 166t109 157l97 -53q-47 -46 -87.5 -116.5t-51.5 -125.5h190q61 0 93.5 -14t46.5 -46.5t14 -93.5v-143h105z
M207 671.5q-43 -93.5 -52 -165.5l102 -34q11 74 47.5 151t97.5 145l-97 52q-55 -55 -98 -148.5z" />
    <glyph glyph-name="uniFB95" unicode="&#x6af;" horiz-adv-x="714" arabic-form="medial" 
d="M0 0zM734 134v-134h-754v134h530v163h-319q-52 0 -79.5 27t-27.5 79q0 71 45 166t108 157l97 -53q-47 -46 -88 -117t-51 -125h280q61 0 93.5 -14t46.5 -46.5t14 -93.5v-143h105zM-49 671.5q-43 -93.5 -52 -165.5l102 -34q11 74 47.5 151t97.5 145l-97 52
q-55 -55 -98 -148.5z" />
    <glyph glyph-name="uniFB94" unicode="&#x6af;" horiz-adv-x="714" arabic-form="initial" 
d="M0 0zM-20 134h530v163h-319q-52 0 -79.5 27t-27.5 79q0 71 45 166t108 157l97 -53q-47 -46 -88 -117t-51 -125h280q61 0 93.5 -14t46.5 -46.5t14 -93.5v-277h-649v134zM-49 671.5q-43 -93.5 -52 -165.5l102 -34q11 74 47.5 151t97.5 145l-97 52q-55 -55 -98 -148.5z" />
    <glyph glyph-name="uniFEDE" unicode="&#x644;" horiz-adv-x="672" arabic-form="final" 
d="M692 134v-134h-105v-14q0 -94 -20.5 -141t-76.5 -66t-172 -19q-106 0 -159 20t-73.5 69t-20.5 147q0 63 8.5 128t23.5 118l112 -19q-25 -112 -25 -203q0 -77 11 -125h157q64 0 90 11t26 42v686h119v-500h105z" />
    <glyph glyph-name="uniFEE0" unicode="&#x644;" horiz-adv-x="340" arabic-form="medial" 
d="M360 134v-134h-380v134h155v496h119v-496h106z" />
    <glyph glyph-name="uniFEDF" unicode="&#x644;" horiz-adv-x="340" arabic-form="initial" 
d="M-20 0v134h155v496h119v-630h-274z" />
    <glyph glyph-name="uniFEE2" unicode="&#x645;" horiz-adv-x="677" arabic-form="final" 
d="M696 134v-134h-552q-15 -54 -15 -137q0 -35 7 -75.5t23 -101.5l-117 -20q-15 48 -23.5 107.5t-8.5 117.5q0 113 26 170t83 69q-9 42 -9 110q0 51 9 97.5t28 100.5l-1 1q53 20 117.5 31.5t130.5 11.5q106 0 151.5 -35t45.5 -117v-196h105zM472 341q-32 7 -91 7
q-70 0 -138 -13q-14 -51 -14 -95q0 -65 10 -106h233v207z" />
    <glyph glyph-name="uniFEE4" unicode="&#x645;" horiz-adv-x="677" arabic-form="medial" 
d="M696 134v-134h-716v134h138q-8 43 -8 106q0 51 9 97.5t28 100.5l-1 1q53 21 118 32t131 11q105 0 150.5 -35t45.5 -117v-196h105zM472 341q-35 7 -91 7q-72 0 -138 -14q-14 -50 -14 -94q0 -65 10 -106h233v207z" />
    <glyph glyph-name="uniFEE3" unicode="&#x645;" horiz-adv-x="672" arabic-form="initial" 
d="M545.5 447q45.5 -35 45.5 -117v-330h-611v134h138q-8 43 -8 106q0 51 9 97.5t28 100.5l-1 1q53 21 118 32t131 11q105 0 150.5 -35zM472 341q-35 7 -91 7q-72 0 -138 -14q-14 -50 -14 -94q0 -65 10 -106h233v207z" />
    <glyph glyph-name="uniFEE6" unicode="&#x646;" horiz-adv-x="672" arabic-form="final" 
d="M65 0zM692 134v-134h-105v-14q0 -94 -20.5 -141t-76.5 -66t-172 -19q-106 0 -159 20t-73.5 69t-20.5 147q0 63 8.5 128t23.5 118l112 -19q-25 -112 -25 -203q0 -77 11 -125h157q64 0 90 11t26 42v522h119v-336h105zM298.5 599q-16.5 12 -28.5 28.5t-12 29.5q0 20 25 44.5
t45 25.5q20 -1 44.5 -25.5t24.5 -44.5q0 -12 -12 -29t-28.5 -29t-28.5 -12q-13 0 -29.5 12z" />
    <glyph glyph-name="uniFEE8" unicode="&#x646;" horiz-adv-x="340" arabic-form="medial" 
d="M0 0zM360 134v-134h-380v134h155v336h119v-336h106zM165.5 599q-16.5 12 -28.5 28.5t-12 29.5q0 20 25 44.5t45 25.5q20 -1 44.5 -25.5t24.5 -44.5q0 -12 -12 -29t-28.5 -29t-28.5 -12q-13 0 -29.5 12z" />
    <glyph glyph-name="uniFEE7" unicode="&#x646;" horiz-adv-x="340" arabic-form="initial" 
d="M0 0zM-20 134h155v336h119v-470h-274v134zM165.5 599q-16.5 12 -28.5 28.5t-12 29.5q0 20 25 44.5t45 25.5q20 -1 44.5 -25.5t24.5 -44.5q0 -12 -12 -29t-28.5 -29t-28.5 -12q-13 0 -29.5 12z" />
    <glyph glyph-name="uniFB9F" unicode="&#x6ba;" horiz-adv-x="672" arabic-form="final" 
d="M692 134v-134h-105v-14q0 -94 -20.5 -141t-76.5 -66t-172 -19q-106 0 -159 20t-73.5 69t-20.5 147q0 63 8.5 128t23.5 118l112 -19q-25 -112 -25 -203q0 -77 11 -125h157q64 0 90 11t26 42v522h119v-336h105z" />
    <glyph glyph-name="uniFEEA" unicode="&#x647;" horiz-adv-x="632" arabic-form="final" 
d="M652 134v-134h-356q-95 0 -141.5 18.5t-64 67t-17.5 149.5q0 100 17.5 149t64 67.5t141.5 18.5h256v-336h100zM432 336h-181q-27 0 -39.5 -10.5t-12.5 -33.5v-114q0 -23 12.5 -33.5t39.5 -10.5h181v202z" />
    <glyph glyph-name="uniFEEC" unicode="&#x647;" horiz-adv-x="754" arabic-form="medial" 
d="M775 134v-135h-135v1h-660v134h104q2 91 17 133.5t52.5 56.5t115.5 14q81 0 119 -14t53.5 -56t17.5 -134h115l-40 159q-15 57 -47 90.5t-90 49t-152 15.5l7 130q125 0 202 -22t122.5 -73.5t68.5 -142.5l52 -206h78zM188 134h166v107h-124q-22 0 -32 -8t-10 -26v-73z" />
    <glyph glyph-name="uniFEEB" unicode="&#x647;" horiz-adv-x="754" arabic-form="initial" 
d="M704 104v-104h-724v134h104q2 91 17 133.5t52.5 56.5t115.5 14q81 0 119 -14t53.5 -56t17.5 -134h115l-40 159q-15 57 -47 90.5t-90 49t-152 15.5l7 130q125 0 202 -22t122.5 -73.5t68.5 -142.5zM188 134h166v107h-124q-22 0 -32 -8t-10 -26v-73z" />
    <glyph glyph-name="uniFBA7" unicode="&#x6c1;" horiz-adv-x="663" arabic-form="final" 
d="M683 134v-134h-224v341q-55 7 -125 7q-88 0 -134 -7v-341h-119v325q0 58 21.5 91.5t72.5 49.5t140 16q149 0 262 -32v-316h106z" />
    <glyph glyph-name="uniFBA9" unicode="&#x6c1;" horiz-adv-x="676" arabic-form="medial" 
d="M697 0h-105v-218q0 -58 -17.5 -91.5t-59 -49.5t-115.5 -16q-60 0 -119.5 11t-110.5 32q-20 50 -31 106.5t-11 112.5v113h-148v134h262v-242q0 -68 22 -139q64 -11 118 -11q62 0 91 8v250h-1v134h225v-134z" />
    <glyph glyph-name="uniFBA8" unicode="&#x6c1;" horiz-adv-x="340" arabic-form="initial" 
d="M264 -103q9 -14 9 -46q0 -41 -15 -56t-55 -15q-38 0 -53 15.5t-15 55.5q1 23 5.5 37t18.5 43l33 69h-212v134h155v336h119v-470l-21 -85q22 -4 31 -18z" />
    <glyph glyph-name="uni06C2.fina" unicode="&#x6c2;" horiz-adv-x="632" 
d="M73 0zM652 134v-134h-356q-95 0 -141.5 18.5t-64 67t-17.5 149.5q0 100 17.5 149t64 67.5t141.5 18.5h256v-336h100zM432 336h-181q-27 0 -39.5 -10.5t-12.5 -33.5v-114q0 -23 12.5 -33.5t39.5 -10.5h181v202zM442 698v-59l-232 -62v58l40 11q-9 24 -9 62q0 76 44.5 108
t129.5 36v-69q-51 -3 -95 -22v-66q0 -12 4 -17.5t14 -5.5q4 0 22 4z" />
    <glyph glyph-name="uniFBAB" unicode="&#x6be;" horiz-adv-x="754" arabic-form="final" 
d="M774 134v-135h-130v1h-624v134h64q2 91 17 133.5t52.5 56.5t115.5 14q81 0 119 -14t53.5 -56t17.5 -134h115l-40 159q-15 57 -47 90.5t-90 49t-152 15.5l7 130q125 0 202 -22t122.5 -73.5t68.5 -142.5l52 -206h77zM188 134h166v107h-124q-22 0 -32 -8t-10 -26v-73z" />
    <glyph glyph-name="uniFBAD" unicode="&#x6be;" horiz-adv-x="754" arabic-form="medial" 
d="M0 0zM775 134v-135h-135v1h-660v134h104q2 91 17 133.5t52.5 56.5t115.5 14q81 0 119 -14t53.5 -56t17.5 -134h115l-40 159q-15 57 -47 90.5t-90 49t-152 15.5l7 130q125 0 202 -22t122.5 -73.5t68.5 -142.5l52 -206h78zM188 134h166v107h-124q-22 0 -32 -8t-10 -26v-73z
" />
    <glyph glyph-name="uniFBAC" unicode="&#x6be;" horiz-adv-x="754" arabic-form="initial" 
d="M0 0zM704 104v-104h-724v134h104q2 91 17 133.5t52.5 56.5t115.5 14q81 0 119 -14t53.5 -56t17.5 -134h115l-40 159q-15 57 -47 90.5t-90 49t-152 15.5l7 130q125 0 202 -22t122.5 -73.5t68.5 -142.5zM188 134h166v107h-124q-22 0 -32 -8t-10 -26v-73z" />
    <glyph glyph-name="uniFE94" unicode="&#x629;" horiz-adv-x="632" arabic-form="final" 
d="M73 0zM652 134v-134h-356q-95 0 -141.5 18.5t-64 67t-17.5 149.5q0 100 17.5 149t64 67.5t141.5 18.5h256v-336h100zM432 336h-181q-27 0 -39.5 -10.5t-12.5 -33.5v-114q0 -23 12.5 -33.5t39.5 -10.5h181v202zM213.5 599q-16.5 12 -28.5 28.5t-12 29.5q0 20 25 44.5
t45 25.5q20 -1 44.5 -25.5t24.5 -44.5q0 -12 -12 -29t-28.5 -29t-28.5 -12q-13 0 -29.5 12zM380.5 599q-16.5 12 -28.5 28.5t-12 29.5q0 20 25 44.5t45 25.5q20 -1 44.5 -25.5t24.5 -44.5q0 -12 -12 -29t-28.5 -29t-28.5 -12q-13 0 -29.5 12z" />
    <glyph glyph-name="uni06C3.fina" unicode="&#x6c3;" horiz-adv-x="663" 
d="M81 0zM683 134v-134h-224v341q-55 7 -125 7q-88 0 -134 -7v-341h-119v325q0 58 21.5 91.5t72.5 49.5t140 16q149 0 262 -32v-316h106zM220.5 599q-16.5 12 -28.5 28.5t-12 29.5q0 20 25 44.5t45 25.5q20 -1 44.5 -25.5t24.5 -44.5q0 -12 -12 -29t-28.5 -29t-28.5 -12
q-13 0 -29.5 12zM387.5 599q-16.5 12 -28.5 28.5t-12 29.5q0 20 25 44.5t45 25.5q20 -1 44.5 -25.5t24.5 -44.5q0 -12 -12 -29t-28.5 -29t-28.5 -12q-13 0 -29.5 12z" />
    <glyph glyph-name="uniFEEE" unicode="&#x648;" horiz-adv-x="622" arabic-form="final" 
d="M642 0h-140q-26 -76 -77 -148.5t-116 -126.5l-78 90q45 37 82.5 85t60.5 100h-124q-68 0 -107 23.5t-57 76.5t-18 145q0 91 22.5 142t73 73t139.5 22q71 0 122 -8t102 -27v-313h115v-134zM364 134q24 0 33.5 9.5t9.5 34.5v170h-161q-30 0 -41 -9.5t-11 -36.5v-168h170z
" />
    <glyph glyph-name="uniFE86" unicode="&#x624;" horiz-adv-x="622" arabic-form="final" 
d="M68 0zM642 0h-140q-26 -76 -77 -148.5t-116 -126.5l-78 90q45 37 82.5 85t60.5 100h-124q-68 0 -107 23.5t-57 76.5t-18 145q0 91 22.5 142t73 73t139.5 22q71 0 122 -8t102 -27v-313h115v-134zM364 134q24 0 33.5 9.5t9.5 34.5v170h-161q-30 0 -41 -9.5t-11 -36.5v-168
h170zM418 698v-59l-232 -62v58l40 11q-9 24 -9 62q0 76 44.5 108t129.5 36v-69q-51 -3 -95 -22v-66q0 -12 4 -17.5t14 -5.5q4 0 22 4z" />
    <glyph glyph-name="uniFEF0" unicode="&#x649;" horiz-adv-x="872" arabic-form="final" 
d="M892 134v-134h-105v-61q0 -87 -31 -134t-110 -67t-229 -20q-145 0 -218.5 17.5t-103.5 63.5t-30 137q0 55 8.5 112.5t23.5 103.5l116 -20q-14 -53 -21.5 -93.5t-7.5 -76.5q0 -67 11 -110h282q75 0 115.5 4.5t58 15.5t17.5 33v95h-26q-54 0 -113 8.5t-107 23.5l18 127
q102 -25 174 -25h278z" />
    <glyph glyph-name="uniFEF2" unicode="&#x64a;" horiz-adv-x="872" arabic-form="final" 
d="M65 0zM892 134v-134h-105v-61q0 -87 -31 -134t-110 -67t-229 -20q-145 0 -218.5 17.5t-103.5 63.5t-30 137q0 55 8.5 112.5t23.5 103.5l116 -20q-14 -53 -21.5 -93.5t-7.5 -76.5q0 -67 11 -110h282q75 0 115.5 4.5t58 15.5t17.5 33v95h-26q-54 0 -113 8.5t-107 23.5
l18 127q102 -25 174 -25h278zM321.5 -458q-16.5 12 -28.5 28.5t-12 29.5q0 20 25 44.5t45 25.5q20 -1 44.5 -25.5t24.5 -44.5q0 -12 -12 -29t-28.5 -29t-28.5 -12q-13 0 -29.5 12zM488.5 -458q-16.5 12 -28.5 28.5t-12 29.5q0 20 25 44.5t45 25.5q20 -1 44.5 -25.5
t24.5 -44.5q0 -12 -12 -29t-28.5 -29t-28.5 -12q-13 0 -29.5 12z" />
    <glyph glyph-name="uniFEF4" unicode="&#x64a;" horiz-adv-x="340" arabic-form="medial" 
d="M0 0zM360 134v-134h-380v134h155v336h119v-336h106zM80.5 -208q-16.5 12 -28.5 28.5t-12 29.5q0 20 25 44.5t45 25.5q20 -1 44.5 -25.5t24.5 -44.5q0 -12 -12 -29t-28.5 -29t-28.5 -12q-13 0 -29.5 12zM247.5 -208q-16.5 12 -28.5 28.5t-12 29.5q0 20 25 44.5t45 25.5
q20 -1 44.5 -25.5t24.5 -44.5q0 -12 -12 -29t-28.5 -29t-28.5 -12q-13 0 -29.5 12z" />
    <glyph glyph-name="uniFEF3" unicode="&#x64a;" horiz-adv-x="340" arabic-form="initial" 
d="M0 0zM-20 134h155v336h119v-470h-274v134zM21.5 -195q-16.5 12 -28.5 28.5t-12 29.5q0 20 25 44.5t45 25.5q20 -1 44.5 -25.5t24.5 -44.5q0 -12 -12 -29t-28.5 -29t-28.5 -12q-13 0 -29.5 12zM188.5 -195q-16.5 12 -28.5 28.5t-12 29.5q0 20 25 44.5t45 25.5
q20 -1 44.5 -25.5t24.5 -44.5q0 -12 -12 -29t-28.5 -29t-28.5 -12q-13 0 -29.5 12z" />
    <glyph glyph-name="uniFE8A" unicode="&#x626;" horiz-adv-x="872" arabic-form="final" 
d="M62 0zM892 134v-134h-105v-61q0 -87 -31 -134t-110 -67t-229 -20q-145 0 -218.5 17.5t-103.5 63.5t-30 137q0 55 8.5 112.5t23.5 103.5l116 -20q-14 -53 -21.5 -93.5t-7.5 -76.5q0 -67 11 -110h282q75 0 115.5 4.5t58 15.5t17.5 33v95h-26q-54 0 -113 8.5t-107 23.5
l18 127q102 -25 174 -25h278zM294 388v-59l-232 -62v58l40 11q-9 24 -9 62q0 76 44.5 108t129.5 36v-69q-51 -3 -95 -22v-66q0 -12 4 -17.5t14 -5.5q4 0 22 4z" />
    <glyph glyph-name="uniFE8C" unicode="&#x626;" horiz-adv-x="340" arabic-form="medial" 
d="M0 0zM360 134v-134h-380v134h155v336h119v-336h106zM311 698v-59l-232 -62v58l40 11q-9 24 -9 62q0 76 44.5 108t129.5 36v-69q-51 -3 -95 -22v-66q0 -12 4 -17.5t14 -5.5q4 0 22 4z" />
    <glyph glyph-name="uniFE8B" unicode="&#x626;" horiz-adv-x="340" arabic-form="initial" 
d="M0 0zM-20 134h155v336h119v-470h-274v134zM311 698v-59l-232 -62v58l40 11q-9 24 -9 62q0 76 44.5 108t129.5 36v-69q-51 -3 -95 -22v-66q0 -12 4 -17.5t14 -5.5q4 0 22 4z" />
    <glyph glyph-name="uniFBFD" unicode="&#x6cc;" horiz-adv-x="872" arabic-form="final" 
d="M65 0zM892 134v-134h-105v-61q0 -87 -31 -134t-110 -67t-229 -20q-145 0 -218.5 17.5t-103.5 63.5t-30 137q0 55 8.5 112.5t23.5 103.5l116 -20q-14 -53 -21.5 -93.5t-7.5 -76.5q0 -67 11 -110h282q75 0 115.5 4.5t58 15.5t17.5 33v95h-26q-54 0 -113 8.5t-107 23.5
l18 127q102 -25 174 -25h278z" />
    <glyph glyph-name="uniFBFF" unicode="&#x6cc;" horiz-adv-x="340" arabic-form="medial" 
d="M0 0zM360 134v-134h-380v134h155v336h119v-336h106zM80.5 -208q-16.5 12 -28.5 28.5t-12 29.5q0 20 25 44.5t45 25.5q20 -1 44.5 -25.5t24.5 -44.5q0 -12 -12 -29t-28.5 -29t-28.5 -12q-13 0 -29.5 12zM247.5 -208q-16.5 12 -28.5 28.5t-12 29.5q0 20 25 44.5t45 25.5
q20 -1 44.5 -25.5t24.5 -44.5q0 -12 -12 -29t-28.5 -29t-28.5 -12q-13 0 -29.5 12z" />
    <glyph glyph-name="uniFBFE" unicode="&#x6cc;" horiz-adv-x="340" arabic-form="initial" 
d="M0 0zM-20 134h155v336h119v-470h-274v134zM21.5 -195q-16.5 12 -28.5 28.5t-12 29.5q0 20 25 44.5t45 25.5q20 -1 44.5 -25.5t24.5 -44.5q0 -12 -12 -29t-28.5 -29t-28.5 -12q-13 0 -29.5 12zM188.5 -195q-16.5 12 -28.5 28.5t-12 29.5q0 20 25 44.5t45 25.5
q20 -1 44.5 -25.5t24.5 -44.5q0 -12 -12 -29t-28.5 -29t-28.5 -12q-13 0 -29.5 12z" />
    <glyph glyph-name="uniFBAF" unicode="&#x6d2;" horiz-adv-x="722" arabic-form="final" 
d="M164 0v-95q0 -22 18.5 -33t61 -15.5t121.5 -4.5q82 0 143 5.5t150 19.5l19 -127q-143 -32 -323 -32q-132 0 -196.5 19t-88.5 66.5t-24 142.5v188h697v-134h-578z" />
    <glyph glyph-name="uniFBB1" unicode="&#x6d3;" horiz-adv-x="722" arabic-form="final" 
d="M45 0zM164 0v-95q0 -22 18.5 -33t61 -15.5t121.5 -4.5q82 0 143 5.5t150 19.5l19 -127q-143 -32 -323 -32q-132 0 -196.5 19t-88.5 66.5t-24 142.5v188h697v-134h-578zM421 353v-59l-232 -62v58l40 11q-9 24 -9 62q0 76 44.5 108t129.5 36v-69q-51 -3 -95 -22v-66
q0 -12 4 -17.5t14 -5.5q4 0 22 4z" />
    <glyph glyph-name="uniFC6A" unicode="&#xfc6a;" horiz-adv-x="654" arabic-form="final" 
d="M23 0zM674 134v-134h-225v336h-208v-322q0 -113 -39.5 -179t-132.5 -107l-46 107q40 18 61 39t29.5 53.5t8.5 86.5v456h446v-336h106zM478.5 -208q-16.5 12 -28.5 28.5t-12 29.5q0 20 25 44.5t45 25.5q20 -1 44.5 -25.5t24.5 -44.5q0 -12 -12 -29t-28.5 -29t-28.5 -12
q-13 0 -29.5 12z" />
    <glyph glyph-name="uniFC6B" unicode="&#xfc6b;" horiz-adv-x="654" arabic-form="final" 
d="M23 0zM674 134v-134h-225v336h-208v-322q0 -113 -39.5 -179t-132.5 -107l-46 107q40 18 61 39t29.5 53.5t8.5 86.5v456h446v-336h106zM478.5 -208q-16.5 12 -28.5 28.5t-12 29.5q0 20 25 44.5t45 25.5q20 -1 44.5 -25.5t24.5 -44.5q0 -12 -12 -29t-28.5 -29t-28.5 -12
q-13 0 -29.5 12zM151.5 599q-16.5 12 -28.5 28.5t-12 29.5q0 20 25 44.5t45 25.5q20 -1 44.5 -25.5t24.5 -44.5q0 -12 -12 -29t-28.5 -29t-28.5 -12q-13 0 -29.5 12z" />
    <glyph glyph-name="uniFC6D" unicode="&#xfc6d;" horiz-adv-x="1000" arabic-form="final" 
d="M65 0zM298.5 607q-16.5 12 -28.5 28.5t-12 29.5q0 20 25 44.5t45 25.5q20 -1 44.5 -25.5t24.5 -44.5q0 -12 -12 -29t-28.5 -29t-28.5 -12q-13 0 -29.5 12zM1021 134v-134h-225v336h-209v-350q0 -94 -20.5 -141t-76.5 -66t-172 -19q-106 0 -159 20t-73.5 69t-20.5 147
q0 63 8.5 128t23.5 118l112 -19q-25 -112 -25 -203q0 -77 11 -125h157q64 0 90 11t26 42v522h447v-336h106zM826.5 -208q-16.5 12 -28.5 28.5t-12 29.5q0 20 25 44.5t45 25.5q20 -1 44.5 -25.5t24.5 -44.5q0 -12 -12 -29t-28.5 -29t-28.5 -12q-13 0 -29.5 12z" />
    <glyph glyph-name="uniFC6E" unicode="&#xfc6e;" horiz-adv-x="1157" arabic-form="final" 
d="M65 0zM1177 134v-134h-225v336h-459v-127l143 -15q59 -6 91.5 -26t46 -57t13.5 -97v-75q0 -87 -31 -134t-110 -67t-229 -20q-145 0 -218.5 17.5t-103.5 63.5t-30 137q0 55 8.5 112.5t23.5 103.5l116 -20q-14 -53 -21.5 -93.5t-7.5 -76.5q0 -67 11 -110h282
q75 0 115.5 4.5t58 15.5t17.5 33v154l-135 15q-68 7 -104 28.5t-49.5 60.5t-13.5 108q0 78 17.5 120t61.5 60.5t128 18.5h498v-336h106zM982.5 -188q-16.5 12 -28.5 28.5t-12 29.5q0 20 25 44.5t45 25.5q20 -1 44.5 -25.5t24.5 -44.5q0 -12 -12 -29t-28.5 -29t-28.5 -12
q-13 0 -29.5 12z" />
    <glyph glyph-name="uniFC6F" unicode="&#xfc6f;" horiz-adv-x="1157" arabic-form="final" 
d="M65 0zM1177 134v-134h-225v336h-459v-127l143 -15q59 -6 91.5 -26t46 -57t13.5 -97v-75q0 -87 -31 -134t-110 -67t-229 -20q-145 0 -218.5 17.5t-103.5 63.5t-30 137q0 55 8.5 112.5t23.5 103.5l116 -20q-14 -53 -21.5 -93.5t-7.5 -76.5q0 -67 11 -110h282
q75 0 115.5 4.5t58 15.5t17.5 33v154l-135 15q-68 7 -104 28.5t-49.5 60.5t-13.5 108q0 78 17.5 120t61.5 60.5t128 18.5h498v-336h106zM982.5 -188q-16.5 12 -28.5 28.5t-12 29.5q0 20 25 44.5t45 25.5q20 -1 44.5 -25.5t24.5 -44.5q0 -12 -12 -29t-28.5 -29t-28.5 -12
q-13 0 -29.5 12zM321.5 -458q-16.5 12 -28.5 28.5t-12 29.5q0 20 25 44.5t45 25.5q20 -1 44.5 -25.5t24.5 -44.5q0 -12 -12 -29t-28.5 -29t-28.5 -12q-13 0 -29.5 12zM488.5 -458q-16.5 12 -28.5 28.5t-12 29.5q0 20 25 44.5t45 25.5q20 -1 44.5 -25.5t24.5 -44.5
q0 -12 -12 -29t-28.5 -29t-28.5 -12q-13 0 -29.5 12z" />
    <glyph glyph-name="uniFC70" unicode="&#xfc70;" horiz-adv-x="654" arabic-form="final" 
d="M23 0zM674 134v-134h-225v336h-208v-322q0 -113 -39.5 -179t-132.5 -107l-46 107q40 18 61 39t29.5 53.5t8.5 86.5v456h446v-336h106zM395.5 599q-16.5 12 -28.5 28.5t-12 29.5q0 20 25 44.5t45 25.5q20 -1 44.5 -25.5t24.5 -44.5q0 -12 -12 -29t-28.5 -29t-28.5 -12
q-13 0 -29.5 12zM562.5 599q-16.5 12 -28.5 28.5t-12 29.5q0 20 25 44.5t45 25.5q20 -1 44.5 -25.5t24.5 -44.5q0 -12 -12 -29t-28.5 -29t-28.5 -12q-13 0 -29.5 12z" />
    <glyph glyph-name="uniFC71" unicode="&#xfc71;" horiz-adv-x="654" arabic-form="final" 
d="M23 0zM674 134v-134h-225v336h-208v-322q0 -113 -39.5 -179t-132.5 -107l-46 107q40 18 61 39t29.5 53.5t8.5 86.5v456h446v-336h106zM395.5 599q-16.5 12 -28.5 28.5t-12 29.5q0 20 25 44.5t45 25.5q20 -1 44.5 -25.5t24.5 -44.5q0 -12 -12 -29t-28.5 -29t-28.5 -12
q-13 0 -29.5 12zM562.5 599q-16.5 12 -28.5 28.5t-12 29.5q0 20 25 44.5t45 25.5q20 -1 44.5 -25.5t24.5 -44.5q0 -12 -12 -29t-28.5 -29t-28.5 -12q-13 0 -29.5 12zM151.5 599q-16.5 12 -28.5 28.5t-12 29.5q0 20 25 44.5t45 25.5q20 -1 44.5 -25.5t24.5 -44.5
q0 -12 -12 -29t-28.5 -29t-28.5 -12q-13 0 -29.5 12z" />
    <glyph glyph-name="uniFC73" unicode="&#xfc73;" horiz-adv-x="1000" arabic-form="final" 
d="M65 0zM298.5 607q-16.5 12 -28.5 28.5t-12 29.5q0 20 25 44.5t45 25.5q20 -1 44.5 -25.5t24.5 -44.5q0 -12 -12 -29t-28.5 -29t-28.5 -12q-13 0 -29.5 12zM1021 134v-134h-225v336h-209v-350q0 -94 -20.5 -141t-76.5 -66t-172 -19q-106 0 -159 20t-73.5 69t-20.5 147
q0 63 8.5 128t23.5 118l112 -19q-25 -112 -25 -203q0 -77 11 -125h157q64 0 90 11t26 42v522h447v-336h106zM743.5 599q-16.5 12 -28.5 28.5t-12 29.5q0 20 25 44.5t45 25.5q20 -1 44.5 -25.5t24.5 -44.5q0 -12 -12 -29t-28.5 -29t-28.5 -12q-13 0 -29.5 12zM910.5 599
q-16.5 12 -28.5 28.5t-12 29.5q0 20 25 44.5t45 25.5q20 -1 44.5 -25.5t24.5 -44.5q0 -12 -12 -29t-28.5 -29t-28.5 -12q-13 0 -29.5 12z" />
    <glyph glyph-name="uniFC74" unicode="&#xfc74;" horiz-adv-x="1157" arabic-form="final" 
d="M65 0zM1177 134v-134h-225v336h-459v-127l143 -15q59 -6 91.5 -26t46 -57t13.5 -97v-75q0 -87 -31 -134t-110 -67t-229 -20q-145 0 -218.5 17.5t-103.5 63.5t-30 137q0 55 8.5 112.5t23.5 103.5l116 -20q-14 -53 -21.5 -93.5t-7.5 -76.5q0 -67 11 -110h282
q75 0 115.5 4.5t58 15.5t17.5 33v154l-135 15q-68 7 -104 28.5t-49.5 60.5t-13.5 108q0 78 17.5 120t61.5 60.5t128 18.5h498v-336h106zM899.5 599q-16.5 12 -28.5 28.5t-12 29.5q0 20 25 44.5t45 25.5q20 -1 44.5 -25.5t24.5 -44.5q0 -12 -12 -29t-28.5 -29t-28.5 -12
q-13 0 -29.5 12zM1066.5 599q-16.5 12 -28.5 28.5t-12 29.5q0 20 25 44.5t45 25.5q20 -1 44.5 -25.5t24.5 -44.5q0 -12 -12 -29t-28.5 -29t-28.5 -12q-13 0 -29.5 12z" />
    <glyph glyph-name="uniFC75" unicode="&#xfc75;" horiz-adv-x="1157" arabic-form="final" 
d="M65 0zM1177 134v-134h-225v336h-459v-127l143 -15q59 -6 91.5 -26t46 -57t13.5 -97v-75q0 -87 -31 -134t-110 -67t-229 -20q-145 0 -218.5 17.5t-103.5 63.5t-30 137q0 55 8.5 112.5t23.5 103.5l116 -20q-14 -53 -21.5 -93.5t-7.5 -76.5q0 -67 11 -110h282
q75 0 115.5 4.5t58 15.5t17.5 33v154l-135 15q-68 7 -104 28.5t-49.5 60.5t-13.5 108q0 78 17.5 120t61.5 60.5t128 18.5h498v-336h106zM899.5 599q-16.5 12 -28.5 28.5t-12 29.5q0 20 25 44.5t45 25.5q20 -1 44.5 -25.5t24.5 -44.5q0 -12 -12 -29t-28.5 -29t-28.5 -12
q-13 0 -29.5 12zM1066.5 599q-16.5 12 -28.5 28.5t-12 29.5q0 20 25 44.5t45 25.5q20 -1 44.5 -25.5t24.5 -44.5q0 -12 -12 -29t-28.5 -29t-28.5 -12q-13 0 -29.5 12zM321.5 -458q-16.5 12 -28.5 28.5t-12 29.5q0 20 25 44.5t45 25.5q20 -1 44.5 -25.5t24.5 -44.5
q0 -12 -12 -29t-28.5 -29t-28.5 -12q-13 0 -29.5 12zM488.5 -458q-16.5 12 -28.5 28.5t-12 29.5q0 20 25 44.5t45 25.5q20 -1 44.5 -25.5t24.5 -44.5q0 -12 -12 -29t-28.5 -29t-28.5 -12q-13 0 -29.5 12z" />
    <glyph glyph-name="uniFC76" unicode="&#xfc76;" horiz-adv-x="654" arabic-form="final" 
d="M23 0zM674 134v-134h-225v336h-208v-322q0 -113 -39.5 -179t-132.5 -107l-46 107q40 18 61 39t29.5 53.5t8.5 86.5v456h446v-336h106zM395.5 599q-16.5 12 -28.5 28.5t-12 29.5q0 20 25 44.5t45 25.5q20 -1 44.5 -25.5t24.5 -44.5q0 -12 -12 -29t-28.5 -29t-28.5 -12
q-13 0 -29.5 12zM562.5 599q-16.5 12 -28.5 28.5t-12 29.5q0 20 25 44.5t45 25.5q20 -1 44.5 -25.5t24.5 -44.5q0 -12 -12 -29t-28.5 -29t-28.5 -12q-13 0 -29.5 12zM478.5 776q-16.5 12 -28.5 28.5t-12 29.5q0 20 25 44.5t45 25.5q20 -1 44.5 -25.5t24.5 -44.5
q0 -12 -12 -29t-28.5 -29t-28.5 -12q-13 0 -29.5 12z" />
    <glyph glyph-name="uniFC77" unicode="&#xfc77;" horiz-adv-x="654" arabic-form="final" 
d="M23 0zM674 134v-134h-225v336h-208v-322q0 -113 -39.5 -179t-132.5 -107l-46 107q40 18 61 39t29.5 53.5t8.5 86.5v456h446v-336h106zM395.5 599q-16.5 12 -28.5 28.5t-12 29.5q0 20 25 44.5t45 25.5q20 -1 44.5 -25.5t24.5 -44.5q0 -12 -12 -29t-28.5 -29t-28.5 -12
q-13 0 -29.5 12zM562.5 599q-16.5 12 -28.5 28.5t-12 29.5q0 20 25 44.5t45 25.5q20 -1 44.5 -25.5t24.5 -44.5q0 -12 -12 -29t-28.5 -29t-28.5 -12q-13 0 -29.5 12zM478.5 776q-16.5 12 -28.5 28.5t-12 29.5q0 20 25 44.5t45 25.5q20 -1 44.5 -25.5t24.5 -44.5
q0 -12 -12 -29t-28.5 -29t-28.5 -12q-13 0 -29.5 12zM151.5 599q-16.5 12 -28.5 28.5t-12 29.5q0 20 25 44.5t45 25.5q20 -1 44.5 -25.5t24.5 -44.5q0 -12 -12 -29t-28.5 -29t-28.5 -12q-13 0 -29.5 12z" />
    <glyph glyph-name="uniFC79" unicode="&#xfc79;" horiz-adv-x="1000" arabic-form="final" 
d="M65 0zM298.5 607q-16.5 12 -28.5 28.5t-12 29.5q0 20 25 44.5t45 25.5q20 -1 44.5 -25.5t24.5 -44.5q0 -12 -12 -29t-28.5 -29t-28.5 -12q-13 0 -29.5 12zM1021 134v-134h-225v336h-209v-350q0 -94 -20.5 -141t-76.5 -66t-172 -19q-106 0 -159 20t-73.5 69t-20.5 147
q0 63 8.5 128t23.5 118l112 -19q-25 -112 -25 -203q0 -77 11 -125h157q64 0 90 11t26 42v522h447v-336h106zM743.5 599q-16.5 12 -28.5 28.5t-12 29.5q0 20 25 44.5t45 25.5q20 -1 44.5 -25.5t24.5 -44.5q0 -12 -12 -29t-28.5 -29t-28.5 -12q-13 0 -29.5 12zM910.5 599
q-16.5 12 -28.5 28.5t-12 29.5q0 20 25 44.5t45 25.5q20 -1 44.5 -25.5t24.5 -44.5q0 -12 -12 -29t-28.5 -29t-28.5 -12q-13 0 -29.5 12zM826.5 776q-16.5 12 -28.5 28.5t-12 29.5q0 20 25 44.5t45 25.5q20 -1 44.5 -25.5t24.5 -44.5q0 -12 -12 -29t-28.5 -29t-28.5 -12
q-13 0 -29.5 12z" />
    <glyph glyph-name="uniFC7A" unicode="&#xfc7a;" horiz-adv-x="1157" arabic-form="final" 
d="M65 0zM1177 134v-134h-225v336h-459v-127l143 -15q59 -6 91.5 -26t46 -57t13.5 -97v-75q0 -87 -31 -134t-110 -67t-229 -20q-145 0 -218.5 17.5t-103.5 63.5t-30 137q0 55 8.5 112.5t23.5 103.5l116 -20q-14 -53 -21.5 -93.5t-7.5 -76.5q0 -67 11 -110h282
q75 0 115.5 4.5t58 15.5t17.5 33v154l-135 15q-68 7 -104 28.5t-49.5 60.5t-13.5 108q0 78 17.5 120t61.5 60.5t128 18.5h498v-336h106zM899.5 599q-16.5 12 -28.5 28.5t-12 29.5q0 20 25 44.5t45 25.5q20 -1 44.5 -25.5t24.5 -44.5q0 -12 -12 -29t-28.5 -29t-28.5 -12
q-13 0 -29.5 12zM1066.5 599q-16.5 12 -28.5 28.5t-12 29.5q0 20 25 44.5t45 25.5q20 -1 44.5 -25.5t24.5 -44.5q0 -12 -12 -29t-28.5 -29t-28.5 -12q-13 0 -29.5 12zM982.5 776q-16.5 12 -28.5 28.5t-12 29.5q0 20 25 44.5t45 25.5q20 -1 44.5 -25.5t24.5 -44.5
q0 -12 -12 -29t-28.5 -29t-28.5 -12q-13 0 -29.5 12z" />
    <glyph glyph-name="uniFC7B" unicode="&#xfc7b;" horiz-adv-x="1157" arabic-form="final" 
d="M65 0zM1177 134v-134h-225v336h-459v-127l143 -15q59 -6 91.5 -26t46 -57t13.5 -97v-75q0 -87 -31 -134t-110 -67t-229 -20q-145 0 -218.5 17.5t-103.5 63.5t-30 137q0 55 8.5 112.5t23.5 103.5l116 -20q-14 -53 -21.5 -93.5t-7.5 -76.5q0 -67 11 -110h282
q75 0 115.5 4.5t58 15.5t17.5 33v154l-135 15q-68 7 -104 28.5t-49.5 60.5t-13.5 108q0 78 17.5 120t61.5 60.5t128 18.5h498v-336h106zM899.5 599q-16.5 12 -28.5 28.5t-12 29.5q0 20 25 44.5t45 25.5q20 -1 44.5 -25.5t24.5 -44.5q0 -12 -12 -29t-28.5 -29t-28.5 -12
q-13 0 -29.5 12zM1066.5 599q-16.5 12 -28.5 28.5t-12 29.5q0 20 25 44.5t45 25.5q20 -1 44.5 -25.5t24.5 -44.5q0 -12 -12 -29t-28.5 -29t-28.5 -12q-13 0 -29.5 12zM982.5 776q-16.5 12 -28.5 28.5t-12 29.5q0 20 25 44.5t45 25.5q20 -1 44.5 -25.5t24.5 -44.5
q0 -12 -12 -29t-28.5 -29t-28.5 -12q-13 0 -29.5 12zM321.5 -458q-16.5 12 -28.5 28.5t-12 29.5q0 20 25 44.5t45 25.5q20 -1 44.5 -25.5t24.5 -44.5q0 -12 -12 -29t-28.5 -29t-28.5 -12q-13 0 -29.5 12zM488.5 -458q-16.5 12 -28.5 28.5t-12 29.5q0 20 25 44.5t45 25.5
q20 -1 44.5 -25.5t24.5 -44.5q0 -12 -12 -29t-28.5 -29t-28.5 -12q-13 0 -29.5 12z" />
    <glyph glyph-name="uniFD0E" unicode="&#xfd0e;" horiz-adv-x="1302" arabic-form="isolated" 
d="M1216.5 370.5q7.5 -56.5 7.5 -107.5q0 -102 -22 -159t-70 -80.5t-130 -23.5q-62 0 -101.5 7t-64.5 24q-27 -17 -70 -24t-110 -7h-207v336h-208v-322q0 -113 -39.5 -179t-132.5 -107l-46 107q40 18 61 39t29.5 53.5t8.5 86.5v456h446v-336h133q40 0 58 11t18 42v193h119
v-193q0 -31 18 -42t58 -11h122q11 47 11 123q0 78 -27 194l118 18q13 -42 20.5 -98.5z" />
    <glyph glyph-name="uniFD2A" unicode="&#xfd2a;" horiz-adv-x="1310" arabic-form="final" 
d="M1329 134v-134h-327q-62 0 -101.5 7t-64.5 24q-27 -17 -70 -24t-110 -7h-207v336h-208v-322q0 -113 -39.5 -179t-132.5 -107l-46 107q40 18 61 39t29.5 53.5t8.5 86.5v456h446v-336h133q40 0 58 11t18 42v193h119v-193q0 -31 18 -42t58 -11h122q11 47 11 123
q0 78 -27 194l118 18q13 -42 20.5 -98.5t7.5 -107.5q0 -78 -13 -129h118z" />
    <glyph glyph-name="uniFCFB" unicode="&#xfcfb;" horiz-adv-x="1805" arabic-form="isolated" 
d="M1071 470v-470h-119v336h-459v-127l143 -15q59 -6 91.5 -26t46 -57t13.5 -97v-75q0 -87 -31 -134t-110 -67t-229 -20q-145 0 -218.5 17.5t-103.5 63.5t-30 137q0 55 8.5 112.5t23.5 103.5l116 -20q-14 -53 -21.5 -93.5t-7.5 -76.5q0 -67 11 -110h282q75 0 115.5 4.5
t58 15.5t17.5 33v154l-135 15q-68 7 -104 28.5t-49.5 60.5t-13.5 108q0 78 17.5 120t61.5 60.5t128 18.5h498zM1719.5 370.5q7.5 -56.5 7.5 -107.5q0 -102 -22 -159t-70 -80.5t-130 -23.5q-61 0 -101 7t-65 24q-26 -17 -69 -24t-110 -7h-88v134h133q39 0 57 10t19 37
q-1 13 -1 42v157h120v-157q0 -29 -1 -42q1 -27 19 -37t57 -10h122q11 47 11 123q0 78 -27 194l118 18q13 -42 20.5 -98.5z" />
    <glyph glyph-name="uniFD17" unicode="&#xfd17;" horiz-adv-x="1813" arabic-form="final" 
d="M1071 470v-470h-119v336h-459v-127l143 -15q59 -6 91.5 -26t46 -57t13.5 -97v-75q0 -87 -31 -134t-110 -67t-229 -20q-145 0 -218.5 17.5t-103.5 63.5t-30 137q0 55 8.5 112.5t23.5 103.5l116 -20q-14 -53 -21.5 -93.5t-7.5 -76.5q0 -67 11 -110h282q75 0 115.5 4.5
t58 15.5t17.5 33v154l-135 15q-68 7 -104 28.5t-49.5 60.5t-13.5 108q0 78 17.5 120t61.5 60.5t128 18.5h498zM1833 134v-134h-327h-1q-61 0 -101 7t-65 24q-26 -17 -69 -24t-110 -7h-88v134h133q39 0 57 10t19 37q-1 13 -1 42v157h120v-157q0 -29 -1 -42q1 -27 19 -37
t57 -10h122q11 47 11 123q0 78 -27 194l118 18q13 -42 20.5 -98.5t7.5 -107.5q0 -78 -13 -129h119z" />
    <glyph glyph-name="uniFCFC" unicode="&#xfcfc;" horiz-adv-x="1805" arabic-form="isolated" 
d="M65 0zM1071 470v-470h-119v336h-459v-127l143 -15q59 -6 91.5 -26t46 -57t13.5 -97v-75q0 -87 -31 -134t-110 -67t-229 -20q-145 0 -218.5 17.5t-103.5 63.5t-30 137q0 55 8.5 112.5t23.5 103.5l116 -20q-14 -53 -21.5 -93.5t-7.5 -76.5q0 -67 11 -110h282
q75 0 115.5 4.5t58 15.5t17.5 33v154l-135 15q-68 7 -104 28.5t-49.5 60.5t-13.5 108q0 78 17.5 120t61.5 60.5t128 18.5h498zM1719.5 370.5q7.5 -56.5 7.5 -107.5q0 -102 -22 -159t-70 -80.5t-130 -23.5q-61 0 -101 7t-65 24q-26 -17 -69 -24t-110 -7h-88v134h133
q39 0 57 10t19 37q-1 13 -1 42v157h120v-157q0 -29 -1 -42q1 -27 19 -37t57 -10h122q11 47 11 123q0 78 -27 194l118 18q13 -42 20.5 -98.5zM321.5 -458q-16.5 12 -28.5 28.5t-12 29.5q0 20 25 44.5t45 25.5q20 -1 44.5 -25.5t24.5 -44.5q0 -12 -12 -29t-28.5 -29t-28.5 -12
q-13 0 -29.5 12zM488.5 -458q-16.5 12 -28.5 28.5t-12 29.5q0 20 25 44.5t45 25.5q20 -1 44.5 -25.5t24.5 -44.5q0 -12 -12 -29t-28.5 -29t-28.5 -12q-13 0 -29.5 12z" />
    <glyph glyph-name="uniFD18" unicode="&#xfd18;" horiz-adv-x="1813" arabic-form="final" 
d="M65 0zM1071 470v-470h-119v336h-459v-127l143 -15q59 -6 91.5 -26t46 -57t13.5 -97v-75q0 -87 -31 -134t-110 -67t-229 -20q-145 0 -218.5 17.5t-103.5 63.5t-30 137q0 55 8.5 112.5t23.5 103.5l116 -20q-14 -53 -21.5 -93.5t-7.5 -76.5q0 -67 11 -110h282
q75 0 115.5 4.5t58 15.5t17.5 33v154l-135 15q-68 7 -104 28.5t-49.5 60.5t-13.5 108q0 78 17.5 120t61.5 60.5t128 18.5h498zM1833 134v-134h-327h-1q-61 0 -101 7t-65 24q-26 -17 -69 -24t-110 -7h-88v134h133q39 0 57 10t19 37q-1 13 -1 42v157h120v-157q0 -29 -1 -42
q1 -27 19 -37t57 -10h122q11 47 11 123q0 78 -27 194l118 18q13 -42 20.5 -98.5t7.5 -107.5q0 -78 -13 -129h119zM321.5 -458q-16.5 12 -28.5 28.5t-12 29.5q0 20 25 44.5t45 25.5q20 -1 44.5 -25.5t24.5 -44.5q0 -12 -12 -29t-28.5 -29t-28.5 -12q-13 0 -29.5 12z
M488.5 -458q-16.5 12 -28.5 28.5t-12 29.5q0 20 25 44.5t45 25.5q20 -1 44.5 -25.5t24.5 -44.5q0 -12 -12 -29t-28.5 -29t-28.5 -12q-13 0 -29.5 12z" />
    <glyph glyph-name="uniFD0D" unicode="&#xfd0d;" horiz-adv-x="1302" arabic-form="isolated" 
d="M23 0zM1216.5 370.5q7.5 -56.5 7.5 -107.5q0 -102 -22 -159t-70 -80.5t-130 -23.5q-62 0 -101.5 7t-64.5 24q-27 -17 -70 -24t-110 -7h-207v336h-208v-322q0 -113 -39.5 -179t-132.5 -107l-46 107q40 18 61 39t29.5 53.5t8.5 86.5v456h446v-336h133q40 0 58 11t18 42v193
h119v-193q0 -31 18 -42t58 -11h122q11 47 11 123q0 78 -27 194l118 18q13 -42 20.5 -98.5zM724.5 599q-16.5 12 -28.5 28.5t-12 29.5q0 20 25 44.5t45 25.5q20 -1 44.5 -25.5t24.5 -44.5q0 -12 -12 -29t-28.5 -29t-28.5 -12q-13 0 -29.5 12zM891.5 599q-16.5 12 -28.5 28.5
t-12 29.5q0 20 25 44.5t45 25.5q20 -1 44.5 -25.5t24.5 -44.5q0 -12 -12 -29t-28.5 -29t-28.5 -12q-13 0 -29.5 12zM807.5 776q-16.5 12 -28.5 28.5t-12 29.5q0 20 25 44.5t45 25.5q20 -1 44.5 -25.5t24.5 -44.5q0 -12 -12 -29t-28.5 -29t-28.5 -12q-13 0 -29.5 12z" />
    <glyph glyph-name="uniFD29" unicode="&#xfd29;" horiz-adv-x="1310" arabic-form="final" 
d="M23 0zM1329 134v-134h-327q-62 0 -101.5 7t-64.5 24q-27 -17 -70 -24t-110 -7h-207v336h-208v-322q0 -113 -39.5 -179t-132.5 -107l-46 107q40 18 61 39t29.5 53.5t8.5 86.5v456h446v-336h133q40 0 58 11t18 42v193h119v-193q0 -31 18 -42t58 -11h122q11 47 11 123
q0 78 -27 194l118 18q13 -42 20.5 -98.5t7.5 -107.5q0 -78 -13 -129h118zM724.5 599q-16.5 12 -28.5 28.5t-12 29.5q0 20 25 44.5t45 25.5q20 -1 44.5 -25.5t24.5 -44.5q0 -12 -12 -29t-28.5 -29t-28.5 -12q-13 0 -29.5 12zM891.5 599q-16.5 12 -28.5 28.5t-12 29.5
q0 20 25 44.5t45 25.5q20 -1 44.5 -25.5t24.5 -44.5q0 -12 -12 -29t-28.5 -29t-28.5 -12q-13 0 -29.5 12zM807.5 776q-16.5 12 -28.5 28.5t-12 29.5q0 20 25 44.5t45 25.5q20 -1 44.5 -25.5t24.5 -44.5q0 -12 -12 -29t-28.5 -29t-28.5 -12q-13 0 -29.5 12z" />
    <glyph glyph-name="uniFD0F" unicode="&#xfd0f;" horiz-adv-x="1143" arabic-form="isolated" 
d="M987.5 466q39.5 -14 56 -47.5t16.5 -93.5v-325h-611v335h-208v-322q0 -113 -39.5 -179t-132.5 -106l-46 106q40 18 61 39t29.5 53.5t8.5 86.5v457h446v-156q32 77 115 121.5t194 44.5q71 0 110.5 -14zM941 134v200q-35 11 -116 11q-117 0 -180.5 -52.5t-74.5 -158.5h371z
" />
    <glyph glyph-name="uniFD2B" unicode="&#xfd2b;" horiz-adv-x="1146" arabic-form="final" 
d="M1165 134v-134h-716v335h-208v-322q0 -113 -39.5 -179t-132.5 -106l-46 106q40 18 61 39t29.5 53.5t8.5 86.5v457h446v-156q32 77 115 121.5t194 44.5q71 0 110.5 -14t56 -47.5t16.5 -93.5v-191h105zM941 134v200q-35 11 -116 11q-117 0 -180.5 -52.5t-74.5 -158.5h371z
" />
    <glyph glyph-name="uniFD10" unicode="&#xfd10;" horiz-adv-x="1143" arabic-form="isolated" 
d="M23 0zM987.5 466q39.5 -14 56 -47.5t16.5 -93.5v-325h-611v335h-208v-322q0 -113 -39.5 -179t-132.5 -106l-46 106q40 18 61 39t29.5 53.5t8.5 86.5v457h446v-156q32 77 115 121.5t194 44.5q71 0 110.5 -14zM941 134v200q-35 11 -116 11q-117 0 -180.5 -52.5
t-74.5 -158.5h371zM769.5 599q-16.5 12 -28.5 28.5t-12 29.5q0 20 25 44.5t45 25.5q20 -1 44.5 -25.5t24.5 -44.5q0 -12 -12 -29t-28.5 -29t-28.5 -12q-13 0 -29.5 12z" />
    <glyph glyph-name="uniFD2C" unicode="&#xfd2c;" horiz-adv-x="1146" arabic-form="final" 
d="M23 0zM1165 134v-134h-716v335h-208v-322q0 -113 -39.5 -179t-132.5 -106l-46 106q40 18 61 39t29.5 53.5t8.5 86.5v457h446v-156q32 77 115 121.5t194 44.5q71 0 110.5 -14t56 -47.5t16.5 -93.5v-191h105zM941 134v200q-35 11 -116 11q-117 0 -180.5 -52.5t-74.5 -158.5
h371zM779.5 599q-16.5 12 -28.5 28.5t-12 29.5q0 20 25 44.5t45 25.5q20 -1 44.5 -25.5t24.5 -44.5q0 -12 -12 -29t-28.5 -29t-28.5 -12q-13 0 -29.5 12z" />
    <glyph glyph-name="uniFC8A" unicode="&#xfc8a;" horiz-adv-x="654" arabic-form="final" 
d="M23 0zM674 134v-134h-225v336h-208v-322q0 -113 -39.5 -179t-132.5 -107l-46 107q40 18 61 39t29.5 53.5t8.5 86.5v456h446v-336h106zM478.5 599q-16.5 12 -28.5 28.5t-12 29.5q0 20 25 44.5t45 25.5q20 -1 44.5 -25.5t24.5 -44.5q0 -12 -12 -29t-28.5 -29t-28.5 -12
q-13 0 -29.5 12z" />
    <glyph glyph-name="uniFC8B" unicode="&#xfc8b;" horiz-adv-x="654" arabic-form="final" 
d="M23 0zM674 134v-134h-225v336h-208v-322q0 -113 -39.5 -179t-132.5 -107l-46 107q40 18 61 39t29.5 53.5t8.5 86.5v456h446v-336h106zM478.5 599q-16.5 12 -28.5 28.5t-12 29.5q0 20 25 44.5t45 25.5q20 -1 44.5 -25.5t24.5 -44.5q0 -12 -12 -29t-28.5 -29t-28.5 -12
q-13 0 -29.5 12zM151.5 599q-16.5 12 -28.5 28.5t-12 29.5q0 20 25 44.5t45 25.5q20 -1 44.5 -25.5t24.5 -44.5q0 -12 -12 -29t-28.5 -29t-28.5 -12q-13 0 -29.5 12z" />
    <glyph glyph-name="uniFC8D" unicode="&#xfc8d;" horiz-adv-x="1000" arabic-form="final" 
d="M65 0zM298.5 607q-16.5 12 -28.5 28.5t-12 29.5q0 20 25 44.5t45 25.5q20 -1 44.5 -25.5t24.5 -44.5q0 -12 -12 -29t-28.5 -29t-28.5 -12q-13 0 -29.5 12zM1021 134v-134h-225v336h-209v-350q0 -94 -20.5 -141t-76.5 -66t-172 -19q-106 0 -159 20t-73.5 69t-20.5 147
q0 63 8.5 128t23.5 118l112 -19q-25 -112 -25 -203q0 -77 11 -125h157q64 0 90 11t26 42v522h447v-336h106zM826.5 599q-16.5 12 -28.5 28.5t-12 29.5q0 20 25 44.5t45 25.5q20 -1 44.5 -25.5t24.5 -44.5q0 -12 -12 -29t-28.5 -29t-28.5 -12q-13 0 -29.5 12z" />
    <glyph glyph-name="uniFC8E" unicode="&#xfc8e;" horiz-adv-x="1157" arabic-form="final" 
d="M65 0zM1177 134v-134h-225v336h-459v-127l143 -15q59 -6 91.5 -26t46 -57t13.5 -97v-75q0 -87 -31 -134t-110 -67t-229 -20q-145 0 -218.5 17.5t-103.5 63.5t-30 137q0 55 8.5 112.5t23.5 103.5l116 -20q-14 -53 -21.5 -93.5t-7.5 -76.5q0 -67 11 -110h282
q75 0 115.5 4.5t58 15.5t17.5 33v154l-135 15q-68 7 -104 28.5t-49.5 60.5t-13.5 108q0 78 17.5 120t61.5 60.5t128 18.5h498v-336h106zM982.5 599q-16.5 12 -28.5 28.5t-12 29.5q0 20 25 44.5t45 25.5q20 -1 44.5 -25.5t24.5 -44.5q0 -12 -12 -29t-28.5 -29t-28.5 -12
q-13 0 -29.5 12z" />
    <glyph glyph-name="uniFC8F" unicode="&#xfc8f;" horiz-adv-x="1157" arabic-form="final" 
d="M65 0zM1177 134v-134h-225v336h-459v-127l143 -15q59 -6 91.5 -26t46 -57t13.5 -97v-75q0 -87 -31 -134t-110 -67t-229 -20q-145 0 -218.5 17.5t-103.5 63.5t-30 137q0 55 8.5 112.5t23.5 103.5l116 -20q-14 -53 -21.5 -93.5t-7.5 -76.5q0 -67 11 -110h282
q75 0 115.5 4.5t58 15.5t17.5 33v154l-135 15q-68 7 -104 28.5t-49.5 60.5t-13.5 108q0 78 17.5 120t61.5 60.5t128 18.5h498v-336h106zM982.5 599q-16.5 12 -28.5 28.5t-12 29.5q0 20 25 44.5t45 25.5q20 -1 44.5 -25.5t24.5 -44.5q0 -12 -12 -29t-28.5 -29t-28.5 -12
q-13 0 -29.5 12zM321.5 -458q-16.5 12 -28.5 28.5t-12 29.5q0 20 25 44.5t45 25.5q20 -1 44.5 -25.5t24.5 -44.5q0 -12 -12 -29t-28.5 -29t-28.5 -12q-13 0 -29.5 12zM488.5 -458q-16.5 12 -28.5 28.5t-12 29.5q0 20 25 44.5t45 25.5q20 -1 44.5 -25.5t24.5 -44.5
q0 -12 -12 -29t-28.5 -29t-28.5 -12q-13 0 -29.5 12z" />
    <glyph glyph-name="uniFC91" unicode="&#xfc91;" horiz-adv-x="654" arabic-form="final" 
d="M23 0zM674 134v-134h-225v336h-208v-322q0 -113 -39.5 -179t-132.5 -107l-46 107q40 18 61 39t29.5 53.5t8.5 86.5v456h446v-336h106zM393.5 -208q-16.5 12 -28.5 28.5t-12 29.5q0 20 25 44.5t45 25.5q20 -1 44.5 -25.5t24.5 -44.5q0 -12 -12 -29t-28.5 -29t-28.5 -12
q-13 0 -29.5 12zM560.5 -208q-16.5 12 -28.5 28.5t-12 29.5q0 20 25 44.5t45 25.5q20 -1 44.5 -25.5t24.5 -44.5q0 -12 -12 -29t-28.5 -29t-28.5 -12q-13 0 -29.5 12z" />
    <glyph glyph-name="uniFC92" unicode="&#xfc92;" horiz-adv-x="654" arabic-form="final" 
d="M23 0zM674 134v-134h-225v336h-208v-322q0 -113 -39.5 -179t-132.5 -107l-46 107q40 18 61 39t29.5 53.5t8.5 86.5v456h446v-336h106zM393.5 -208q-16.5 12 -28.5 28.5t-12 29.5q0 20 25 44.5t45 25.5q20 -1 44.5 -25.5t24.5 -44.5q0 -12 -12 -29t-28.5 -29t-28.5 -12
q-13 0 -29.5 12zM560.5 -208q-16.5 12 -28.5 28.5t-12 29.5q0 20 25 44.5t45 25.5q20 -1 44.5 -25.5t24.5 -44.5q0 -12 -12 -29t-28.5 -29t-28.5 -12q-13 0 -29.5 12zM151.5 599q-16.5 12 -28.5 28.5t-12 29.5q0 20 25 44.5t45 25.5q20 -1 44.5 -25.5t24.5 -44.5
q0 -12 -12 -29t-28.5 -29t-28.5 -12q-13 0 -29.5 12z" />
    <glyph glyph-name="uniFC94" unicode="&#xfc94;" horiz-adv-x="1000" arabic-form="final" 
d="M65 0zM298.5 607q-16.5 12 -28.5 28.5t-12 29.5q0 20 25 44.5t45 25.5q20 -1 44.5 -25.5t24.5 -44.5q0 -12 -12 -29t-28.5 -29t-28.5 -12q-13 0 -29.5 12zM1021 134v-134h-225v336h-209v-350q0 -94 -20.5 -141t-76.5 -66t-172 -19q-106 0 -159 20t-73.5 69t-20.5 147
q0 63 8.5 128t23.5 118l112 -19q-25 -112 -25 -203q0 -77 11 -125h157q64 0 90 11t26 42v522h447v-336h106zM741.5 -208q-16.5 12 -28.5 28.5t-12 29.5q0 20 25 44.5t45 25.5q20 -1 44.5 -25.5t24.5 -44.5q0 -12 -12 -29t-28.5 -29t-28.5 -12q-13 0 -29.5 12zM908.5 -208
q-16.5 12 -28.5 28.5t-12 29.5q0 20 25 44.5t45 25.5q20 -1 44.5 -25.5t24.5 -44.5q0 -12 -12 -29t-28.5 -29t-28.5 -12q-13 0 -29.5 12z" />
    <glyph glyph-name="uniFC64" unicode="&#xfc64;" horiz-adv-x="654" arabic-form="final" 
d="M23 0zM674 134v-134h-225v336h-208v-322q0 -113 -39.5 -179t-132.5 -107l-46 107q40 18 61 39t29.5 53.5t8.5 86.5v456h446v-336h106zM624 698v-59l-232 -62v58l40 11q-9 24 -9 62q0 76 44.5 108t129.5 36v-69q-51 -3 -95 -22v-66q0 -12 4 -17.5t14 -5.5q4 0 22 4z" />
    <glyph glyph-name="uniFC65" unicode="&#xfc65;" horiz-adv-x="654" arabic-form="final" 
d="M23 0zM674 134v-134h-225v336h-208v-322q0 -113 -39.5 -179t-132.5 -107l-46 107q40 18 61 39t29.5 53.5t8.5 86.5v456h446v-336h106zM624 698v-59l-232 -62v58l40 11q-9 24 -9 62q0 76 44.5 108t129.5 36v-69q-51 -3 -95 -22v-66q0 -12 4 -17.5t14 -5.5q4 0 22 4z
M151.5 599q-16.5 12 -28.5 28.5t-12 29.5q0 20 25 44.5t45 25.5q20 -1 44.5 -25.5t24.5 -44.5q0 -12 -12 -29t-28.5 -29t-28.5 -12q-13 0 -29.5 12z" />
    <glyph glyph-name="uniFC67" unicode="&#xfc67;" horiz-adv-x="1000" arabic-form="final" 
d="M65 0zM298.5 607q-16.5 12 -28.5 28.5t-12 29.5q0 20 25 44.5t45 25.5q20 -1 44.5 -25.5t24.5 -44.5q0 -12 -12 -29t-28.5 -29t-28.5 -12q-13 0 -29.5 12zM1021 134v-134h-225v336h-209v-350q0 -94 -20.5 -141t-76.5 -66t-172 -19q-106 0 -159 20t-73.5 69t-20.5 147
q0 63 8.5 128t23.5 118l112 -19q-25 -112 -25 -203q0 -77 11 -125h157q64 0 90 11t26 42v522h447v-336h106zM972 698v-59l-232 -62v58l40 11q-9 24 -9 62q0 76 44.5 108t129.5 36v-69q-51 -3 -95 -22v-66q0 -12 4 -17.5t14 -5.5q4 0 22 4z" />
    <glyph glyph-name="uniFC68" unicode="&#xfc68;" horiz-adv-x="1157" arabic-form="final" 
d="M65 0zM1177 134v-134h-225v336h-459v-127l143 -15q59 -6 91.5 -26t46 -57t13.5 -97v-75q0 -87 -31 -134t-110 -67t-229 -20q-145 0 -218.5 17.5t-103.5 63.5t-30 137q0 55 8.5 112.5t23.5 103.5l116 -20q-14 -53 -21.5 -93.5t-7.5 -76.5q0 -67 11 -110h282
q75 0 115.5 4.5t58 15.5t17.5 33v154l-135 15q-68 7 -104 28.5t-49.5 60.5t-13.5 108q0 78 17.5 120t61.5 60.5t128 18.5h498v-336h106zM1128 698v-59l-232 -62v58l40 11q-9 24 -9 62q0 76 44.5 108t129.5 36v-69q-51 -3 -95 -22v-66q0 -12 4 -17.5t14 -5.5q4 0 22 4z" />
    <glyph glyph-name="uniFC69" unicode="&#xfc69;" horiz-adv-x="1157" arabic-form="final" 
d="M65 0zM1177 134v-134h-225v336h-459v-127l143 -15q59 -6 91.5 -26t46 -57t13.5 -97v-75q0 -87 -31 -134t-110 -67t-229 -20q-145 0 -218.5 17.5t-103.5 63.5t-30 137q0 55 8.5 112.5t23.5 103.5l116 -20q-14 -53 -21.5 -93.5t-7.5 -76.5q0 -67 11 -110h282
q75 0 115.5 4.5t58 15.5t17.5 33v154l-135 15q-68 7 -104 28.5t-49.5 60.5t-13.5 108q0 78 17.5 120t61.5 60.5t128 18.5h498v-336h106zM1128 698v-59l-232 -62v58l40 11q-9 24 -9 62q0 76 44.5 108t129.5 36v-69q-51 -3 -95 -22v-66q0 -12 4 -17.5t14 -5.5q4 0 22 4z
M321.5 -458q-16.5 12 -28.5 28.5t-12 29.5q0 20 25 44.5t45 25.5q20 -1 44.5 -25.5t24.5 -44.5q0 -12 -12 -29t-28.5 -29t-28.5 -12q-13 0 -29.5 12zM488.5 -458q-16.5 12 -28.5 28.5t-12 29.5q0 20 25 44.5t45 25.5q20 -1 44.5 -25.5t24.5 -44.5q0 -12 -12 -29t-28.5 -29
t-28.5 -12q-13 0 -29.5 12z" />
    <glyph glyph-name=".notdef" horiz-adv-x="380" 
 />
    <glyph glyph-name="NULL" horiz-adv-x="600" 
 />
    <glyph glyph-name="nonmarkingreturn" horiz-adv-x="380" 
 />
    <glyph glyph-name="space" unicode=" " horiz-adv-x="226" 
 />
    <glyph glyph-name="A" unicode="A" horiz-adv-x="595" 
d="M403 120h-211l-33 -120h-149l173 625h229l173 -625h-149zM372 231l-70 253h-9l-70 -253h149z" />
    <glyph glyph-name="Aacute" unicode="&#xc1;" horiz-adv-x="595" 
d="M10 0zM403 120h-211l-33 -120h-149l173 625h229l173 -625h-149zM372 231l-70 253h-9l-70 -253h149zM198 722l170 124q5 4 10 4q4 0 6.5 -2t6.5 -6l52 -63q8 -9 8 -14q0 -7 -9 -15l-32 -27q-10 -9 -24 -11l-157 -35z" />
    <glyph glyph-name="Abreve" unicode="&#x102;" horiz-adv-x="595" 
d="M10 0zM403 120h-211l-33 -120h-149l173 625h229l173 -625h-149zM372 231l-70 253h-9l-70 -253h149zM213 714.5q-36 30.5 -49 92.5l80 13q7 -22 21.5 -34t32.5 -12t33 12t21 34l80 -13q-14 -60 -50 -91.5t-84 -31.5q-49 0 -85 30.5z" />
    <glyph glyph-name="Acircumflex" unicode="&#xc2;" horiz-adv-x="595" 
d="M10 0zM403 120h-211l-33 -120h-149l173 625h229l173 -625h-149zM372 231l-70 253h-9l-70 -253h149zM168 713l101 125q5 8 13 8h33q7 0 13 -8l101 -125l-43 -41l-88 68l-88 -68z" />
    <glyph glyph-name="Adieresis" unicode="&#xc4;" horiz-adv-x="595" 
d="M10 0zM403 120h-211l-33 -120h-149l173 625h229l173 -625h-149zM372 231l-70 253h-9l-70 -253h149zM145.5 704q-13.5 15 -13.5 54t14 55t54 16t53.5 -16t13.5 -55t-13.5 -54t-53.5 -15q-41 0 -54.5 15zM341.5 704q-13.5 15 -13.5 54t14 55t54 16t53.5 -16t13.5 -55
t-13.5 -54t-53.5 -15q-41 0 -54.5 15z" />
    <glyph glyph-name="Agrave" unicode="&#xc0;" horiz-adv-x="595" 
d="M10 0zM403 120h-211l-33 -120h-149l173 625h229l173 -625h-149zM372 231l-70 253h-9l-70 -253h149zM236 707q-14 2 -24 11l-32 27q-9 8 -9 14t8 15l53 63q6 8 13 8q4 0 9 -4l170 -124l-31 -45z" />
    <glyph glyph-name="Amacron" unicode="&#x100;" horiz-adv-x="595" 
d="M10 0zM403 120h-211l-33 -120h-149l173 625h229l173 -625h-149zM372 231l-70 253h-9l-70 -253h149zM170.5 713q-8.5 11 -8.5 44v49h223q22 0 31.5 -4.5t12.5 -15.5t3 -34v-50h-221q-32 0 -40.5 11z" />
    <glyph glyph-name="Aogonek" unicode="&#x104;" horiz-adv-x="595" 
d="M604 -155q-46 -20 -88 -20q-43 0 -68.5 24.5t-25.5 66.5q0 53 53 84h-39l-33 120h-211l-33 -120h-149l173 625h229l173 -625h-5l-16 -3q-24 -5 -31 -13t-7 -28v-13q0 -17 6.5 -25t22.5 -8h38zM372 231l-70 253h-9l-70 -253h149z" />
    <glyph glyph-name="Aring" unicode="&#xc5;" horiz-adv-x="595" 
d="M10 0zM403 120h-211l-33 -120h-149l173 625h229l173 -625h-149zM372 231l-70 253h-9l-70 -253h149zM216 684.5q-25 26.5 -25 80.5t25 80.5t82 26.5t82 -26.5t25 -80.5t-25 -80.5t-82 -26.5t-82 26.5zM294 721q22 0 32 4.5t10 21.5v62h-34q-24 0 -34.5 -4.5t-10.5 -20.5
v-63h37z" />
    <glyph glyph-name="Aringacute" unicode="&#x1fa;" horiz-adv-x="595" 
d="M10 0zM403 120h-211l-33 -120h-149l173 625h229l173 -625h-149zM372 231l-70 253h-9l-70 -253h149zM216 684.5q-25 26.5 -25 80.5t25 80.5t82 26.5t82 -26.5t25 -80.5t-25 -80.5t-82 -26.5t-82 26.5zM294 721q22 0 32 4.5t10 21.5v62h-34q-24 0 -34.5 -4.5t-10.5 -20.5
v-63h37zM198 949l170 124q5 4 10 4q4 0 6.5 -2t6.5 -6l52 -63q8 -9 8 -14q0 -7 -9 -15l-32 -27q-10 -9 -24 -11l-157 -35z" />
    <glyph glyph-name="Atilde" unicode="&#xc3;" horiz-adv-x="595" 
d="M10 0zM403 120h-211l-33 -120h-149l173 625h229l173 -625h-149zM372 231l-70 253h-9l-70 -253h149zM282.5 687.5q-14.5 8.5 -39.5 35.5l-74 -37l-35 59q75 54 102.5 69.5t44.5 15.5t30.5 -8t40.5 -36l74 37l35 -59q-73 -52 -101 -68.5t-46 -16.5q-17 0 -31.5 8.5z" />
    <glyph glyph-name="AE" unicode="&#xc6;" horiz-adv-x="797" 
d="M172 625h534l-19 -124h-235l35 -135h178v-115h-148l32 -127h208v-124h-333l-28 118h-200l-29 -118h-157zM367 242l-57 242h-27l-58 -242h142z" />
    <glyph glyph-name="AEacute" unicode="&#x1fc;" horiz-adv-x="797" 
d="M10 0zM172 625h534l-19 -124h-235l35 -135h178v-115h-148l32 -127h208v-124h-333l-28 118h-200l-29 -118h-157zM367 242l-57 242h-27l-58 -242h142zM299 722l170 124q5 4 10 4q4 0 6.5 -2t6.5 -6l52 -63q8 -9 8 -14q0 -7 -9 -15l-32 -27q-10 -9 -24 -11l-157 -35z" />
    <glyph glyph-name="B" unicode="B" horiz-adv-x="587" 
d="M525 264q26 -38 26 -88q0 -85 -48 -130.5t-138 -45.5h-295v625h262q98 0 143 -38.5t45 -121.5q0 -50 -16.5 -87t-48.5 -57v-6q44 -13 70 -51zM359 501q-13 16 -48 16h-91v-149h90q35 0 48.5 16t13.5 58q0 43 -13 59zM385.5 126.5q14.5 18.5 14.5 62.5q0 41 -14 58t-49 17
h-117v-156h116q35 0 49.5 18.5z" />
    <glyph glyph-name="C" unicode="C" horiz-adv-x="499" 
d="M398 -9q-42 -6 -99 -6q-100 0 -153.5 29t-75.5 98.5t-22 199.5q0 131 23.5 200.5t80 98.5t162.5 29q38 0 85 -6.5t71 -16.5l-19 -120q-31 8 -72.5 13.5t-68.5 5.5q-57 0 -79.5 -15t-22.5 -58v-321q49 -11 99 -11q85 0 157 24l13 -124q-37 -14 -79 -20z" />
    <glyph glyph-name="Cacute" unicode="&#x106;" horiz-adv-x="499" 
d="M48 0zM398 -9q-42 -6 -99 -6q-100 0 -153.5 29t-75.5 98.5t-22 199.5q0 131 23.5 200.5t80 98.5t162.5 29q38 0 85 -6.5t71 -16.5l-19 -120q-31 8 -72.5 13.5t-68.5 5.5q-57 0 -79.5 -15t-22.5 -58v-321q49 -11 99 -11q85 0 157 24l13 -124q-37 -14 -79 -20zM190 722
l170 124q5 4 10 4q4 0 6.5 -2t6.5 -6l52 -63q8 -9 8 -14q0 -7 -9 -15l-32 -27q-10 -9 -24 -11l-157 -35z" />
    <glyph glyph-name="Ccaron" unicode="&#x10c;" horiz-adv-x="499" 
d="M48 0zM398 -9q-42 -6 -99 -6q-100 0 -153.5 29t-75.5 98.5t-22 199.5q0 131 23.5 200.5t80 98.5t162.5 29q38 0 85 -6.5t71 -16.5l-19 -120q-31 8 -72.5 13.5t-68.5 5.5q-57 0 -79.5 -15t-22.5 -58v-321q49 -11 99 -11q85 0 157 24l13 -124q-37 -14 -79 -20zM290 777
l88 69l43 -42l-101 -125q-6 -7 -13 -7h-33q-9 0 -13 7l-101 125l42 42z" />
    <glyph glyph-name="Ccedilla" unicode="&#xc7;" horiz-adv-x="499" 
d="M325 -15q24 -32 24 -71q0 -40 -28 -64.5t-75 -24.5q-46 0 -86 17l9 68h29q26 0 34.5 7.5t8.5 29.5v41q-76 8 -117.5 41t-58.5 100t-17 183q0 131 23.5 200.5t80 98.5t162.5 29q38 0 85 -6.5t71 -16.5l-19 -120q-31 8 -72.5 13.5t-68.5 5.5q-57 0 -79.5 -15t-22.5 -58
v-321q49 -11 99 -11q85 0 157 24l13 -124q-60 -23 -152 -26z" />
    <glyph glyph-name="Ccircumflex" unicode="&#x108;" horiz-adv-x="499" 
d="M48 0zM398 -9q-42 -6 -99 -6q-100 0 -153.5 29t-75.5 98.5t-22 199.5q0 131 23.5 200.5t80 98.5t162.5 29q38 0 85 -6.5t71 -16.5l-19 -120q-31 8 -72.5 13.5t-68.5 5.5q-57 0 -79.5 -15t-22.5 -58v-321q49 -11 99 -11q85 0 157 24l13 -124q-37 -14 -79 -20zM160 713
l101 125q5 8 13 8h33q7 0 13 -8l101 -125l-43 -41l-88 68l-88 -68z" />
    <glyph glyph-name="Cdotaccent" unicode="&#x10a;" horiz-adv-x="499" 
d="M48 0zM398 -9q-42 -6 -99 -6q-100 0 -153.5 29t-75.5 98.5t-22 199.5q0 131 23.5 200.5t80 98.5t162.5 29q38 0 85 -6.5t71 -16.5l-19 -120q-31 8 -72.5 13.5t-68.5 5.5q-57 0 -79.5 -15t-22.5 -58v-321q49 -11 99 -11q85 0 157 24l13 -124q-37 -14 -79 -20zM224.5 707
q-17.5 17 -17.5 65q0 49 17.5 66.5t66.5 17.5q47 0 64.5 -17.5t17.5 -66.5q0 -48 -17 -65t-65 -17q-49 0 -66.5 17z" />
    <glyph glyph-name="D" unicode="D" horiz-adv-x="639" 
d="M321 625q112 0 168.5 -26t79 -91.5t22.5 -195.5t-22.5 -195t-79 -91t-168.5 -26h-251v625h251zM219 119h134q44 0 61 14.5t17 53.5v251q0 39 -17 53.5t-61 14.5h-134v-387z" />
    <glyph glyph-name="Eth" unicode="&#xd0;" horiz-adv-x="639" 
d="M489.5 599q56.5 -26 79 -91.5t22.5 -195.5t-22.5 -195t-79 -91t-168.5 -26h-251v260h-55v55q0 29 10.5 39.5t39.5 10.5h5v260h251q112 0 168.5 -26zM431 438q0 39 -17 53.5t-61 14.5h-134v-141h97v-55q0 -29 -10.5 -39.5t-39.5 -10.5h-47v-141h134q44 0 61 14.5t17 53.5
v251z" />
    <glyph glyph-name="Dcaron" unicode="&#x10e;" horiz-adv-x="639" 
d="M70 0zM321 625q112 0 168.5 -26t79 -91.5t22.5 -195.5t-22.5 -195t-79 -91t-168.5 -26h-251v625h251zM219 119h134q44 0 61 14.5t17 53.5v251q0 39 -17 53.5t-61 14.5h-134v-387zM320 777l88 69l43 -42l-101 -125q-6 -7 -13 -7h-33q-9 0 -13 7l-101 125l42 42z" />
    <glyph glyph-name="Dcroat" unicode="&#x110;" horiz-adv-x="639" 
d="M15 0zM489.5 599q56.5 -26 79 -91.5t22.5 -195.5t-22.5 -195t-79 -91t-168.5 -26h-251v260h-55v55q0 29 10.5 39.5t39.5 10.5h5v260h251q112 0 168.5 -26zM431 438q0 39 -17 53.5t-61 14.5h-134v-141h97v-55q0 -29 -10.5 -39.5t-39.5 -10.5h-47v-141h134q44 0 61 14.5
t17 53.5v251z" />
    <glyph glyph-name="E" unicode="E" horiz-adv-x="517" 
d="M219 123h255v-123h-404v625h405l-18 -123h-238v-134h219v-111h-219v-134z" />
    <glyph glyph-name="Eacute" unicode="&#xc9;" horiz-adv-x="517" 
d="M70 0zM219 123h255v-123h-404v625h405l-18 -123h-238v-134h219v-111h-219v-134zM178 722l170 124q5 4 10 4q4 0 6.5 -2t6.5 -6l52 -63q8 -9 8 -14q0 -7 -9 -15l-32 -27q-10 -9 -24 -11l-157 -35z" />
    <glyph glyph-name="Ebreve" unicode="&#x114;" horiz-adv-x="517" 
d="M70 0zM219 123h255v-123h-404v625h405l-18 -123h-238v-134h219v-111h-219v-134zM193 714.5q-36 30.5 -49 92.5l80 13q7 -22 21.5 -34t32.5 -12t33 12t21 34l80 -13q-14 -60 -50 -91.5t-84 -31.5q-49 0 -85 30.5z" />
    <glyph glyph-name="Ecaron" unicode="&#x11a;" horiz-adv-x="517" 
d="M70 0zM219 123h255v-123h-404v625h405l-18 -123h-238v-134h219v-111h-219v-134zM278 777l88 69l43 -42l-101 -125q-6 -7 -13 -7h-33q-9 0 -13 7l-101 125l42 42z" />
    <glyph glyph-name="Ecircumflex" unicode="&#xca;" horiz-adv-x="517" 
d="M70 0zM219 123h255v-123h-404v625h405l-18 -123h-238v-134h219v-111h-219v-134zM148 713l101 125q5 8 13 8h33q7 0 13 -8l101 -125l-43 -41l-88 68l-88 -68z" />
    <glyph glyph-name="Edieresis" unicode="&#xcb;" horiz-adv-x="517" 
d="M70 0zM219 123h255v-123h-404v625h405l-18 -123h-238v-134h219v-111h-219v-134zM125.5 704q-13.5 15 -13.5 54t14 55t54 16t53.5 -16t13.5 -55t-13.5 -54t-53.5 -15q-41 0 -54.5 15zM321.5 704q-13.5 15 -13.5 54t14 55t54 16t53.5 -16t13.5 -55t-13.5 -54t-53.5 -15
q-41 0 -54.5 15z" />
    <glyph glyph-name="Edotaccent" unicode="&#x116;" horiz-adv-x="517" 
d="M70 0zM219 123h255v-123h-404v625h405l-18 -123h-238v-134h219v-111h-219v-134zM212.5 707q-17.5 17 -17.5 65q0 49 17.5 66.5t66.5 17.5q47 0 64.5 -17.5t17.5 -66.5q0 -48 -17 -65t-65 -17q-49 0 -66.5 17z" />
    <glyph glyph-name="Egrave" unicode="&#xc8;" horiz-adv-x="517" 
d="M70 0zM219 123h255v-123h-404v625h405l-18 -123h-238v-134h219v-111h-219v-134zM216 707q-14 2 -24 11l-32 27q-9 8 -9 14t8 15l53 63q6 8 13 8q4 0 9 -4l170 -124l-31 -45z" />
    <glyph glyph-name="Emacron" unicode="&#x112;" horiz-adv-x="517" 
d="M70 0zM219 123h255v-123h-404v625h405l-18 -123h-238v-134h219v-111h-219v-134zM150.5 713q-8.5 11 -8.5 44v49h223q22 0 31.5 -4.5t12.5 -15.5t3 -34v-50h-221q-32 0 -40.5 11z" />
    <glyph glyph-name="Eogonek" unicode="&#x118;" horiz-adv-x="517" 
d="M499 -155q-46 -20 -88 -20q-43 0 -68.5 24.5t-25.5 66.5q0 53 53 84h-300v625h405l-18 -123h-238v-134h219v-111h-219v-134h255v-120l1 -3l-16 -3q-24 -5 -31 -13t-7 -28v-13q0 -17 6.5 -25t22.5 -8h38z" />
    <glyph glyph-name="F" unicode="F" horiz-adv-x="460" 
d="M219 0h-149v625h374l-18 -123h-207v-150h185v-112h-185v-240z" />
    <glyph glyph-name="G" unicode="G" horiz-adv-x="572" 
d="M527 359v-334q-50 -22 -106.5 -31t-134.5 -9q-98 0 -148 27t-70 95.5t-20 204.5q0 132 23 201.5t80 98t166 28.5q45 0 99.5 -6.5t83.5 -16.5l-19 -120q-38 8 -87 13.5t-82 5.5q-59 0 -82 -15t-23 -58v-338h181v142h-73v112h212z" />
    <glyph glyph-name="Gbreve" unicode="&#x11e;" horiz-adv-x="572" 
d="M48 0zM527 359v-334q-50 -22 -106.5 -31t-134.5 -9q-98 0 -148 27t-70 95.5t-20 204.5q0 132 23 201.5t80 98t166 28.5q45 0 99.5 -6.5t83.5 -16.5l-19 -120q-38 8 -87 13.5t-82 5.5q-59 0 -82 -15t-23 -58v-338h181v142h-73v112h212zM229 714.5q-36 30.5 -49 92.5l80 13
q7 -22 21.5 -34t32.5 -12t33 12t21 34l80 -13q-14 -60 -50 -91.5t-84 -31.5q-49 0 -85 30.5z" />
    <glyph glyph-name="Gcircumflex" unicode="&#x11c;" horiz-adv-x="572" 
d="M48 0zM527 359v-334q-50 -22 -106.5 -31t-134.5 -9q-98 0 -148 27t-70 95.5t-20 204.5q0 132 23 201.5t80 98t166 28.5q45 0 99.5 -6.5t83.5 -16.5l-19 -120q-38 8 -87 13.5t-82 5.5q-59 0 -82 -15t-23 -58v-338h181v142h-73v112h212zM184 713l101 125q5 8 13 8h33
q7 0 13 -8l101 -125l-43 -41l-88 68l-88 -68z" />
    <glyph glyph-name="Gcommaaccent" unicode="&#x122;" horiz-adv-x="572" 
d="M48 0zM527 359v-334q-50 -22 -106.5 -31t-134.5 -9q-98 0 -148 27t-70 95.5t-20 204.5q0 132 23 201.5t80 98t166 28.5q45 0 99.5 -6.5t83.5 -16.5l-19 -120q-38 8 -87 13.5t-82 5.5q-59 0 -82 -15t-23 -58v-338h181v142h-73v112h212zM247 -291l22 101q-30 4 -43 19
t-13 48q0 47 18 65t63 18t62.5 -18t17.5 -65q0 -28 -7 -51t-25 -61l-37 -74z" />
    <glyph glyph-name="Gdotaccent" unicode="&#x120;" horiz-adv-x="572" 
d="M48 0zM527 359v-334q-50 -22 -106.5 -31t-134.5 -9q-98 0 -148 27t-70 95.5t-20 204.5q0 132 23 201.5t80 98t166 28.5q45 0 99.5 -6.5t83.5 -16.5l-19 -120q-38 8 -87 13.5t-82 5.5q-59 0 -82 -15t-23 -58v-338h181v142h-73v112h212zM248.5 707q-17.5 17 -17.5 65
q0 49 17.5 66.5t66.5 17.5q47 0 64.5 -17.5t17.5 -66.5q0 -48 -17 -65t-65 -17q-49 0 -66.5 17z" />
    <glyph glyph-name="H" unicode="H" horiz-adv-x="645" 
d="M574 625v-625h-149v255h-206v-255h-149v625h149v-258h206v258h149z" />
    <glyph glyph-name="Hbar" unicode="&#x126;" horiz-adv-x="645" 
d="M638 541v-48q0 -29 -10.5 -39t-39.5 -10h-14v-444h-149v255h-206v-255h-149v444h-63v47q0 29 10.5 39.5t39.5 10.5h13v84h149v-84h206v84h149v-84h64zM425 444h-206v-77h206v77z" />
    <glyph glyph-name="Hcircumflex" unicode="&#x124;" horiz-adv-x="645" 
d="M70 0zM574 625v-625h-149v255h-206v-255h-149v625h149v-258h206v258h149zM192 713l101 125q5 8 13 8h33q7 0 13 -8l101 -125l-43 -41l-88 68l-88 -68z" />
    <glyph glyph-name="I" unicode="I" horiz-adv-x="290" 
d="M219 625v-625h-149v625h149z" />
    <glyph glyph-name="IJ" unicode="&#x132;" horiz-adv-x="661" 
d="M70 0zM219 625v-625h-149v625h149zM393 122q24 0 36 5.5t12 24.5v350h-100v123h249v-475q0 -79 -39 -114.5t-116 -35.5h-114l-16 122h88z" />
    <glyph glyph-name="Iacute" unicode="&#xcd;" horiz-adv-x="290" 
d="M45 0zM219 625v-625h-149v625h149zM45 722l170 124q5 4 10 4q4 0 6.5 -2t6.5 -6l52 -63q8 -9 8 -14q0 -7 -9 -15l-32 -27q-10 -9 -24 -11l-157 -35z" />
    <glyph glyph-name="Ibreve" unicode="&#x12c;" horiz-adv-x="290" 
d="M11 0zM219 625v-625h-149v625h149zM60 714.5q-36 30.5 -49 92.5l80 13q7 -22 21.5 -34t32.5 -12t33 12t21 34l80 -13q-14 -60 -50 -91.5t-84 -31.5q-49 0 -85 30.5z" />
    <glyph glyph-name="Icircumflex" unicode="&#xce;" horiz-adv-x="290" 
d="M15 0zM219 625v-625h-149v625h149zM15 713l101 125q5 8 13 8h33q7 0 13 -8l101 -125l-43 -41l-88 68l-88 -68z" />
    <glyph glyph-name="Idieresis" unicode="&#xcf;" horiz-adv-x="290" 
d="M0 0zM219 625v-625h-149v625h149zM-7.5 704q-13.5 15 -13.5 54t14 55t54 16t53.5 -16t13.5 -55t-13.5 -54t-53.5 -15q-41 0 -54.5 15zM188.5 704q-13.5 15 -13.5 54t14 55t54 16t53.5 -16t13.5 -55t-13.5 -54t-53.5 -15q-41 0 -54.5 15z" />
    <glyph glyph-name="Idotaccent" unicode="&#x130;" horiz-adv-x="290" 
d="M62 0zM219 625v-625h-149v625h149zM79.5 707q-17.5 17 -17.5 65q0 49 17.5 66.5t66.5 17.5q47 0 64.5 -17.5t17.5 -66.5q0 -48 -17 -65t-65 -17q-49 0 -66.5 17z" />
    <glyph glyph-name="Igrave" unicode="&#xcc;" horiz-adv-x="290" 
d="M18 0zM219 625v-625h-149v625h149zM83 707q-14 2 -24 11l-32 27q-9 8 -9 14t8 15l53 63q6 8 13 8q4 0 9 -4l170 -124l-31 -45z" />
    <glyph glyph-name="Imacron" unicode="&#x12a;" horiz-adv-x="290" 
d="M9 0zM219 625v-625h-149v625h149zM17.5 713q-8.5 11 -8.5 44v49h223q22 0 31.5 -4.5t12.5 -15.5t3 -34v-50h-221q-32 0 -40.5 11z" />
    <glyph glyph-name="Iogonek" unicode="&#x12e;" horiz-adv-x="290" 
d="M243 -155q-46 -20 -88 -20q-43 0 -68.5 24.5t-25.5 66.5q0 53 53 84h-44v625h149v-625l-16 -3q-24 -5 -31 -13t-7 -28v-13q0 -17 6.5 -25t22.5 -8h38z" />
    <glyph glyph-name="Itilde" unicode="&#x128;" horiz-adv-x="290" 
d="M0 0zM219 625v-625h-149v625h149zM129.5 687.5q-14.5 8.5 -39.5 35.5l-74 -37l-35 59q75 54 102.5 69.5t44.5 15.5t30.5 -8t40.5 -36l74 37l35 -59q-73 -52 -101 -68.5t-46 -16.5q-17 0 -31.5 8.5z" />
    <glyph glyph-name="J" unicode="J" horiz-adv-x="371" 
d="M103 122q24 0 36 5.5t12 24.5v350h-100v123h249v-475q0 -79 -39 -114.5t-116 -35.5h-114l-16 122h88z" />
    <glyph glyph-name="Jcircumflex" unicode="&#x134;" horiz-adv-x="371" 
d="M15 0zM103 122q24 0 36 5.5t12 24.5v350h-100v123h249v-475q0 -79 -39 -114.5t-116 -35.5h-114l-16 122h88zM56 713l101 125q5 8 13 8h33q7 0 13 -8l101 -125l-43 -41l-88 68l-88 -68z" />
    <glyph glyph-name="K" unicode="K" horiz-adv-x="585" 
d="M577 0h-161l-76 161q-32 66 -32 104h-89v-265h-149v625h149v-248h89q0 38 32 104l71 144h161l-149 -304z" />
    <glyph glyph-name="Kcommaaccent" unicode="&#x136;" horiz-adv-x="585" 
d="M70 0zM577 0h-161l-76 161q-32 66 -32 104h-89v-265h-149v625h149v-248h89q0 38 32 104l71 144h161l-149 -304zM261 -291l22 101q-30 4 -43 19t-13 48q0 47 18 65t63 18t62.5 -18t17.5 -65q0 -28 -7 -51t-25 -61l-37 -74z" />
    <glyph glyph-name="L" unicode="L" horiz-adv-x="437" 
d="M70 625h149v-502h210v-123h-359v625z" />
    <glyph glyph-name="Lacute" unicode="&#x139;" horiz-adv-x="437" 
d="M45 0zM70 625h149v-502h210v-123h-359v625zM45 722l170 124q5 4 10 4q4 0 6.5 -2t6.5 -6l52 -63q8 -9 8 -14q0 -7 -9 -15l-32 -27q-10 -9 -24 -11l-157 -35z" />
    <glyph glyph-name="Lcaron" unicode="&#x13d;" horiz-adv-x="437" 
d="M70 0zM70 625h149v-502h210v-123h-359v625zM207 -291l22 101q-30 4 -43 19t-13 48q0 47 18 65t63 18t62.5 -18t17.5 -65q0 -28 -7 -51t-25 -61l-37 -74z" />
    <glyph glyph-name="Lcommaaccent" unicode="&#x13b;" horiz-adv-x="437" 
d="M70 0zM70 625h149v-502h210v-123h-359v625zM207 -291l22 101q-30 4 -43 19t-13 48q0 47 18 65t63 18t62.5 -18t17.5 -65q0 -28 -7 -51t-25 -61l-37 -74z" />
    <glyph glyph-name="Ldot" unicode="&#x13f;" horiz-adv-x="437" 
d="M70 625h149v-502h210v-123h-359v625zM303 399.5q14 15.5 56 15.5q40 0 54 -15.5t14 -54.5t-13.5 -54t-54.5 -15q-42 0 -56 15t-14 54t14 54.5z" />
    <glyph glyph-name="Lslash" unicode="&#x141;" horiz-adv-x="437" 
d="M429 123v-123h-359v274l-54 -18l-12 33q-7 21 -7 37q0 18 21 25l52 17v257h149v-207l52 17l12 -33q7 -21 7 -37q0 -18 -21 -25l-50 -17v-200h210z" />
    <glyph glyph-name="M" unicode="M" horiz-adv-x="803" 
d="M95 625h193l110 -394h7l109 394h193l40 -625h-148l-24 400h-7l-109 -400h-116l-110 400h-6l-24 -400h-148z" />
    <glyph glyph-name="N" unicode="N" horiz-adv-x="668" 
d="M75 625h146l191 -306q14 -23 19 -37.5t6 -29.5h6v373h149v-625h-146l-190 306q-15 23 -20 37t-6 30h-6v-373h-149v625z" />
    <glyph glyph-name="Nacute" unicode="&#x143;" horiz-adv-x="668" 
d="M75 0zM75 625h146l191 -306q14 -23 19 -37.5t6 -29.5h6v373h149v-625h-146l-190 306q-15 23 -20 37t-6 30h-6v-373h-149v625zM240 722l170 124q5 4 10 4q4 0 6.5 -2t6.5 -6l52 -63q8 -9 8 -14q0 -7 -9 -15l-32 -27q-10 -9 -24 -11l-157 -35z" />
    <glyph glyph-name="Ncaron" unicode="&#x147;" horiz-adv-x="668" 
d="M75 0zM75 625h146l191 -306q14 -23 19 -37.5t6 -29.5h6v373h149v-625h-146l-190 306q-15 23 -20 37t-6 30h-6v-373h-149v625zM340 777l88 69l43 -42l-101 -125q-6 -7 -13 -7h-33q-9 0 -13 7l-101 125l42 42z" />
    <glyph glyph-name="Ncommaaccent" unicode="&#x145;" horiz-adv-x="668" 
d="M75 0zM75 625h146l191 -306q14 -23 19 -37.5t6 -29.5h6v373h149v-625h-146l-190 306q-15 23 -20 37t-6 30h-6v-373h-149v625zM287 -291l22 101q-30 4 -43 19t-13 48q0 47 18 65t63 18t62.5 -18t17.5 -65q0 -28 -7 -51t-25 -61l-37 -74z" />
    <glyph glyph-name="Eng" unicode="&#x14a;" horiz-adv-x="668" 
d="M592 0h-4v-36q0 -73 -35.5 -107t-110.5 -34q-56 0 -103 13l7 91q39 0 58.5 5t27 18t7.5 39v22l-183 295q-15 23 -20 37t-6 30h-6v-373h-149v625h146l191 -306q14 -23 19 -37.5t6 -29.5h2v232l4 1v140h149v-625z" />
    <glyph glyph-name="Ntilde" unicode="&#xd1;" horiz-adv-x="668" 
d="M75 0zM75 625h146l191 -306q14 -23 19 -37.5t6 -29.5h6v373h149v-625h-146l-190 306q-15 23 -20 37t-6 30h-6v-373h-149v625zM324.5 687.5q-14.5 8.5 -39.5 35.5l-74 -37l-35 59q75 54 102.5 69.5t44.5 15.5t30.5 -8t40.5 -36l74 37l35 -59q-73 -52 -101 -68.5t-46 -16.5
q-17 0 -31.5 8.5z" />
    <glyph glyph-name="O" unicode="O" horiz-adv-x="648" 
d="M72 514.5q24 69.5 82 97.5t170 28t170 -28t82 -97.5t24 -202.5t-24 -202t-82 -97t-170 -28t-170 28t-82 97t-24 202t24 202.5zM358 112q46 0 64 14t18 49v338h-150q-46 0 -64 -14t-18 -49v-338h150z" />
    <glyph glyph-name="Oacute" unicode="&#xd3;" horiz-adv-x="648" 
d="M48 0zM72 514.5q24 69.5 82 97.5t170 28t170 -28t82 -97.5t24 -202.5t-24 -202t-82 -97t-170 -28t-170 28t-82 97t-24 202t24 202.5zM358 112q46 0 64 14t18 49v338h-150q-46 0 -64 -14t-18 -49v-338h150zM224 722l170 124q5 4 10 4q4 0 6.5 -2t6.5 -6l52 -63q8 -9 8 -14
q0 -7 -9 -15l-32 -27q-10 -9 -24 -11l-157 -35z" />
    <glyph glyph-name="Obreve" unicode="&#x14e;" horiz-adv-x="648" 
d="M48 0zM72 514.5q24 69.5 82 97.5t170 28t170 -28t82 -97.5t24 -202.5t-24 -202t-82 -97t-170 -28t-170 28t-82 97t-24 202t24 202.5zM358 112q46 0 64 14t18 49v338h-150q-46 0 -64 -14t-18 -49v-338h150zM239 714.5q-36 30.5 -49 92.5l80 13q7 -22 21.5 -34t32.5 -12
t33 12t21 34l80 -13q-14 -60 -50 -91.5t-84 -31.5q-49 0 -85 30.5z" />
    <glyph glyph-name="Ocircumflex" unicode="&#xd4;" horiz-adv-x="648" 
d="M48 0zM72 514.5q24 69.5 82 97.5t170 28t170 -28t82 -97.5t24 -202.5t-24 -202t-82 -97t-170 -28t-170 28t-82 97t-24 202t24 202.5zM358 112q46 0 64 14t18 49v338h-150q-46 0 -64 -14t-18 -49v-338h150zM194 713l101 125q5 8 13 8h33q7 0 13 -8l101 -125l-43 -41
l-88 68l-88 -68z" />
    <glyph glyph-name="Odieresis" unicode="&#xd6;" horiz-adv-x="648" 
d="M48 0zM72 514.5q24 69.5 82 97.5t170 28t170 -28t82 -97.5t24 -202.5t-24 -202t-82 -97t-170 -28t-170 28t-82 97t-24 202t24 202.5zM358 112q46 0 64 14t18 49v338h-150q-46 0 -64 -14t-18 -49v-338h150zM171.5 704q-13.5 15 -13.5 54t14 55t54 16t53.5 -16t13.5 -55
t-13.5 -54t-53.5 -15q-41 0 -54.5 15zM367.5 704q-13.5 15 -13.5 54t14 55t54 16t53.5 -16t13.5 -55t-13.5 -54t-53.5 -15q-41 0 -54.5 15z" />
    <glyph glyph-name="Ograve" unicode="&#xd2;" horiz-adv-x="648" 
d="M48 0zM72 514.5q24 69.5 82 97.5t170 28t170 -28t82 -97.5t24 -202.5t-24 -202t-82 -97t-170 -28t-170 28t-82 97t-24 202t24 202.5zM358 112q46 0 64 14t18 49v338h-150q-46 0 -64 -14t-18 -49v-338h150zM262 707q-14 2 -24 11l-32 27q-9 8 -9 14t8 15l53 63q6 8 13 8
q4 0 9 -4l170 -124l-31 -45z" />
    <glyph glyph-name="Ohungarumlaut" unicode="&#x150;" horiz-adv-x="648" 
d="M48 0zM72 514.5q24 69.5 82 97.5t170 28t170 -28t82 -97.5t24 -202.5t-24 -202t-82 -97t-170 -28t-170 28t-82 97t-24 202t24 202.5zM358 112q46 0 64 14t18 49v338h-150q-46 0 -64 -14t-18 -49v-338h150zM110 721l136 122q8 8 12 8q5 0 13 -8l54 -64q6 -7 6 -14
q0 -5 -6 -13l-36 -31q-8 -8 -27 -13l-121 -33zM351 721l136 122q8 8 12 8q5 0 13 -8l54 -64q6 -7 6 -14q0 -5 -6 -13l-36 -31q-8 -8 -27 -13l-121 -33z" />
    <glyph glyph-name="Omacron" unicode="&#x14c;" horiz-adv-x="648" 
d="M48 0zM72 514.5q24 69.5 82 97.5t170 28t170 -28t82 -97.5t24 -202.5t-24 -202t-82 -97t-170 -28t-170 28t-82 97t-24 202t24 202.5zM358 112q46 0 64 14t18 49v338h-150q-46 0 -64 -14t-18 -49v-338h150zM196.5 713q-8.5 11 -8.5 44v49h223q22 0 31.5 -4.5t12.5 -15.5
t3 -34v-50h-221q-32 0 -40.5 11z" />
    <glyph glyph-name="Oslash" unicode="&#xd8;" horiz-adv-x="648" 
d="M575.5 516.5q24.5 -69.5 24.5 -204.5q0 -133 -24 -202t-82 -97t-170 -28q-60 0 -101 7l-17 -40q-7 -17 -16 -22t-27 -5h-41l37 86q-62 28 -86.5 97t-24.5 204q0 133 24 202.5t82 97.5t170 28q60 0 101 -7l17 40q7 16 16 21.5t27 5.5h41l-37 -86q62 -28 86.5 -97.5z
M440 513h-150q-46 0 -64 -14t-18 -49v-338h150q46 0 64 14t18 49v338z" />
    <glyph glyph-name="Oslashacute" unicode="&#x1fe;" horiz-adv-x="648" 
d="M48 0zM575.5 516.5q24.5 -69.5 24.5 -204.5q0 -133 -24 -202t-82 -97t-170 -28q-60 0 -101 7l-17 -40q-7 -17 -16 -22t-27 -5h-41l37 86q-62 28 -86.5 97t-24.5 204q0 133 24 202.5t82 97.5t170 28q60 0 101 -7l17 40q7 16 16 21.5t27 5.5h41l-37 -86q62 -28 86.5 -97.5z
M440 513h-150q-46 0 -64 -14t-18 -49v-338h150q46 0 64 14t18 49v338zM224 722l170 124q5 4 10 4q4 0 6.5 -2t6.5 -6l52 -63q8 -9 8 -14q0 -7 -9 -15l-32 -27q-10 -9 -24 -11l-157 -35z" />
    <glyph glyph-name="Otilde" unicode="&#xd5;" horiz-adv-x="648" 
d="M48 0zM72 514.5q24 69.5 82 97.5t170 28t170 -28t82 -97.5t24 -202.5t-24 -202t-82 -97t-170 -28t-170 28t-82 97t-24 202t24 202.5zM358 112q46 0 64 14t18 49v338h-150q-46 0 -64 -14t-18 -49v-338h150zM308.5 687.5q-14.5 8.5 -39.5 35.5l-74 -37l-35 59
q75 54 102.5 69.5t44.5 15.5t30.5 -8t40.5 -36l74 37l35 -59q-73 -52 -101 -68.5t-46 -16.5q-17 0 -31.5 8.5z" />
    <glyph glyph-name="OE" unicode="&#x152;" horiz-adv-x="887" 
d="M589 123h255v-123h-520q-112 0 -170.5 26.5t-82 92.5t-23.5 193q0 128 24 194t82 92.5t170 26.5h521l-18 -123h-238v-134h219v-111h-219v-134zM440 502h-150q-46 0 -64 -14t-18 -49v-316h150q46 0 64 14t18 49v316z" />
    <glyph glyph-name="P" unicode="P" horiz-adv-x="559" 
d="M219 0h-149v625h265q76 0 120.5 -22t65 -70t20.5 -129q0 -118 -45.5 -171.5t-145.5 -53.5h-131v-179zM331 290q30 0 42 9t12 33v128q0 24 -12 33t-42 9h-112v-212h112z" />
    <glyph glyph-name="Thorn" unicode="&#xde;" horiz-adv-x="559" 
d="M455.5 514q44.5 -22 65 -70t20.5 -129q0 -118 -45.5 -171.5t-145.5 -53.5h-131v-90h-149v625h149v-89h116q76 0 120.5 -22zM385 382q0 24 -12 33t-42 9h-112v-223h112q30 0 42 9t12 33v139z" />
    <glyph glyph-name="Q" unicode="Q" horiz-adv-x="638" 
d="M598 9l-39 -84l-182 60v41l-58 -41q-108 0 -165.5 28.5t-81.5 98t-24 200.5t24 201t81 98.5t166 28.5q108 0 165.5 -28.5t81.5 -98.5t24 -201q0 -103 -15 -163.5t-51 -93.5zM349 112q46 0 63.5 14t17.5 49v338h-142q-45 0 -62.5 -14t-17.5 -49v-338h141z" />
    <glyph glyph-name="R" unicode="R" horiz-adv-x="602" 
d="M413 0l-95 201h-99v-201h-149v625h270q76 0 120.5 -22t65 -70t20.5 -129q0 -69 -19 -113.5t-59 -66.5l107 -224h-162zM219 313h117q30 0 42 9t12 33v105q0 24 -12 33t-42 9h-117v-189z" />
    <glyph glyph-name="Racute" unicode="&#x154;" horiz-adv-x="602" 
d="M70 0zM413 0l-95 201h-99v-201h-149v625h270q76 0 120.5 -22t65 -70t20.5 -129q0 -69 -19 -113.5t-59 -66.5l107 -224h-162zM219 313h117q30 0 42 9t12 33v105q0 24 -12 33t-42 9h-117v-189zM206 722l170 124q5 4 10 4q4 0 6.5 -2t6.5 -6l52 -63q8 -9 8 -14q0 -7 -9 -15
l-32 -27q-10 -9 -24 -11l-157 -35z" />
    <glyph glyph-name="Rcaron" unicode="&#x158;" horiz-adv-x="602" 
d="M70 0zM413 0l-95 201h-99v-201h-149v625h270q76 0 120.5 -22t65 -70t20.5 -129q0 -69 -19 -113.5t-59 -66.5l107 -224h-162zM219 313h117q30 0 42 9t12 33v105q0 24 -12 33t-42 9h-117v-189zM306 777l88 69l43 -42l-101 -125q-6 -7 -13 -7h-33q-9 0 -13 7l-101 125l42 42
z" />
    <glyph glyph-name="Rcommaaccent" unicode="&#x156;" horiz-adv-x="602" 
d="M70 0zM413 0l-95 201h-99v-201h-149v625h270q76 0 120.5 -22t65 -70t20.5 -129q0 -69 -19 -113.5t-59 -66.5l107 -224h-162zM219 313h117q30 0 42 9t12 33v105q0 24 -12 33t-42 9h-117v-189zM254 -291l22 101q-30 4 -43 19t-13 48q0 47 18 65t63 18t62.5 -18t17.5 -65
q0 -28 -7 -51t-25 -61l-37 -74z" />
    <glyph glyph-name="S" unicode="S" horiz-adv-x="547" 
d="M257 110q51 0 97 6v121l-92 8q-85 7 -131.5 26t-66.5 56.5t-20 103.5q0 78 21.5 123t68.5 65.5t129 20.5q111 0 219 -24l-19 -119q-48 10 -87 13.5t-86 3.5q-51 0 -85 -5v-122l92 -7q81 -7 128.5 -28t68.5 -61.5t21 -106.5q0 -72 -25 -115.5t-79 -63.5t-144 -20
q-127 0 -231 30l21 123q95 -28 200 -28z" />
    <glyph glyph-name="Sacute" unicode="&#x15a;" horiz-adv-x="547" 
d="M36 0zM257 110q51 0 97 6v121l-92 8q-85 7 -131.5 26t-66.5 56.5t-20 103.5q0 78 21.5 123t68.5 65.5t129 20.5q111 0 219 -24l-19 -119q-48 10 -87 13.5t-86 3.5q-51 0 -85 -5v-122l92 -7q81 -7 128.5 -28t68.5 -61.5t21 -106.5q0 -72 -25 -115.5t-79 -63.5t-144 -20
q-127 0 -231 30l21 123q95 -28 200 -28zM174 722l170 124q5 4 10 4q4 0 6.5 -2t6.5 -6l52 -63q8 -9 8 -14q0 -7 -9 -15l-32 -27q-10 -9 -24 -11l-157 -35z" />
    <glyph glyph-name="Scaron" unicode="&#x160;" horiz-adv-x="547" 
d="M36 0zM257 110q51 0 97 6v121l-92 8q-85 7 -131.5 26t-66.5 56.5t-20 103.5q0 78 21.5 123t68.5 65.5t129 20.5q111 0 219 -24l-19 -119q-48 10 -87 13.5t-86 3.5q-51 0 -85 -5v-122l92 -7q81 -7 128.5 -28t68.5 -61.5t21 -106.5q0 -72 -25 -115.5t-79 -63.5t-144 -20
q-127 0 -231 30l21 123q95 -28 200 -28zM274 777l88 69l43 -42l-101 -125q-6 -7 -13 -7h-33q-9 0 -13 7l-101 125l42 42z" />
    <glyph glyph-name="Scedilla" unicode="&#x15e;" horiz-adv-x="547" 
d="M470 42q-45 -46 -147 -55q25 -31 25 -73q0 -40 -28 -64.5t-75 -24.5q-46 0 -86 17l9 68h29q26 0 34.5 7.5t8.5 29.5v38q-112 3 -204 30l21 123q95 -28 200 -28q51 0 97 6v121l-92 8q-85 7 -131.5 26t-66.5 56.5t-20 103.5q0 78 21.5 123t68.5 65.5t129 20.5
q111 0 219 -24l-19 -119q-48 10 -87 13.5t-86 3.5q-51 0 -85 -5v-122l92 -7q81 -7 128.5 -28t68.5 -61.5t21 -106.5q0 -96 -45 -142z" />
    <glyph glyph-name="Scircumflex" unicode="&#x15c;" horiz-adv-x="547" 
d="M36 0zM257 110q51 0 97 6v121l-92 8q-85 7 -131.5 26t-66.5 56.5t-20 103.5q0 78 21.5 123t68.5 65.5t129 20.5q111 0 219 -24l-19 -119q-48 10 -87 13.5t-86 3.5q-51 0 -85 -5v-122l92 -7q81 -7 128.5 -28t68.5 -61.5t21 -106.5q0 -72 -25 -115.5t-79 -63.5t-144 -20
q-127 0 -231 30l21 123q95 -28 200 -28zM144 713l101 125q5 8 13 8h33q7 0 13 -8l101 -125l-43 -41l-88 68l-88 -68z" />
    <glyph glyph-name="Scommaaccent" unicode="&#x218;" horiz-adv-x="547" 
d="M36 0zM257 110q51 0 97 6v121l-92 8q-85 7 -131.5 26t-66.5 56.5t-20 103.5q0 78 21.5 123t68.5 65.5t129 20.5q111 0 219 -24l-19 -119q-48 10 -87 13.5t-86 3.5q-51 0 -85 -5v-122l92 -7q81 -7 128.5 -28t68.5 -61.5t21 -106.5q0 -72 -25 -115.5t-79 -63.5t-144 -20
q-127 0 -231 30l21 123q95 -28 200 -28zM227 -291l22 101q-30 4 -43 19t-13 48q0 47 18 65t63 18t62.5 -18t17.5 -65q0 -28 -7 -51t-25 -61l-37 -74z" />
    <glyph glyph-name="T" unicode="T" horiz-adv-x="475" 
d="M312 0h-149v502h-153v123h455v-123h-153v-502z" />
    <glyph glyph-name="Tbar" unicode="&#x166;" horiz-adv-x="475" 
d="M312 502v-162h76v-55q0 -29 -10.5 -39.5t-39.5 -10.5h-26v-235h-149v235h-76v55q0 29 10.5 39.5t39.5 10.5h26v162h-153v123h455v-123h-153z" />
    <glyph glyph-name="Tcaron" unicode="&#x164;" horiz-adv-x="475" 
d="M10 0zM312 0h-149v502h-153v123h455v-123h-153v-502zM237 777l88 69l43 -42l-101 -125q-6 -7 -13 -7h-33q-9 0 -13 7l-101 125l42 42z" />
    <glyph glyph-name="uni0162" unicode="&#x162;" horiz-adv-x="475" 
d="M465 625v-123h-153v-502h-38q17 -17 27 -39.5t10 -46.5q0 -40 -28 -64.5t-75 -24.5q-46 0 -86 17l9 68h29q26 0 34.5 7.5t8.5 29.5v53h-40v502h-153v123h455z" />
    <glyph glyph-name="uni021A" unicode="&#x21a;" horiz-adv-x="475" 
d="M10 0zM312 0h-149v502h-153v123h455v-123h-153v-502zM190 -291l22 101q-30 4 -43 19t-13 48q0 47 18 65t63 18t62.5 -18t17.5 -65q0 -28 -7 -51t-25 -61l-37 -74z" />
    <glyph glyph-name="U" unicode="U" horiz-adv-x="636" 
d="M157 4q-54 19 -75.5 66.5t-21.5 140.5v414h149v-513h113q44 0 65.5 4.5t30 15.5t8.5 33v460h149v-414q0 -92 -22 -140t-76 -67t-160 -19t-160 19z" />
    <glyph glyph-name="Uacute" unicode="&#xda;" horiz-adv-x="636" 
d="M60 0zM157 4q-54 19 -75.5 66.5t-21.5 140.5v414h149v-513h113q44 0 65.5 4.5t30 15.5t8.5 33v460h149v-414q0 -92 -22 -140t-76 -67t-160 -19t-160 19zM219 722l170 124q5 4 10 4q4 0 6.5 -2t6.5 -6l52 -63q8 -9 8 -14q0 -7 -9 -15l-32 -27q-10 -9 -24 -11l-157 -35z
" />
    <glyph glyph-name="Ubreve" unicode="&#x16c;" horiz-adv-x="636" 
d="M60 0zM157 4q-54 19 -75.5 66.5t-21.5 140.5v414h149v-513h113q44 0 65.5 4.5t30 15.5t8.5 33v460h149v-414q0 -92 -22 -140t-76 -67t-160 -19t-160 19zM234 714.5q-36 30.5 -49 92.5l80 13q7 -22 21.5 -34t32.5 -12t33 12t21 34l80 -13q-14 -60 -50 -91.5t-84 -31.5
q-49 0 -85 30.5z" />
    <glyph glyph-name="Ucircumflex" unicode="&#xdb;" horiz-adv-x="636" 
d="M60 0zM157 4q-54 19 -75.5 66.5t-21.5 140.5v414h149v-513h113q44 0 65.5 4.5t30 15.5t8.5 33v460h149v-414q0 -92 -22 -140t-76 -67t-160 -19t-160 19zM189 713l101 125q5 8 13 8h33q7 0 13 -8l101 -125l-43 -41l-88 68l-88 -68z" />
    <glyph glyph-name="Udieresis" unicode="&#xdc;" horiz-adv-x="636" 
d="M60 0zM157 4q-54 19 -75.5 66.5t-21.5 140.5v414h149v-513h113q44 0 65.5 4.5t30 15.5t8.5 33v460h149v-414q0 -92 -22 -140t-76 -67t-160 -19t-160 19zM166.5 704q-13.5 15 -13.5 54t14 55t54 16t53.5 -16t13.5 -55t-13.5 -54t-53.5 -15q-41 0 -54.5 15zM362.5 704
q-13.5 15 -13.5 54t14 55t54 16t53.5 -16t13.5 -55t-13.5 -54t-53.5 -15q-41 0 -54.5 15z" />
    <glyph glyph-name="Ugrave" unicode="&#xd9;" horiz-adv-x="636" 
d="M60 0zM157 4q-54 19 -75.5 66.5t-21.5 140.5v414h149v-513h113q44 0 65.5 4.5t30 15.5t8.5 33v460h149v-414q0 -92 -22 -140t-76 -67t-160 -19t-160 19zM257 707q-14 2 -24 11l-32 27q-9 8 -9 14t8 15l53 63q6 8 13 8q4 0 9 -4l170 -124l-31 -45z" />
    <glyph glyph-name="Uhungarumlaut" unicode="&#x170;" horiz-adv-x="636" 
d="M60 0zM157 4q-54 19 -75.5 66.5t-21.5 140.5v414h149v-513h113q44 0 65.5 4.5t30 15.5t8.5 33v460h149v-414q0 -92 -22 -140t-76 -67t-160 -19t-160 19zM105 721l136 122q8 8 12 8q5 0 13 -8l54 -64q6 -7 6 -14q0 -5 -6 -13l-36 -31q-8 -8 -27 -13l-121 -33zM346 721
l136 122q8 8 12 8q5 0 13 -8l54 -64q6 -7 6 -14q0 -5 -6 -13l-36 -31q-8 -8 -27 -13l-121 -33z" />
    <glyph glyph-name="Umacron" unicode="&#x16a;" horiz-adv-x="636" 
d="M60 0zM157 4q-54 19 -75.5 66.5t-21.5 140.5v414h149v-513h113q44 0 65.5 4.5t30 15.5t8.5 33v460h149v-414q0 -92 -22 -140t-76 -67t-160 -19t-160 19zM191.5 713q-8.5 11 -8.5 44v49h223q22 0 31.5 -4.5t12.5 -15.5t3 -34v-50h-221q-32 0 -40.5 11z" />
    <glyph glyph-name="Uogonek" unicode="&#x172;" horiz-adv-x="636" 
d="M575 625v-414q0 -87 -19 -133.5t-65.5 -67.5t-135.5 -24l-3 -1q-24 -5 -31 -13t-7 -28v-13q0 -17 6.5 -25t22.5 -8h38l11 -65q-46 -20 -88 -20q-43 0 -68.5 24.5t-25.5 66.5q0 51 50 82q-81 5 -123.5 26.5t-59.5 68t-17 130.5v414h149v-513h113q44 0 65.5 4.5t30 15.5
t8.5 33v460h149z" />
    <glyph glyph-name="Uring" unicode="&#x16e;" horiz-adv-x="636" 
d="M60 0zM157 4q-54 19 -75.5 66.5t-21.5 140.5v414h149v-513h113q44 0 65.5 4.5t30 15.5t8.5 33v460h149v-414q0 -92 -22 -140t-76 -67t-160 -19t-160 19zM237 684.5q-25 26.5 -25 80.5t25 80.5t82 26.5t82 -26.5t25 -80.5t-25 -80.5t-82 -26.5t-82 26.5zM315 721
q22 0 32 4.5t10 21.5v62h-34q-24 0 -34.5 -4.5t-10.5 -20.5v-63h37z" />
    <glyph glyph-name="Utilde" unicode="&#x168;" horiz-adv-x="636" 
d="M60 0zM157 4q-54 19 -75.5 66.5t-21.5 140.5v414h149v-513h113q44 0 65.5 4.5t30 15.5t8.5 33v460h149v-414q0 -92 -22 -140t-76 -67t-160 -19t-160 19zM303.5 687.5q-14.5 8.5 -39.5 35.5l-74 -37l-35 59q75 54 102.5 69.5t44.5 15.5t30.5 -8t40.5 -36l74 37l35 -59
q-73 -52 -101 -68.5t-46 -16.5q-17 0 -31.5 8.5z" />
    <glyph glyph-name="V" unicode="V" horiz-adv-x="570" 
d="M157 625l124 -484h9l124 484h149l-163 -625h-229l-163 625h149z" />
    <glyph glyph-name="W" unicode="W" horiz-adv-x="864" 
d="M839 625l-94 -625h-226l-87 449l-87 -449h-226l-94 625h149l70 -484h9l99 484h160l99 -484h9l70 484h149z" />
    <glyph glyph-name="Wacute" unicode="&#x1e82;" horiz-adv-x="864" 
d="M25 0zM839 625l-94 -625h-226l-87 449l-87 -449h-226l-94 625h149l70 -484h9l99 484h160l99 -484h9l70 484h149zM332 722l170 124q5 4 10 4q4 0 6.5 -2t6.5 -6l52 -63q8 -9 8 -14q0 -7 -9 -15l-32 -27q-10 -9 -24 -11l-157 -35z" />
    <glyph glyph-name="Wcircumflex" unicode="&#x174;" horiz-adv-x="864" 
d="M25 0zM839 625l-94 -625h-226l-87 449l-87 -449h-226l-94 625h149l70 -484h9l99 484h160l99 -484h9l70 484h149zM302 713l101 125q5 8 13 8h33q7 0 13 -8l101 -125l-43 -41l-88 68l-88 -68z" />
    <glyph glyph-name="Wdieresis" unicode="&#x1e84;" horiz-adv-x="864" 
d="M25 0zM839 625l-94 -625h-226l-87 449l-87 -449h-226l-94 625h149l70 -484h9l99 484h160l99 -484h9l70 484h149zM279.5 704q-13.5 15 -13.5 54t14 55t54 16t53.5 -16t13.5 -55t-13.5 -54t-53.5 -15q-41 0 -54.5 15zM475.5 704q-13.5 15 -13.5 54t14 55t54 16t53.5 -16
t13.5 -55t-13.5 -54t-53.5 -15q-41 0 -54.5 15z" />
    <glyph glyph-name="Wgrave" unicode="&#x1e80;" horiz-adv-x="864" 
d="M25 0zM839 625l-94 -625h-226l-87 449l-87 -449h-226l-94 625h149l70 -484h9l99 484h160l99 -484h9l70 484h149zM370 707q-14 2 -24 11l-32 27q-9 8 -9 14t8 15l53 63q6 8 13 8q4 0 9 -4l170 -124l-31 -45z" />
    <glyph glyph-name="X" unicode="X" horiz-adv-x="579" 
d="M405 0l-121 194l-114 -194h-162l194 326l-187 299h166l114 -182l107 182h162l-186 -315l193 -310h-166z" />
    <glyph glyph-name="Y" unicode="Y" horiz-adv-x="534" 
d="M527 625l-185 -417v-208h-149v208l-185 417h156l104 -261l103 261h156z" />
    <glyph glyph-name="Yacute" unicode="&#xdd;" horiz-adv-x="534" 
d="M8 0zM527 625l-185 -417v-208h-149v208l-185 417h156l104 -261l103 261h156zM167 722l170 124q5 4 10 4q4 0 6.5 -2t6.5 -6l52 -63q8 -9 8 -14q0 -7 -9 -15l-32 -27q-10 -9 -24 -11l-157 -35z" />
    <glyph glyph-name="Ycircumflex" unicode="&#x176;" horiz-adv-x="534" 
d="M8 0zM527 625l-185 -417v-208h-149v208l-185 417h156l104 -261l103 261h156zM137 713l101 125q5 8 13 8h33q7 0 13 -8l101 -125l-43 -41l-88 68l-88 -68z" />
    <glyph glyph-name="Ydieresis" unicode="&#x178;" horiz-adv-x="534" 
d="M8 0zM527 625l-185 -417v-208h-149v208l-185 417h156l104 -261l103 261h156zM114.5 704q-13.5 15 -13.5 54t14 55t54 16t53.5 -16t13.5 -55t-13.5 -54t-53.5 -15q-41 0 -54.5 15zM310.5 704q-13.5 15 -13.5 54t14 55t54 16t53.5 -16t13.5 -55t-13.5 -54t-53.5 -15
q-41 0 -54.5 15z" />
    <glyph glyph-name="Ygrave" unicode="&#x1ef2;" horiz-adv-x="534" 
d="M8 0zM527 625l-185 -417v-208h-149v208l-185 417h156l104 -261l103 261h156zM205 707q-14 2 -24 11l-32 27q-9 8 -9 14t8 15l53 63q6 8 13 8q4 0 9 -4l170 -124l-31 -45z" />
    <glyph glyph-name="Z" unicode="Z" horiz-adv-x="567" 
d="M30 98l300 398l-3 6h-250l-15 123h472v-98l-298 -398l3 -6h289v-123h-498v98z" />
    <glyph glyph-name="Zacute" unicode="&#x179;" horiz-adv-x="567" 
d="M30 0zM30 98l300 398l-3 6h-250l-15 123h472v-98l-298 -398l3 -6h289v-123h-498v98zM213 722l170 124q5 4 10 4q4 0 6.5 -2t6.5 -6l52 -63q8 -9 8 -14q0 -7 -9 -15l-32 -27q-10 -9 -24 -11l-157 -35z" />
    <glyph glyph-name="Zcaron" unicode="&#x17d;" horiz-adv-x="567" 
d="M30 0zM30 98l300 398l-3 6h-250l-15 123h472v-98l-298 -398l3 -6h289v-123h-498v98zM313 777l88 69l43 -42l-101 -125q-6 -7 -13 -7h-33q-9 0 -13 7l-101 125l42 42z" />
    <glyph glyph-name="Zdotaccent" unicode="&#x17b;" horiz-adv-x="567" 
d="M30 0zM30 98l300 398l-3 6h-250l-15 123h472v-98l-298 -398l3 -6h289v-123h-498v98zM247.5 707q-17.5 17 -17.5 65q0 49 17.5 66.5t66.5 17.5q47 0 64.5 -17.5t17.5 -66.5q0 -48 -17 -65t-65 -17q-49 0 -66.5 17z" />
    <glyph glyph-name="a" unicode="a" horiz-adv-x="555" 
d="M441 475.5q48 -36.5 48 -120.5v-355h-72l-39 50q-74 -62 -174 -62q-87 0 -125.5 37.5t-38.5 121.5q0 67 23 101t81 47.5t174 13.5h22v84q-25 8 -76 8q-86 0 -183 -25l-19 104q47 16 104.5 24t116.5 8q110 0 158 -36.5zM324 103q16 10 16 38v86h-88q-44 0 -59.5 -10.5
t-15.5 -39.5v-84h88q43 0 59 10z" />
    <glyph glyph-name="aacute" unicode="&#xe1;" horiz-adv-x="555" 
d="M40 0zM441 475.5q48 -36.5 48 -120.5v-355h-72l-39 50q-74 -62 -174 -62q-87 0 -125.5 37.5t-38.5 121.5q0 67 23 101t81 47.5t174 13.5h22v84q-25 8 -76 8q-86 0 -183 -25l-19 104q47 16 104.5 24t116.5 8q110 0 158 -36.5zM324 103q16 10 16 38v86h-88
q-44 0 -59.5 -10.5t-15.5 -39.5v-84h88q43 0 59 10zM183 597l170 124q5 4 10 4q4 0 6.5 -2t6.5 -6l52 -63q8 -9 8 -14q0 -7 -9 -15l-32 -27q-10 -9 -24 -11l-157 -35z" />
    <glyph glyph-name="abreve" unicode="&#x103;" horiz-adv-x="555" 
d="M40 0zM441 475.5q48 -36.5 48 -120.5v-355h-72l-39 50q-74 -62 -174 -62q-87 0 -125.5 37.5t-38.5 121.5q0 67 23 101t81 47.5t174 13.5h22v84q-25 8 -76 8q-86 0 -183 -25l-19 104q47 16 104.5 24t116.5 8q110 0 158 -36.5zM324 103q16 10 16 38v86h-88
q-44 0 -59.5 -10.5t-15.5 -39.5v-84h88q43 0 59 10zM198 589.5q-36 30.5 -49 92.5l80 13q7 -22 21.5 -34t32.5 -12t33 12t21 34l80 -13q-14 -60 -50 -91.5t-84 -31.5q-49 0 -85 30.5z" />
    <glyph glyph-name="acircumflex" unicode="&#xe2;" horiz-adv-x="555" 
d="M40 0zM441 475.5q48 -36.5 48 -120.5v-355h-72l-39 50q-74 -62 -174 -62q-87 0 -125.5 37.5t-38.5 121.5q0 67 23 101t81 47.5t174 13.5h22v84q-25 8 -76 8q-86 0 -183 -25l-19 104q47 16 104.5 24t116.5 8q110 0 158 -36.5zM324 103q16 10 16 38v86h-88
q-44 0 -59.5 -10.5t-15.5 -39.5v-84h88q43 0 59 10zM153 588l101 125q5 8 13 8h33q7 0 13 -8l101 -125l-43 -41l-88 68l-88 -68z" />
    <glyph glyph-name="adieresis" unicode="&#xe4;" horiz-adv-x="555" 
d="M40 0zM441 475.5q48 -36.5 48 -120.5v-355h-72l-39 50q-74 -62 -174 -62q-87 0 -125.5 37.5t-38.5 121.5q0 67 23 101t81 47.5t174 13.5h22v84q-25 8 -76 8q-86 0 -183 -25l-19 104q47 16 104.5 24t116.5 8q110 0 158 -36.5zM324 103q16 10 16 38v86h-88
q-44 0 -59.5 -10.5t-15.5 -39.5v-84h88q43 0 59 10zM130.5 579q-13.5 15 -13.5 54t14 55t54 16t53.5 -16t13.5 -55t-13.5 -54t-53.5 -15q-41 0 -54.5 15zM326.5 579q-13.5 15 -13.5 54t14 55t54 16t53.5 -16t13.5 -55t-13.5 -54t-53.5 -15q-41 0 -54.5 15z" />
    <glyph glyph-name="agrave" unicode="&#xe0;" horiz-adv-x="555" 
d="M40 0zM441 475.5q48 -36.5 48 -120.5v-355h-72l-39 50q-74 -62 -174 -62q-87 0 -125.5 37.5t-38.5 121.5q0 67 23 101t81 47.5t174 13.5h22v84q-25 8 -76 8q-86 0 -183 -25l-19 104q47 16 104.5 24t116.5 8q110 0 158 -36.5zM324 103q16 10 16 38v86h-88
q-44 0 -59.5 -10.5t-15.5 -39.5v-84h88q43 0 59 10zM221 582q-14 2 -24 11l-32 27q-9 8 -9 14t8 15l53 63q6 8 13 8q4 0 9 -4l170 -124l-31 -45z" />
    <glyph glyph-name="amacron" unicode="&#x101;" horiz-adv-x="555" 
d="M40 0zM441 475.5q48 -36.5 48 -120.5v-355h-72l-39 50q-74 -62 -174 -62q-87 0 -125.5 37.5t-38.5 121.5q0 67 23 101t81 47.5t174 13.5h22v84q-25 8 -76 8q-86 0 -183 -25l-19 104q47 16 104.5 24t116.5 8q110 0 158 -36.5zM324 103q16 10 16 38v86h-88
q-44 0 -59.5 -10.5t-15.5 -39.5v-84h88q43 0 59 10zM155.5 588q-8.5 11 -8.5 44v49h223q22 0 31.5 -4.5t12.5 -15.5t3 -34v-50h-221q-32 0 -40.5 11z" />
    <glyph glyph-name="aogonek" unicode="&#x105;" horiz-adv-x="555" 
d="M513 -155q-46 -20 -88 -20q-43 0 -68.5 24.5t-25.5 66.5q0 31 20 56t57 40l-30 38q-74 -62 -174 -62q-87 0 -125.5 37.5t-38.5 121.5q0 67 23 101t81 47.5t174 13.5h22v84q-25 8 -76 8q-86 0 -183 -25l-19 104q47 16 104.5 24t116.5 8q110 0 158 -36.5t48 -120.5v-355
l-16 -3q-24 -5 -31 -13t-7 -28v-13q0 -17 6.5 -25t22.5 -8h38zM324 103q16 10 16 38v86h-88q-44 0 -59.5 -10.5t-15.5 -39.5v-84h88q43 0 59 10z" />
    <glyph glyph-name="aring" unicode="&#xe5;" horiz-adv-x="555" 
d="M40 0zM441 475.5q48 -36.5 48 -120.5v-355h-72l-39 50q-74 -62 -174 -62q-87 0 -125.5 37.5t-38.5 121.5q0 67 23 101t81 47.5t174 13.5h22v84q-25 8 -76 8q-86 0 -183 -25l-19 104q47 16 104.5 24t116.5 8q110 0 158 -36.5zM324 103q16 10 16 38v86h-88
q-44 0 -59.5 -10.5t-15.5 -39.5v-84h88q43 0 59 10zM201 559.5q-25 26.5 -25 80.5t25 80.5t82 26.5t82 -26.5t25 -80.5t-25 -80.5t-82 -26.5t-82 26.5zM279 596q22 0 32 4.5t10 21.5v62h-34q-24 0 -34.5 -4.5t-10.5 -20.5v-63h37z" />
    <glyph glyph-name="aringacute" unicode="&#x1fb;" horiz-adv-x="555" 
d="M40 0zM441 475.5q48 -36.5 48 -120.5v-355h-72l-39 50q-74 -62 -174 -62q-87 0 -125.5 37.5t-38.5 121.5q0 67 23 101t81 47.5t174 13.5h22v84q-25 8 -76 8q-86 0 -183 -25l-19 104q47 16 104.5 24t116.5 8q110 0 158 -36.5zM324 103q16 10 16 38v86h-88
q-44 0 -59.5 -10.5t-15.5 -39.5v-84h88q43 0 59 10zM201 559.5q-25 26.5 -25 80.5t25 80.5t82 26.5t82 -26.5t25 -80.5t-25 -80.5t-82 -26.5t-82 26.5zM279 596q22 0 32 4.5t10 21.5v62h-34q-24 0 -34.5 -4.5t-10.5 -20.5v-63h37zM183 824l170 124q5 4 10 4q4 0 6.5 -2
t6.5 -6l52 -63q8 -9 8 -14q0 -7 -9 -15l-32 -27q-10 -9 -24 -11l-157 -35z" />
    <glyph glyph-name="atilde" unicode="&#xe3;" horiz-adv-x="555" 
d="M40 0zM441 475.5q48 -36.5 48 -120.5v-355h-72l-39 50q-74 -62 -174 -62q-87 0 -125.5 37.5t-38.5 121.5q0 67 23 101t81 47.5t174 13.5h22v84q-25 8 -76 8q-86 0 -183 -25l-19 104q47 16 104.5 24t116.5 8q110 0 158 -36.5zM324 103q16 10 16 38v86h-88
q-44 0 -59.5 -10.5t-15.5 -39.5v-84h88q43 0 59 10zM267.5 562.5q-14.5 8.5 -39.5 35.5l-74 -37l-35 59q75 54 102.5 69.5t44.5 15.5t30.5 -8t40.5 -36l74 37l35 -59q-73 -52 -101 -68.5t-46 -16.5q-17 0 -31.5 8.5z" />
    <glyph glyph-name="ae" unicode="&#xe6;" horiz-adv-x="841" 
d="M754 124l19 -104q-94 -32 -213 -32q-67 0 -111 15t-70 48q-73 -63 -175 -63q-87 0 -125.5 37.5t-38.5 121.5q0 67 23 101t81 47.5t174 13.5h22v84q-25 8 -76 8q-86 0 -183 -25l-19 104q47 16 104.5 24t116.5 8q97 0 145 -27q48 27 141 27q86 0 132 -14t65.5 -48t19.5 -97
q0 -67 -24.5 -101t-86.5 -47.5t-185 -13.5v-84q33 -8 89 -8q78 0 175 25zM506 389.5q-16 -10.5 -16 -38.5v-78h85q44 0 60.5 10.5t16.5 39.5v77h-86q-44 0 -60 -10.5zM324 103q16 10 16 38v86h-88q-44 0 -59.5 -10.5t-15.5 -39.5v-84h88q43 0 59 10z" />
    <glyph glyph-name="aeacute" unicode="&#x1fd;" horiz-adv-x="841" 
d="M40 0zM754 124l19 -104q-94 -32 -213 -32q-67 0 -111 15t-70 48q-73 -63 -175 -63q-87 0 -125.5 37.5t-38.5 121.5q0 67 23 101t81 47.5t174 13.5h22v84q-25 8 -76 8q-86 0 -183 -25l-19 104q47 16 104.5 24t116.5 8q97 0 145 -27q48 27 141 27q86 0 132 -14t65.5 -48
t19.5 -97q0 -67 -24.5 -101t-86.5 -47.5t-185 -13.5v-84q33 -8 89 -8q78 0 175 25zM506 389.5q-16 -10.5 -16 -38.5v-78h85q44 0 60.5 10.5t16.5 39.5v77h-86q-44 0 -60 -10.5zM324 103q16 10 16 38v86h-88q-44 0 -59.5 -10.5t-15.5 -39.5v-84h88q43 0 59 10zM321 597
l170 124q5 4 10 4q4 0 6.5 -2t6.5 -6l52 -63q8 -9 8 -14q0 -7 -9 -15l-32 -27q-10 -9 -24 -11l-157 -35z" />
    <glyph glyph-name="b" unicode="b" horiz-adv-x="582" 
d="M456.5 490q42.5 -25 61.5 -82t19 -158q0 -100 -21.5 -156.5t-70.5 -81t-135 -24.5h-1v0q-69 0 -124.5 8t-114.5 27v635l149 13v-177q42 21 120 21q75 0 117.5 -25zM377 400h-115q-25 0 -34 -5.5t-9 -21.5v-270h116q24 0 33 5t9 19v273z" />
    <glyph glyph-name="c" unicode="c" horiz-adv-x="451" 
d="M128 13q-44 25 -63.5 81.5t-19.5 155.5t19.5 155.5t63.5 81.5t121 25q43 0 91 -5.5t75 -13.5l-15 -106q-61 14 -119 14q-43 0 -60.5 -18t-17.5 -61v-215q27 -8 77 -8q64 0 132 25l13 -104q-76 -32 -176 -32q-77 0 -121 25z" />
    <glyph glyph-name="cacute" unicode="&#x107;" horiz-adv-x="451" 
d="M45 0zM128 13q-44 25 -63.5 81.5t-19.5 155.5t19.5 155.5t63.5 81.5t121 25q43 0 91 -5.5t75 -13.5l-15 -106q-61 14 -119 14q-43 0 -60.5 -18t-17.5 -61v-215q27 -8 77 -8q64 0 132 25l13 -104q-76 -32 -176 -32q-77 0 -121 25zM146 597l170 124q5 4 10 4q4 0 6.5 -2
t6.5 -6l52 -63q8 -9 8 -14q0 -7 -9 -15l-32 -27q-10 -9 -24 -11l-157 -35z" />
    <glyph glyph-name="ccaron" unicode="&#x10d;" horiz-adv-x="451" 
d="M45 0zM128 13q-44 25 -63.5 81.5t-19.5 155.5t19.5 155.5t63.5 81.5t121 25q43 0 91 -5.5t75 -13.5l-15 -106q-61 14 -119 14q-43 0 -60.5 -18t-17.5 -61v-215q27 -8 77 -8q64 0 132 25l13 -104q-76 -32 -176 -32q-77 0 -121 25zM246 652l88 69l43 -42l-101 -125
q-6 -7 -13 -7h-33q-9 0 -13 7l-101 125l42 42z" />
    <glyph glyph-name="ccedilla" unicode="&#xe7;" horiz-adv-x="451" 
d="M293 -10q27 -33 27 -76q0 -40 -28 -64.5t-75 -24.5q-46 0 -86 17l9 68h29q26 0 34.5 7.5t8.5 29.5v43q-62 5 -98.5 32.5t-52.5 82t-16 145.5q0 99 19.5 155.5t63.5 81.5t121 25q43 0 91 -5.5t75 -13.5l-15 -106q-61 14 -119 14q-43 0 -60.5 -18t-17.5 -61v-215
q27 -8 77 -8q64 0 132 25l13 -104q-56 -24 -132 -30z" />
    <glyph glyph-name="ccircumflex" unicode="&#x109;" horiz-adv-x="451" 
d="M45 0zM128 13q-44 25 -63.5 81.5t-19.5 155.5t19.5 155.5t63.5 81.5t121 25q43 0 91 -5.5t75 -13.5l-15 -106q-61 14 -119 14q-43 0 -60.5 -18t-17.5 -61v-215q27 -8 77 -8q64 0 132 25l13 -104q-76 -32 -176 -32q-77 0 -121 25zM116 588l101 125q5 8 13 8h33q7 0 13 -8
l101 -125l-43 -41l-88 68l-88 -68z" />
    <glyph glyph-name="cdotaccent" unicode="&#x10b;" horiz-adv-x="451" 
d="M45 0zM128 13q-44 25 -63.5 81.5t-19.5 155.5t19.5 155.5t63.5 81.5t121 25q43 0 91 -5.5t75 -13.5l-15 -106q-61 14 -119 14q-43 0 -60.5 -18t-17.5 -61v-215q27 -8 77 -8q64 0 132 25l13 -104q-76 -32 -176 -32q-77 0 -121 25zM180.5 582q-17.5 17 -17.5 65
q0 49 17.5 66.5t66.5 17.5q47 0 64.5 -17.5t17.5 -66.5q0 -48 -17 -65t-65 -17q-49 0 -66.5 17z" />
    <glyph glyph-name="d" unicode="d" horiz-adv-x="582" 
d="M511 671v-671h-72l-29 45q-24 -32 -62.5 -46t-98.5 -14q-78 0 -121.5 24.5t-63 81.5t-19.5 159q0 99 18.5 155.5t60.5 81.5t115 25q79 0 123 -20v166zM353.5 105.5q8.5 5.5 8.5 21.5v270h-115q-25 0 -34 -5.5t-9 -20.5v-271h116q25 0 33.5 5.5z" />
    <glyph glyph-name="eth" unicode="&#xf0;" horiz-adv-x="574" 
d="M518 568l-42 -14q22 -57 34.5 -116t12.5 -110l1 -1v-92q0 -93 -23 -146.5t-74.5 -77t-140.5 -23.5t-140.5 21.5t-74.5 70.5t-23 135t23 135t74.5 70.5t140.5 21.5h79q-8 36 -21 68l-79 -26l-12 33q-7 21 -7 37q0 18 21 25l39 13q-18 34 -40 64l134 38q24 -33 37 -58
l83 27l12 -33q7 -21 7 -37q0 -18 -21 -25zM365 327h-115q-25 0 -34 -5.5t-9 -20.5v-198h116q25 0 33.5 5.5t8.5 20.5v198z" />
    <glyph glyph-name="dcaron" unicode="&#x10f;" horiz-adv-x="707" 
d="M45 0zM511 671v-671h-72l-29 45q-24 -32 -62.5 -46t-98.5 -14q-78 0 -121.5 24.5t-63 81.5t-19.5 159q0 99 18.5 155.5t60.5 81.5t115 25q79 0 123 -20v166zM353.5 105.5q8.5 5.5 8.5 21.5v270h-115q-25 0 -34 -5.5t-9 -20.5v-271h116q25 0 33.5 5.5zM581 449l22 101
q-30 4 -43 19t-13 48q0 47 18 65t63 18t62.5 -18t17.5 -65q0 -28 -7 -51t-25 -61l-37 -74z" />
    <glyph glyph-name="dcroat" unicode="&#x111;" horiz-adv-x="582" 
d="M573 615v-30q0 -16 -9.5 -21.5t-35.5 -5.5h-17v-558h-72l-29 45q-24 -32 -62.5 -46t-98.5 -14q-78 0 -121.5 24.5t-63 81.5t-19.5 159q0 99 18.5 155.5t60.5 81.5t115 25q79 0 123 -20v66h-60v30q0 16 9.5 21.5t35.5 5.5h15v43l149 13v-56h62zM353.5 105.5
q8.5 5.5 8.5 21.5v270h-115q-25 0 -34 -5.5t-9 -20.5v-271h116q25 0 33.5 5.5z" />
    <glyph glyph-name="e" unicode="e" horiz-adv-x="555" 
d="M468 124l19 -104q-91 -32 -213 -32q-85 0 -134.5 25t-72 82t-22.5 155q0 96 23.5 153t75 83t138.5 26q86 0 132.5 -14t66 -48t19.5 -97q0 -67 -24.5 -101t-86.5 -47.5t-185 -13.5v-84q31 -8 89 -8q76 0 175 25zM220 389.5q-16 -10.5 -16 -38.5v-78h85q44 0 60.5 10.5
t16.5 39.5v77h-86q-44 0 -60 -10.5z" />
    <glyph glyph-name="eacute" unicode="&#xe9;" horiz-adv-x="555" 
d="M45 0zM468 124l19 -104q-91 -32 -213 -32q-85 0 -134.5 25t-72 82t-22.5 155q0 96 23.5 153t75 83t138.5 26q86 0 132.5 -14t66 -48t19.5 -97q0 -67 -24.5 -101t-86.5 -47.5t-185 -13.5v-84q31 -8 89 -8q76 0 175 25zM220 389.5q-16 -10.5 -16 -38.5v-78h85
q44 0 60.5 10.5t16.5 39.5v77h-86q-44 0 -60 -10.5zM183 597l170 124q5 4 10 4q4 0 6.5 -2t6.5 -6l52 -63q8 -9 8 -14q0 -7 -9 -15l-32 -27q-10 -9 -24 -11l-157 -35z" />
    <glyph glyph-name="ebreve" unicode="&#x115;" horiz-adv-x="555" 
d="M45 0zM468 124l19 -104q-91 -32 -213 -32q-85 0 -134.5 25t-72 82t-22.5 155q0 96 23.5 153t75 83t138.5 26q86 0 132.5 -14t66 -48t19.5 -97q0 -67 -24.5 -101t-86.5 -47.5t-185 -13.5v-84q31 -8 89 -8q76 0 175 25zM220 389.5q-16 -10.5 -16 -38.5v-78h85
q44 0 60.5 10.5t16.5 39.5v77h-86q-44 0 -60 -10.5zM198 589.5q-36 30.5 -49 92.5l80 13q7 -22 21.5 -34t32.5 -12t33 12t21 34l80 -13q-14 -60 -50 -91.5t-84 -31.5q-49 0 -85 30.5z" />
    <glyph glyph-name="ecaron" unicode="&#x11b;" horiz-adv-x="555" 
d="M45 0zM468 124l19 -104q-91 -32 -213 -32q-85 0 -134.5 25t-72 82t-22.5 155q0 96 23.5 153t75 83t138.5 26q86 0 132.5 -14t66 -48t19.5 -97q0 -67 -24.5 -101t-86.5 -47.5t-185 -13.5v-84q31 -8 89 -8q76 0 175 25zM220 389.5q-16 -10.5 -16 -38.5v-78h85
q44 0 60.5 10.5t16.5 39.5v77h-86q-44 0 -60 -10.5zM283 652l88 69l43 -42l-101 -125q-6 -7 -13 -7h-33q-9 0 -13 7l-101 125l42 42z" />
    <glyph glyph-name="ecircumflex" unicode="&#xea;" horiz-adv-x="555" 
d="M45 0zM468 124l19 -104q-91 -32 -213 -32q-85 0 -134.5 25t-72 82t-22.5 155q0 96 23.5 153t75 83t138.5 26q86 0 132.5 -14t66 -48t19.5 -97q0 -67 -24.5 -101t-86.5 -47.5t-185 -13.5v-84q31 -8 89 -8q76 0 175 25zM220 389.5q-16 -10.5 -16 -38.5v-78h85
q44 0 60.5 10.5t16.5 39.5v77h-86q-44 0 -60 -10.5zM153 588l101 125q5 8 13 8h33q7 0 13 -8l101 -125l-43 -41l-88 68l-88 -68z" />
    <glyph glyph-name="edieresis" unicode="&#xeb;" horiz-adv-x="555" 
d="M45 0zM468 124l19 -104q-91 -32 -213 -32q-85 0 -134.5 25t-72 82t-22.5 155q0 96 23.5 153t75 83t138.5 26q86 0 132.5 -14t66 -48t19.5 -97q0 -67 -24.5 -101t-86.5 -47.5t-185 -13.5v-84q31 -8 89 -8q76 0 175 25zM220 389.5q-16 -10.5 -16 -38.5v-78h85
q44 0 60.5 10.5t16.5 39.5v77h-86q-44 0 -60 -10.5zM130.5 579q-13.5 15 -13.5 54t14 55t54 16t53.5 -16t13.5 -55t-13.5 -54t-53.5 -15q-41 0 -54.5 15zM326.5 579q-13.5 15 -13.5 54t14 55t54 16t53.5 -16t13.5 -55t-13.5 -54t-53.5 -15q-41 0 -54.5 15z" />
    <glyph glyph-name="edotaccent" unicode="&#x117;" horiz-adv-x="555" 
d="M45 0zM468 124l19 -104q-91 -32 -213 -32q-85 0 -134.5 25t-72 82t-22.5 155q0 96 23.5 153t75 83t138.5 26q86 0 132.5 -14t66 -48t19.5 -97q0 -67 -24.5 -101t-86.5 -47.5t-185 -13.5v-84q31 -8 89 -8q76 0 175 25zM220 389.5q-16 -10.5 -16 -38.5v-78h85
q44 0 60.5 10.5t16.5 39.5v77h-86q-44 0 -60 -10.5zM217.5 582q-17.5 17 -17.5 65q0 49 17.5 66.5t66.5 17.5q47 0 64.5 -17.5t17.5 -66.5q0 -48 -17 -65t-65 -17q-49 0 -66.5 17z" />
    <glyph glyph-name="egrave" unicode="&#xe8;" horiz-adv-x="555" 
d="M45 0zM468 124l19 -104q-91 -32 -213 -32q-85 0 -134.5 25t-72 82t-22.5 155q0 96 23.5 153t75 83t138.5 26q86 0 132.5 -14t66 -48t19.5 -97q0 -67 -24.5 -101t-86.5 -47.5t-185 -13.5v-84q31 -8 89 -8q76 0 175 25zM220 389.5q-16 -10.5 -16 -38.5v-78h85
q44 0 60.5 10.5t16.5 39.5v77h-86q-44 0 -60 -10.5zM221 582q-14 2 -24 11l-32 27q-9 8 -9 14t8 15l53 63q6 8 13 8q4 0 9 -4l170 -124l-31 -45z" />
    <glyph glyph-name="emacron" unicode="&#x113;" horiz-adv-x="555" 
d="M45 0zM468 124l19 -104q-91 -32 -213 -32q-85 0 -134.5 25t-72 82t-22.5 155q0 96 23.5 153t75 83t138.5 26q86 0 132.5 -14t66 -48t19.5 -97q0 -67 -24.5 -101t-86.5 -47.5t-185 -13.5v-84q31 -8 89 -8q76 0 175 25zM220 389.5q-16 -10.5 -16 -38.5v-78h85
q44 0 60.5 10.5t16.5 39.5v77h-86q-44 0 -60 -10.5zM155.5 588q-8.5 11 -8.5 44v49h223q22 0 31.5 -4.5t12.5 -15.5t3 -34v-50h-221q-32 0 -40.5 11z" />
    <glyph glyph-name="eogonek" unicode="&#x119;" horiz-adv-x="555" 
d="M511 -135q-46 -20 -88 -20q-43 0 -68.5 24.5t-25.5 66.5q0 30 19 55q-36 -3 -74 -3q-85 0 -134.5 25t-72 82t-22.5 155q0 96 23.5 153t75 83t138.5 26q86 0 132.5 -14t66 -48t19.5 -97q0 -67 -24.5 -101t-86.5 -47.5t-185 -13.5v-84q31 -8 89 -8q76 0 175 25l19 -104
q-17 -6 -43 -13q-6 -4 -8.5 -11t-2.5 -20v-13q0 -17 6.5 -25t22.5 -8h38zM220 389.5q-16 -10.5 -16 -38.5v-78h85q44 0 60.5 10.5t16.5 39.5v77h-86q-44 0 -60 -10.5z" />
    <glyph glyph-name="f" unicode="f" horiz-adv-x="345" 
d="M249 578v-78h70v-98h-70v-402h-149v402h-60v98h60q4 68 19 105.5t46 53.5t86 16q48 0 101 -10l-8 -96z" />
    <glyph glyph-name="g" unicode="g" horiz-adv-x="527" 
d="M404 73.5q40 -13.5 56 -37t16 -66.5q0 -75 -50 -107.5t-164 -32.5q-122 0 -218 32l18 106q94 -25 171 -25q60 0 109 9v55q-98 7 -140 17.5t-42 28.5l29 95q-82 10 -118 53t-36 129q0 67 21.5 107.5t69 59t126.5 18.5q64 0 108 -12l79 61l72 -70l-56 -70q15 -37 15 -94
q0 -93 -42 -135.5t-139 -48.5l-4 -49q79 -10 119 -23.5zM179 228h94q30 0 42 10.5t12 36.5v156h-95q-30 0 -41.5 -10t-11.5 -37v-156z" />
    <glyph glyph-name="gbreve" unicode="&#x11f;" horiz-adv-x="527" 
d="M35 0zM404 73.5q40 -13.5 56 -37t16 -66.5q0 -75 -50 -107.5t-164 -32.5q-122 0 -218 32l18 106q94 -25 171 -25q60 0 109 9v55q-98 7 -140 17.5t-42 28.5l29 95q-82 10 -118 53t-36 129q0 67 21.5 107.5t69 59t126.5 18.5q64 0 108 -12l79 61l72 -70l-56 -70
q15 -37 15 -94q0 -93 -42 -135.5t-139 -48.5l-4 -49q79 -10 119 -23.5zM179 228h94q30 0 42 10.5t12 36.5v156h-95q-30 0 -41.5 -10t-11.5 -37v-156zM178 589.5q-36 30.5 -49 92.5l80 13q7 -22 21.5 -34t32.5 -12t33 12t21 34l80 -13q-14 -60 -50 -91.5t-84 -31.5
q-49 0 -85 30.5z" />
    <glyph glyph-name="gcircumflex" unicode="&#x11d;" horiz-adv-x="527" 
d="M35 0zM404 73.5q40 -13.5 56 -37t16 -66.5q0 -75 -50 -107.5t-164 -32.5q-122 0 -218 32l18 106q94 -25 171 -25q60 0 109 9v55q-98 7 -140 17.5t-42 28.5l29 95q-82 10 -118 53t-36 129q0 67 21.5 107.5t69 59t126.5 18.5q64 0 108 -12l79 61l72 -70l-56 -70
q15 -37 15 -94q0 -93 -42 -135.5t-139 -48.5l-4 -49q79 -10 119 -23.5zM179 228h94q30 0 42 10.5t12 36.5v156h-95q-30 0 -41.5 -10t-11.5 -37v-156zM133 588l101 125q5 8 13 8h33q7 0 13 -8l101 -125l-43 -41l-88 68l-88 -68z" />
    <glyph glyph-name="gcommaaccent" unicode="&#x123;" horiz-adv-x="527" 
d="M35 0zM404 73.5q40 -13.5 56 -37t16 -66.5q0 -75 -50 -107.5t-164 -32.5q-122 0 -218 32l18 106q94 -25 171 -25q60 0 109 9v55q-98 7 -140 17.5t-42 28.5l29 95q-82 10 -118 53t-36 129q0 67 21.5 107.5t69 59t126.5 18.5q64 0 108 -12l79 61l72 -70l-56 -70
q15 -37 15 -94q0 -93 -42 -135.5t-139 -48.5l-4 -49q79 -10 119 -23.5zM179 228h94q30 0 42 10.5t12 36.5v156h-95q-30 0 -41.5 -10t-11.5 -37v-156zM310 805l-22 -100q31 -5 43.5 -19.5t12.5 -48.5q0 -47 -18 -65t-63 -18t-62.5 18t-17.5 65q0 28 7 51t25 61l37 74z" />
    <glyph glyph-name="gdotaccent" unicode="&#x121;" horiz-adv-x="527" 
d="M35 0zM404 73.5q40 -13.5 56 -37t16 -66.5q0 -75 -50 -107.5t-164 -32.5q-122 0 -218 32l18 106q94 -25 171 -25q60 0 109 9v55q-98 7 -140 17.5t-42 28.5l29 95q-82 10 -118 53t-36 129q0 67 21.5 107.5t69 59t126.5 18.5q64 0 108 -12l79 61l72 -70l-56 -70
q15 -37 15 -94q0 -93 -42 -135.5t-139 -48.5l-4 -49q79 -10 119 -23.5zM179 228h94q30 0 42 10.5t12 36.5v156h-95q-30 0 -41.5 -10t-11.5 -37v-156zM197.5 582q-17.5 17 -17.5 65q0 49 17.5 66.5t66.5 17.5q47 0 64.5 -17.5t17.5 -66.5q0 -48 -17 -65t-65 -17
q-49 0 -66.5 17z" />
    <glyph glyph-name="h" unicode="h" horiz-adv-x="585" 
d="M70 654l146 11v-191q63 38 158 38q70 0 108 -25.5t38 -73.5v-413h-149v390h-75q-44 0 -60.5 -10.5t-16.5 -39.5v-340h-149v654z" />
    <glyph glyph-name="hbar" unicode="&#x127;" horiz-adv-x="585" 
d="M482 486.5q38 -25.5 38 -73.5v-413h-149v390h-75q-44 0 -60.5 -10.5t-16.5 -39.5v-340h-149v542h-60v30q0 16 9.5 21.5t35.5 5.5h15v55l146 11v-66h65v-30q0 -16 -9.5 -21.5t-35.5 -5.5h-20v-68q63 38 158 38q70 0 108 -25.5z" />
    <glyph glyph-name="hcircumflex" unicode="&#x125;" horiz-adv-x="585" 
d="M15 0zM70 654l146 11v-191q63 38 158 38q70 0 108 -25.5t38 -73.5v-413h-149v390h-75q-44 0 -60.5 -10.5t-16.5 -39.5v-340h-149v654zM15 723l101 125q5 8 13 8h33q7 0 13 -8l101 -125l-43 -41l-88 68l-88 -68z" />
    <glyph glyph-name="i" unicode="i" horiz-adv-x="290" 
d="M62 0zM219 504v-504h-149v484zM79.5 582q-17.5 17 -17.5 65q0 49 17.5 66.5t66.5 17.5q47 0 64.5 -17.5t17.5 -66.5q0 -48 -17 -65t-65 -17q-49 0 -66.5 17z" />
    <glyph glyph-name="dotlessi" unicode="&#x131;" horiz-adv-x="290" 
d="M219 504v-504h-149v484z" />
    <glyph glyph-name="iacute" unicode="&#xed;" horiz-adv-x="290" 
d="M45 0zM219 504v-504h-149v484zM45 597l170 124q5 4 10 4q4 0 6.5 -2t6.5 -6l52 -63q8 -9 8 -14q0 -7 -9 -15l-32 -27q-10 -9 -24 -11l-157 -35z" />
    <glyph glyph-name="ibreve" unicode="&#x12d;" horiz-adv-x="290" 
d="M11 0zM219 504v-504h-149v484zM60 589.5q-36 30.5 -49 92.5l80 13q7 -22 21.5 -34t32.5 -12t33 12t21 34l80 -13q-14 -60 -50 -91.5t-84 -31.5q-49 0 -85 30.5z" />
    <glyph glyph-name="icircumflex" unicode="&#xee;" horiz-adv-x="290" 
d="M15 0zM219 504v-504h-149v484zM15 588l101 125q5 8 13 8h33q7 0 13 -8l101 -125l-43 -41l-88 68l-88 -68z" />
    <glyph glyph-name="idieresis" unicode="&#xef;" horiz-adv-x="290" 
d="M0 0zM219 504v-504h-149v484zM-7.5 579q-13.5 15 -13.5 54t14 55t54 16t53.5 -16t13.5 -55t-13.5 -54t-53.5 -15q-41 0 -54.5 15zM188.5 579q-13.5 15 -13.5 54t14 55t54 16t53.5 -16t13.5 -55t-13.5 -54t-53.5 -15q-41 0 -54.5 15z" />
    <glyph glyph-name="i.loclTRK" horiz-adv-x="290" 
d="M62 0zM219 504v-504h-149v484zM79.5 582q-17.5 17 -17.5 65q0 49 17.5 66.5t66.5 17.5q47 0 64.5 -17.5t17.5 -66.5q0 -48 -17 -65t-65 -17q-49 0 -66.5 17z" />
    <glyph glyph-name="igrave" unicode="&#xec;" horiz-adv-x="290" 
d="M18 0zM219 504v-504h-149v484zM83 582q-14 2 -24 11l-32 27q-9 8 -9 14t8 15l53 63q6 8 13 8q4 0 9 -4l170 -124l-31 -45z" />
    <glyph glyph-name="ij" unicode="&#x133;" horiz-adv-x="580" 
d="M62 0zM219 504v-504h-149v484zM79.5 582q-17.5 17 -17.5 65q0 49 17.5 66.5t66.5 17.5q47 0 64.5 -17.5t17.5 -66.5q0 -48 -17 -65t-65 -17q-49 0 -66.5 17zM261 -164l7 91q39 0 58.5 5t27 18t7.5 39v495l149 20v-540q0 -73 -35.5 -107t-110.5 -34q-56 0 -103 13z
M369.5 582q-17.5 17 -17.5 65q0 49 17.5 66.5t66.5 17.5q47 0 64.5 -17.5t17.5 -66.5q0 -48 -17 -65t-65 -17q-49 0 -66.5 17z" />
    <glyph glyph-name="imacron" unicode="&#x12b;" horiz-adv-x="290" 
d="M9 0zM219 504v-504h-149v484zM17.5 588q-8.5 11 -8.5 44v49h223q22 0 31.5 -4.5t12.5 -15.5t3 -34v-50h-221q-32 0 -40.5 11z" />
    <glyph glyph-name="iogonek" unicode="&#x12f;" horiz-adv-x="290" 
d="M79.5 582q-17.5 17 -17.5 65q0 49 17.5 66.5t66.5 17.5q47 0 64.5 -17.5t17.5 -66.5q0 -48 -17 -65t-65 -17q-49 0 -66.5 17zM243 -155q-46 -20 -88 -20q-43 0 -68.5 24.5t-25.5 66.5q0 53 53 84h-44v484l149 20v-504l-16 -3q-24 -5 -31 -13t-7 -28v-13q0 -17 6.5 -25
t22.5 -8h38z" />
    <glyph glyph-name="itilde" unicode="&#x129;" horiz-adv-x="290" 
d="M0 0zM219 504v-504h-149v484zM129.5 562.5q-14.5 8.5 -39.5 35.5l-74 -37l-35 59q75 54 102.5 69.5t44.5 15.5t30.5 -8t40.5 -36l74 37l35 -59q-73 -52 -101 -68.5t-46 -16.5q-17 0 -31.5 8.5z" />
    <glyph glyph-name="j" unicode="j" horiz-adv-x="290" 
d="M0 0zM-29 -164l7 91q39 0 58.5 5t27 18t7.5 39v495l149 20v-540q0 -73 -35.5 -107t-110.5 -34q-56 0 -103 13zM79.5 582q-17.5 17 -17.5 65q0 49 17.5 66.5t66.5 17.5q47 0 64.5 -17.5t17.5 -66.5q0 -48 -17 -65t-65 -17q-49 0 -66.5 17z" />
    <glyph glyph-name="uni0237" unicode="&#x237;" horiz-adv-x="290" 
d="M-29 -164l7 91q39 0 58.5 5t27 18t7.5 39v495l149 20v-540q0 -73 -35.5 -107t-110.5 -34q-56 0 -103 13z" />
    <glyph glyph-name="jcircumflex" unicode="&#x135;" horiz-adv-x="290" 
d="M0 0zM-29 -164l7 91q39 0 58.5 5t27 18t7.5 39v495l149 20v-540q0 -73 -35.5 -107t-110.5 -34q-56 0 -103 13zM15 588l101 125q5 8 13 8h33q7 0 13 -8l101 -125l-43 -41l-88 68l-88 -68z" />
    <glyph glyph-name="k" unicode="k" horiz-adv-x="534" 
d="M219 220v-220h-149v650l149 15v-351h56l89 186h157l-122 -235l127 -265h-155l-95 220h-57z" />
    <glyph glyph-name="kcommaaccent" unicode="&#x137;" horiz-adv-x="534" 
d="M70 0zM219 220v-220h-149v650l149 15v-351h56l89 186h157l-122 -235l127 -265h-155l-95 220h-57zM231 -291l22 101q-30 4 -43 19t-13 48q0 47 18 65t63 18t62.5 -18t17.5 -65q0 -28 -7 -51t-25 -61l-37 -74z" />
    <glyph glyph-name="kgreenlandic" unicode="&#x138;" horiz-adv-x="544" 
d="M219 205v-205h-149v500h149v-201h66l89 201h157l-122 -250l127 -250h-155l-95 205h-67z" />
    <glyph glyph-name="l" unicode="l" horiz-adv-x="290" 
d="M264 102l-7 -101q-48 -13 -88 -13q-52 0 -76.5 22t-24.5 69v571l149 15v-557q23 -4 47 -6z" />
    <glyph glyph-name="lacute" unicode="&#x13a;" horiz-adv-x="290" 
d="M42 0zM264 102l-7 -101q-48 -13 -88 -13q-52 0 -76.5 22t-24.5 69v571l149 15v-557q23 -4 47 -6zM42 732l170 124q5 4 10 4q4 0 6.5 -2t6.5 -6l52 -63q8 -9 8 -14q0 -7 -9 -15l-32 -27q-10 -9 -24 -11l-157 -35z" />
    <glyph glyph-name="lcaron" unicode="&#x13e;" horiz-adv-x="381" 
d="M68 0zM264 102l-7 -101q-48 -13 -88 -13q-52 0 -76.5 22t-24.5 69v571l149 15v-557q23 -4 47 -6zM284 449l22 101q-30 4 -43 19t-13 48q0 47 18 65t63 18t62.5 -18t17.5 -65q0 -28 -7 -51t-25 -61l-37 -74z" />
    <glyph glyph-name="lcommaaccent" unicode="&#x13c;" horiz-adv-x="290" 
d="M61 0zM264 102l-7 -101q-48 -13 -88 -13q-52 0 -76.5 22t-24.5 69v571l149 15v-557q23 -4 47 -6zM95 -291l22 101q-30 4 -43 19t-13 48q0 47 18 65t63 18t62.5 -18t17.5 -65q0 -28 -7 -51t-25 -61l-37 -74z" />
    <glyph glyph-name="ldot" unicode="&#x140;" horiz-adv-x="419" 
d="M68 0zM264 102l-7 -101q-48 -13 -88 -13q-52 0 -76.5 22t-24.5 69v571l149 15v-557q23 -4 47 -6zM278.5 407.5q17.5 19.5 69.5 19.5q51 0 68.5 -19.5t17.5 -68.5q0 -48 -17.5 -67t-68.5 -19q-52 0 -69.5 19t-17.5 67q0 49 17.5 68.5z" />
    <glyph glyph-name="lslash" unicode="&#x142;" horiz-adv-x="290" 
d="M287 350q0 -18 -21 -25l-49 -16v-201q23 -4 47 -6l-7 -101q-48 -13 -88 -13q-52 0 -76.5 22t-24.5 69v180l-55 -18l-12 33q-7 21 -7 37q0 18 21 25l53 18v296l149 15v-262l51 17l12 -33q7 -21 7 -37z" />
    <glyph glyph-name="m" unicode="m" horiz-adv-x="865" 
d="M762.5 486.5q37.5 -25.5 37.5 -73.5v-413h-149v390h-79q-30 0 -44.5 -7t-17.5 -24v-359h-149v390h-80q-35 0 -48.5 -9.5t-13.5 -34.5v-346h-149v500h72l39 -50q80 62 183 62q95 0 130 -46q72 46 160 46q71 0 108.5 -25.5z" />
    <glyph glyph-name="n" unicode="n" horiz-adv-x="585" 
d="M70 500h72l39 -50q80 62 193 62q70 0 108 -25.5t38 -73.5v-413h-149v390h-90q-35 0 -48.5 -9.5t-13.5 -34.5v-346h-149v500z" />
    <glyph glyph-name="nacute" unicode="&#x144;" horiz-adv-x="585" 
d="M70 0zM70 500h72l39 -50q80 62 193 62q70 0 108 -25.5t38 -73.5v-413h-149v390h-90q-35 0 -48.5 -9.5t-13.5 -34.5v-346h-149v500zM203 597l170 124q5 4 10 4q4 0 6.5 -2t6.5 -6l52 -63q8 -9 8 -14q0 -7 -9 -15l-32 -27q-10 -9 -24 -11l-157 -35z" />
    <glyph glyph-name="ncaron" unicode="&#x148;" horiz-adv-x="585" 
d="M70 0zM70 500h72l39 -50q80 62 193 62q70 0 108 -25.5t38 -73.5v-413h-149v390h-90q-35 0 -48.5 -9.5t-13.5 -34.5v-346h-149v500zM303 652l88 69l43 -42l-101 -125q-6 -7 -13 -7h-33q-9 0 -13 7l-101 125l42 42z" />
    <glyph glyph-name="ncommaaccent" unicode="&#x146;" horiz-adv-x="585" 
d="M70 0zM70 500h72l39 -50q80 62 193 62q70 0 108 -25.5t38 -73.5v-413h-149v390h-90q-35 0 -48.5 -9.5t-13.5 -34.5v-346h-149v500zM246 -291l22 101q-30 4 -43 19t-13 48q0 47 18 65t63 18t62.5 -18t17.5 -65q0 -28 -7 -51t-25 -61l-37 -74z" />
    <glyph glyph-name="eng" unicode="&#x14b;" horiz-adv-x="585" 
d="M482 486.5q38 -25.5 38 -73.5v-449q0 -73 -35.5 -107t-110.5 -34q-53 0 -103 13l7 73q40 1 59 6t26.5 18t7.5 39v418h-90q-35 0 -48.5 -9.5t-13.5 -34.5v-346h-149v500h72l39 -50q80 62 193 62q70 0 108 -25.5z" />
    <glyph glyph-name="ntilde" unicode="&#xf1;" horiz-adv-x="585" 
d="M70 0zM70 500h72l39 -50q80 62 193 62q70 0 108 -25.5t38 -73.5v-413h-149v390h-90q-35 0 -48.5 -9.5t-13.5 -34.5v-346h-149v500zM287.5 562.5q-14.5 8.5 -39.5 35.5l-74 -37l-35 59q75 54 102.5 69.5t44.5 15.5t30.5 -8t40.5 -36l74 37l35 -59q-73 -52 -101 -68.5
t-46 -16.5q-17 0 -31.5 8.5z" />
    <glyph glyph-name="o" unicode="o" horiz-adv-x="572" 
d="M143 13q-52 25 -75 81.5t-23 155.5t23 155.5t75 81.5t143 25t142.5 -24.5t74.5 -81t23 -156.5q0 -99 -23 -155.5t-75 -81.5t-142 -25q-91 0 -143 25zM325 103q25 0 34 5.5t9 20.5v268h-120q-25 0 -34.5 -5.5t-9.5 -20.5v-268h121z" />
    <glyph glyph-name="oacute" unicode="&#xf3;" horiz-adv-x="572" 
d="M45 0zM143 13q-52 25 -75 81.5t-23 155.5t23 155.5t75 81.5t143 25t142.5 -24.5t74.5 -81t23 -156.5q0 -99 -23 -155.5t-75 -81.5t-142 -25q-91 0 -143 25zM325 103q25 0 34 5.5t9 20.5v268h-120q-25 0 -34.5 -5.5t-9.5 -20.5v-268h121zM186 597l170 124q5 4 10 4
q4 0 6.5 -2t6.5 -6l52 -63q8 -9 8 -14q0 -7 -9 -15l-32 -27q-10 -9 -24 -11l-157 -35z" />
    <glyph glyph-name="obreve" unicode="&#x14f;" horiz-adv-x="572" 
d="M45 0zM143 13q-52 25 -75 81.5t-23 155.5t23 155.5t75 81.5t143 25t142.5 -24.5t74.5 -81t23 -156.5q0 -99 -23 -155.5t-75 -81.5t-142 -25q-91 0 -143 25zM325 103q25 0 34 5.5t9 20.5v268h-120q-25 0 -34.5 -5.5t-9.5 -20.5v-268h121zM201 589.5q-36 30.5 -49 92.5
l80 13q7 -22 21.5 -34t32.5 -12t33 12t21 34l80 -13q-14 -60 -50 -91.5t-84 -31.5q-49 0 -85 30.5z" />
    <glyph glyph-name="ocircumflex" unicode="&#xf4;" horiz-adv-x="572" 
d="M45 0zM143 13q-52 25 -75 81.5t-23 155.5t23 155.5t75 81.5t143 25t142.5 -24.5t74.5 -81t23 -156.5q0 -99 -23 -155.5t-75 -81.5t-142 -25q-91 0 -143 25zM325 103q25 0 34 5.5t9 20.5v268h-120q-25 0 -34.5 -5.5t-9.5 -20.5v-268h121zM156 588l101 125q5 8 13 8h33
q7 0 13 -8l101 -125l-43 -41l-88 68l-88 -68z" />
    <glyph glyph-name="odieresis" unicode="&#xf6;" horiz-adv-x="572" 
d="M45 0zM143 13q-52 25 -75 81.5t-23 155.5t23 155.5t75 81.5t143 25t142.5 -24.5t74.5 -81t23 -156.5q0 -99 -23 -155.5t-75 -81.5t-142 -25q-91 0 -143 25zM325 103q25 0 34 5.5t9 20.5v268h-120q-25 0 -34.5 -5.5t-9.5 -20.5v-268h121zM133.5 579q-13.5 15 -13.5 54
t14 55t54 16t53.5 -16t13.5 -55t-13.5 -54t-53.5 -15q-41 0 -54.5 15zM329.5 579q-13.5 15 -13.5 54t14 55t54 16t53.5 -16t13.5 -55t-13.5 -54t-53.5 -15q-41 0 -54.5 15z" />
    <glyph glyph-name="ograve" unicode="&#xf2;" horiz-adv-x="572" 
d="M45 0zM143 13q-52 25 -75 81.5t-23 155.5t23 155.5t75 81.5t143 25t142.5 -24.5t74.5 -81t23 -156.5q0 -99 -23 -155.5t-75 -81.5t-142 -25q-91 0 -143 25zM325 103q25 0 34 5.5t9 20.5v268h-120q-25 0 -34.5 -5.5t-9.5 -20.5v-268h121zM224 582q-14 2 -24 11l-32 27
q-9 8 -9 14t8 15l53 63q6 8 13 8q4 0 9 -4l170 -124l-31 -45z" />
    <glyph glyph-name="ohungarumlaut" unicode="&#x151;" horiz-adv-x="572" 
d="M45 0zM143 13q-52 25 -75 81.5t-23 155.5t23 155.5t75 81.5t143 25t142.5 -24.5t74.5 -81t23 -156.5q0 -99 -23 -155.5t-75 -81.5t-142 -25q-91 0 -143 25zM325 103q25 0 34 5.5t9 20.5v268h-120q-25 0 -34.5 -5.5t-9.5 -20.5v-268h121zM72 596l136 122q8 8 12 8
q5 0 13 -8l54 -64q6 -7 6 -14q0 -5 -6 -13l-36 -31q-8 -8 -27 -13l-121 -33zM313 596l136 122q8 8 12 8q5 0 13 -8l54 -64q6 -7 6 -14q0 -5 -6 -13l-36 -31q-8 -8 -27 -13l-121 -33z" />
    <glyph glyph-name="omacron" unicode="&#x14d;" horiz-adv-x="572" 
d="M45 0zM143 13q-52 25 -75 81.5t-23 155.5t23 155.5t75 81.5t143 25t142.5 -24.5t74.5 -81t23 -156.5q0 -99 -23 -155.5t-75 -81.5t-142 -25q-91 0 -143 25zM325 103q25 0 34 5.5t9 20.5v268h-120q-25 0 -34.5 -5.5t-9.5 -20.5v-268h121zM158.5 588q-8.5 11 -8.5 44v49
h223q22 0 31.5 -4.5t12.5 -15.5t3 -34v-50h-221q-32 0 -40.5 11z" />
    <glyph glyph-name="oslash" unicode="&#xf8;" horiz-adv-x="572" 
d="M504.5 403.5q21.5 -56.5 21.5 -153.5q0 -99 -23 -155.5t-75 -81.5t-142 -25q-46 0 -84 6l-34 -72q-7 -15 -16 -20t-27 -5h-41l56 118q-50 26 -72.5 82t-22.5 153q0 99 23 155.5t75 81.5t143 25q48 0 84 -6l34 71q7 15 16 20t27 5h41l-55 -117q50 -25 71.5 -81.5zM368 397
h-120q-25 0 -34.5 -5.5t-9.5 -20.5v-268h121q25 0 34 5.5t9 20.5v268z" />
    <glyph glyph-name="oslashacute" unicode="&#x1ff;" horiz-adv-x="572" 
d="M45 0zM504.5 403.5q21.5 -56.5 21.5 -153.5q0 -99 -23 -155.5t-75 -81.5t-142 -25q-46 0 -84 6l-34 -72q-7 -15 -16 -20t-27 -5h-41l56 118q-50 26 -72.5 82t-22.5 153q0 99 23 155.5t75 81.5t143 25q48 0 84 -6l34 71q7 15 16 20t27 5h41l-55 -117q50 -25 71.5 -81.5z
M368 397h-120q-25 0 -34.5 -5.5t-9.5 -20.5v-268h121q25 0 34 5.5t9 20.5v268zM186 597l170 124q5 4 10 4q4 0 6.5 -2t6.5 -6l52 -63q8 -9 8 -14q0 -7 -9 -15l-32 -27q-10 -9 -24 -11l-157 -35z" />
    <glyph glyph-name="otilde" unicode="&#xf5;" horiz-adv-x="572" 
d="M45 0zM143 13q-52 25 -75 81.5t-23 155.5t23 155.5t75 81.5t143 25t142.5 -24.5t74.5 -81t23 -156.5q0 -99 -23 -155.5t-75 -81.5t-142 -25q-91 0 -143 25zM325 103q25 0 34 5.5t9 20.5v268h-120q-25 0 -34.5 -5.5t-9.5 -20.5v-268h121zM270.5 562.5
q-14.5 8.5 -39.5 35.5l-74 -37l-35 59q75 54 102.5 69.5t44.5 15.5t30.5 -8t40.5 -36l74 37l35 -59q-73 -52 -101 -68.5t-46 -16.5q-17 0 -31.5 8.5z" />
    <glyph glyph-name="oe" unicode="&#x153;" horiz-adv-x="877" 
d="M790 124l19 -104q-94 -32 -213 -32q-101 0 -150 42q-26 -22 -65.5 -32t-94.5 -10q-91 0 -143 25t-75 81.5t-23 155.5t23 155.5t75 81.5t143 25q112 0 162 -44q51 44 157 44q86 0 132 -14t65.5 -48t19.5 -97q0 -67 -24.5 -101t-86.5 -47.5t-185 -13.5v-84q33 -8 89 -8
q78 0 175 25zM542 389.5q-16 -10.5 -16 -38.5v-78h85q44 0 60.5 10.5t16.5 39.5v77h-86q-44 0 -60 -10.5zM368 397h-120q-25 0 -34.5 -5.5t-9.5 -20.5v-268h121q25 0 34 5.5t9 20.5v268z" />
    <glyph glyph-name="p" unicode="p" horiz-adv-x="582" 
d="M457 487.5q43 -24.5 61.5 -81t18.5 -156.5t-19 -157.5t-61.5 -82.5t-117.5 -25q-78 0 -120 21v-164l-149 -13v671h72l30 -46q24 31 64 44.5t103 13.5q75 0 118 -24.5zM377 397h-115q-25 0 -34 -5t-9 -19v-273h116q25 0 33.5 5.5t8.5 21.5v270z" />
    <glyph glyph-name="thorn" unicode="&#xfe;" horiz-adv-x="582" 
d="M457 487.5q43 -24.5 61.5 -81t18.5 -156.5t-19 -157.5t-61.5 -82.5t-117.5 -25q-78 0 -120 21v-164l-149 -13v821l149 15v-174q42 21 120 21q75 0 118 -24.5zM377 397h-115q-25 0 -34 -5t-9 -19v-273h116q25 0 33.5 5.5t8.5 21.5v270z" />
    <glyph glyph-name="q" unicode="q" horiz-adv-x="582" 
d="M511 500v-658l-149 -13v177q-42 -21 -120 -21q-74 0 -116.5 25t-61.5 82.5t-19 157.5t18.5 156.5t61 81t117.5 24.5q62 0 102.5 -13.5t64.5 -44.5l30 46h72zM353.5 105.5q8.5 5.5 8.5 21.5v270h-115q-25 0 -34 -5t-9 -19v-273h116q25 0 33.5 5.5z" />
    <glyph glyph-name="r" unicode="r" horiz-adv-x="352" 
d="M188 427q70 68 142 88l11 -145q-28 -6 -65 -21.5t-57 -30.5v-318h-149v500h73z" />
    <glyph glyph-name="racute" unicode="&#x155;" horiz-adv-x="352" 
d="M70 0zM188 427q70 68 142 88l11 -145q-28 -6 -65 -21.5t-57 -30.5v-318h-149v500h73zM96 597l170 124q5 4 10 4q4 0 6.5 -2t6.5 -6l52 -63q8 -9 8 -14q0 -7 -9 -15l-32 -27q-10 -9 -24 -11l-157 -35z" />
    <glyph glyph-name="rcaron" unicode="&#x159;" horiz-adv-x="352" 
d="M66 0zM188 427q70 68 142 88l11 -145q-28 -6 -65 -21.5t-57 -30.5v-318h-149v500h73zM196 652l88 69l43 -42l-101 -125q-6 -7 -13 -7h-33q-9 0 -13 7l-101 125l42 42z" />
    <glyph glyph-name="rcommaaccent" unicode="&#x157;" horiz-adv-x="352" 
d="M64 0zM188 427q70 68 142 88l11 -145q-28 -6 -65 -21.5t-57 -30.5v-318h-149v500h73zM98 -291l22 101q-30 4 -43 19t-13 48q0 47 18 65t63 18t62.5 -18t17.5 -65q0 -28 -7 -51t-25 -61l-37 -74z" />
    <glyph glyph-name="s" unicode="s" horiz-adv-x="501" 
d="M93.5 476.5q49.5 38.5 156.5 38.5q103 0 190 -22l-18 -105q-55 15 -120 15q-57 0 -99 -10v-78q106 -13 161.5 -31.5t78 -50t22.5 -85.5q0 -87 -54 -125t-176 -38q-105 0 -200 31l20 112q74 -31 162 -31q41 0 89 11v80q-114 14 -168 31t-74 47.5t-20 89.5q0 82 49.5 120.5
z" />
    <glyph glyph-name="sacute" unicode="&#x15b;" horiz-adv-x="501" 
d="M35 0zM93.5 476.5q49.5 38.5 156.5 38.5q103 0 190 -22l-18 -105q-55 15 -120 15q-57 0 -99 -10v-78q106 -13 161.5 -31.5t78 -50t22.5 -85.5q0 -87 -54 -125t-176 -38q-105 0 -200 31l20 112q74 -31 162 -31q41 0 89 11v80q-114 14 -168 31t-74 47.5t-20 89.5
q0 82 49.5 120.5zM151 597l170 124q5 4 10 4q4 0 6.5 -2t6.5 -6l52 -63q8 -9 8 -14q0 -7 -9 -15l-32 -27q-10 -9 -24 -11l-157 -35z" />
    <glyph glyph-name="scaron" unicode="&#x161;" horiz-adv-x="501" 
d="M35 0zM93.5 476.5q49.5 38.5 156.5 38.5q103 0 190 -22l-18 -105q-55 15 -120 15q-57 0 -99 -10v-78q106 -13 161.5 -31.5t78 -50t22.5 -85.5q0 -87 -54 -125t-176 -38q-105 0 -200 31l20 112q74 -31 162 -31q41 0 89 11v80q-114 14 -168 31t-74 47.5t-20 89.5
q0 82 49.5 120.5zM251 652l88 69l43 -42l-101 -125q-6 -7 -13 -7h-33q-9 0 -13 7l-101 125l42 42z" />
    <glyph glyph-name="scedilla" unicode="&#x15f;" horiz-adv-x="501" 
d="M425.5 35q-39.5 -38 -126.5 -47q26 -32 26 -74q0 -40 -28 -64.5t-75 -24.5q-46 0 -86 17l9 68h29q26 0 34.5 7.5t8.5 29.5v38q-95 3 -182 31l20 112q74 -31 162 -31q41 0 89 11v80q-114 14 -168 31t-74 47.5t-20 89.5q0 82 49.5 120.5t156.5 38.5q103 0 190 -22l-18 -105
q-55 15 -120 15q-57 0 -99 -10v-78q106 -13 161.5 -31.5t78 -50t22.5 -85.5q0 -75 -39.5 -113z" />
    <glyph glyph-name="scircumflex" unicode="&#x15d;" horiz-adv-x="501" 
d="M35 0zM93.5 476.5q49.5 38.5 156.5 38.5q103 0 190 -22l-18 -105q-55 15 -120 15q-57 0 -99 -10v-78q106 -13 161.5 -31.5t78 -50t22.5 -85.5q0 -87 -54 -125t-176 -38q-105 0 -200 31l20 112q74 -31 162 -31q41 0 89 11v80q-114 14 -168 31t-74 47.5t-20 89.5
q0 82 49.5 120.5zM121 588l101 125q5 8 13 8h33q7 0 13 -8l101 -125l-43 -41l-88 68l-88 -68z" />
    <glyph glyph-name="scommaaccent" unicode="&#x219;" horiz-adv-x="501" 
d="M35 0zM93.5 476.5q49.5 38.5 156.5 38.5q103 0 190 -22l-18 -105q-55 15 -120 15q-57 0 -99 -10v-78q106 -13 161.5 -31.5t78 -50t22.5 -85.5q0 -87 -54 -125t-176 -38q-105 0 -200 31l20 112q74 -31 162 -31q41 0 89 11v80q-114 14 -168 31t-74 47.5t-20 89.5
q0 82 49.5 120.5zM204 -291l22 101q-30 4 -43 19t-13 48q0 47 18 65t63 18t62.5 -18t17.5 -65q0 -28 -7 -51t-25 -61l-37 -74z" />
    <glyph glyph-name="germandbls" unicode="&#xdf;" horiz-adv-x="657" 
d="M347.5 -10q-38.5 5 -63.5 14l20 111q60 -18 112 -18q42 0 57 6v93q-70 28 -102 44.5t-43 33t-11 43.5q0 22 10.5 40.5t31.5 44.5q22 26 33 46.5t11 44.5q0 70 -96 70q-26 0 -58 -6v-557h-149v402h-60v98h60q7 66 31 104t70.5 54.5t124.5 16.5q111 0 168.5 -39.5
t57.5 -115.5q0 -43 -20.5 -84.5t-72.5 -101.5q63 -28 98 -54.5t50 -58.5t15 -78q0 -80 -48.5 -119t-147.5 -39q-40 0 -78.5 5z" />
    <glyph glyph-name="t" unicode="t" horiz-adv-x="359" 
d="M244 402v-294q31 -5 65 -6l-7 -101q-64 -13 -106 -13q-52 0 -76.5 22t-24.5 69v323h-60v98h60v94l149 37v-131h79v-98h-79z" />
    <glyph glyph-name="tbar" unicode="&#x167;" horiz-adv-x="359" 
d="M244 402v-92h77v-55q0 -29 -10.5 -39.5t-39.5 -10.5h-27v-97q31 -5 65 -6l-7 -101q-64 -13 -106 -13q-52 0 -76.5 22t-24.5 69v126h-75v55q0 29 10.5 39.5t39.5 10.5h25v92h-60v98h60v94l149 37v-131h79v-98h-79z" />
    <glyph glyph-name="tcaron" unicode="&#x165;" horiz-adv-x="447" 
d="M35 0zM244 402v-294q31 -5 65 -6l-7 -101q-64 -13 -106 -13q-52 0 -76.5 22t-24.5 69v323h-60v98h60v94l149 37v-131h79v-98h-79zM351 449l22 101q-30 4 -43 19t-13 48q0 47 18 65t63 18t62.5 -18t17.5 -65q0 -28 -7 -51t-25 -61l-37 -74z" />
    <glyph glyph-name="uni0163" unicode="&#x163;" horiz-adv-x="359" 
d="M244 402v-294q31 -5 65 -6l-7 -101q-44 -9 -76 -12q27 -32 27 -75q0 -40 -28 -64.5t-75 -24.5q-46 0 -86 17l9 68h29q26 0 34.5 7.5t8.5 29.5v48q-50 18 -50 84v323h-60v98h60v94l149 37v-131h79v-98h-79z" />
    <glyph glyph-name="uni021B" unicode="&#x21b;" horiz-adv-x="359" 
d="M35 0zM244 402v-294q31 -5 65 -6l-7 -101q-64 -13 -106 -13q-52 0 -76.5 22t-24.5 69v323h-60v98h60v94l149 37v-131h79v-98h-79zM132 -291l22 101q-30 4 -43 19t-13 48q0 47 18 65t63 18t62.5 -18t17.5 -65q0 -28 -7 -51t-25 -61l-37 -74z" />
    <glyph glyph-name="u" unicode="u" horiz-adv-x="585" 
d="M515 0h-73l-38 50q-83 -62 -198 -62q-73 0 -107 29.5t-34 94.5v388h149v-407h89q35 0 49 9.5t14 33.5v364h149v-500z" />
    <glyph glyph-name="uacute" unicode="&#xfa;" horiz-adv-x="585" 
d="M65 0zM515 0h-73l-38 50q-83 -62 -198 -62q-73 0 -107 29.5t-34 94.5v388h149v-407h89q35 0 49 9.5t14 33.5v364h149v-500zM193 597l170 124q5 4 10 4q4 0 6.5 -2t6.5 -6l52 -63q8 -9 8 -14q0 -7 -9 -15l-32 -27q-10 -9 -24 -11l-157 -35z" />
    <glyph glyph-name="ubreve" unicode="&#x16d;" horiz-adv-x="585" 
d="M65 0zM515 0h-73l-38 50q-83 -62 -198 -62q-73 0 -107 29.5t-34 94.5v388h149v-407h89q35 0 49 9.5t14 33.5v364h149v-500zM208 589.5q-36 30.5 -49 92.5l80 13q7 -22 21.5 -34t32.5 -12t33 12t21 34l80 -13q-14 -60 -50 -91.5t-84 -31.5q-49 0 -85 30.5z" />
    <glyph glyph-name="ucircumflex" unicode="&#xfb;" horiz-adv-x="585" 
d="M65 0zM515 0h-73l-38 50q-83 -62 -198 -62q-73 0 -107 29.5t-34 94.5v388h149v-407h89q35 0 49 9.5t14 33.5v364h149v-500zM163 588l101 125q5 8 13 8h33q7 0 13 -8l101 -125l-43 -41l-88 68l-88 -68z" />
    <glyph glyph-name="udieresis" unicode="&#xfc;" horiz-adv-x="585" 
d="M65 0zM515 0h-73l-38 50q-83 -62 -198 -62q-73 0 -107 29.5t-34 94.5v388h149v-407h89q35 0 49 9.5t14 33.5v364h149v-500zM140.5 579q-13.5 15 -13.5 54t14 55t54 16t53.5 -16t13.5 -55t-13.5 -54t-53.5 -15q-41 0 -54.5 15zM336.5 579q-13.5 15 -13.5 54t14 55t54 16
t53.5 -16t13.5 -55t-13.5 -54t-53.5 -15q-41 0 -54.5 15z" />
    <glyph glyph-name="ugrave" unicode="&#xf9;" horiz-adv-x="585" 
d="M65 0zM515 0h-73l-38 50q-83 -62 -198 -62q-73 0 -107 29.5t-34 94.5v388h149v-407h89q35 0 49 9.5t14 33.5v364h149v-500zM231 582q-14 2 -24 11l-32 27q-9 8 -9 14t8 15l53 63q6 8 13 8q4 0 9 -4l170 -124l-31 -45z" />
    <glyph glyph-name="uhungarumlaut" unicode="&#x171;" horiz-adv-x="585" 
d="M65 0zM515 0h-73l-38 50q-83 -62 -198 -62q-73 0 -107 29.5t-34 94.5v388h149v-407h89q35 0 49 9.5t14 33.5v364h149v-500zM79 596l136 122q8 8 12 8q5 0 13 -8l54 -64q6 -7 6 -14q0 -5 -6 -13l-36 -31q-8 -8 -27 -13l-121 -33zM320 596l136 122q8 8 12 8q5 0 13 -8
l54 -64q6 -7 6 -14q0 -5 -6 -13l-36 -31q-8 -8 -27 -13l-121 -33z" />
    <glyph glyph-name="umacron" unicode="&#x16b;" horiz-adv-x="585" 
d="M65 0zM515 0h-73l-38 50q-83 -62 -198 -62q-73 0 -107 29.5t-34 94.5v388h149v-407h89q35 0 49 9.5t14 33.5v364h149v-500zM165.5 588q-8.5 11 -8.5 44v49h223q22 0 31.5 -4.5t12.5 -15.5t3 -34v-50h-221q-32 0 -40.5 11z" />
    <glyph glyph-name="uogonek" unicode="&#x173;" horiz-adv-x="585" 
d="M538 -155q-46 -20 -88 -20q-43 0 -68.5 24.5t-25.5 66.5q0 31 20 56t57 40l-29 38q-83 -62 -198 -62q-73 0 -107 29.5t-34 94.5v388h149v-407h89q35 0 49 9.5t14 33.5v364h149v-500h-1l-16 -3q-24 -5 -31 -13t-7 -28v-13q0 -17 6.5 -25t22.5 -8h38z" />
    <glyph glyph-name="uring" unicode="&#x16f;" horiz-adv-x="585" 
d="M65 0zM515 0h-73l-38 50q-83 -62 -198 -62q-73 0 -107 29.5t-34 94.5v388h149v-407h89q35 0 49 9.5t14 33.5v364h149v-500zM211 559.5q-25 26.5 -25 80.5t25 80.5t82 26.5t82 -26.5t25 -80.5t-25 -80.5t-82 -26.5t-82 26.5zM289 596q22 0 32 4.5t10 21.5v62h-34
q-24 0 -34.5 -4.5t-10.5 -20.5v-63h37z" />
    <glyph glyph-name="utilde" unicode="&#x169;" horiz-adv-x="585" 
d="M65 0zM515 0h-73l-38 50q-83 -62 -198 -62q-73 0 -107 29.5t-34 94.5v388h149v-407h89q35 0 49 9.5t14 33.5v364h149v-500zM277.5 562.5q-14.5 8.5 -39.5 35.5l-74 -37l-35 59q75 54 102.5 69.5t44.5 15.5t30.5 -8t40.5 -36l74 37l35 -59q-73 -52 -101 -68.5t-46 -16.5
q-17 0 -31.5 8.5z" />
    <glyph glyph-name="v" unicode="v" horiz-adv-x="496" 
d="M151 500l93 -371h10l92 371h146l-131 -500h-225l-131 500h146z" />
    <glyph glyph-name="w" unicode="w" horiz-adv-x="750" 
d="M746 500l-109 -500h-200l-61 282l-62 -282h-200l-109 500h146l73 -371h10l77 371h129l77 -371h10l73 371h146z" />
    <glyph glyph-name="wacute" unicode="&#x1e83;" horiz-adv-x="750" 
d="M5 0zM746 500l-109 -500h-200l-61 282l-62 -282h-200l-109 500h146l73 -371h10l77 371h129l77 -371h10l73 371h146zM275 597l170 124q5 4 10 4q4 0 6.5 -2t6.5 -6l52 -63q8 -9 8 -14q0 -7 -9 -15l-32 -27q-10 -9 -24 -11l-157 -35z" />
    <glyph glyph-name="wcircumflex" unicode="&#x175;" horiz-adv-x="750" 
d="M5 0zM746 500l-109 -500h-200l-61 282l-62 -282h-200l-109 500h146l73 -371h10l77 371h129l77 -371h10l73 371h146zM245 588l101 125q5 8 13 8h33q7 0 13 -8l101 -125l-43 -41l-88 68l-88 -68z" />
    <glyph glyph-name="wdieresis" unicode="&#x1e85;" horiz-adv-x="750" 
d="M5 0zM746 500l-109 -500h-200l-61 282l-62 -282h-200l-109 500h146l73 -371h10l77 371h129l77 -371h10l73 371h146zM222.5 579q-13.5 15 -13.5 54t14 55t54 16t53.5 -16t13.5 -55t-13.5 -54t-53.5 -15q-41 0 -54.5 15zM418.5 579q-13.5 15 -13.5 54t14 55t54 16t53.5 -16
t13.5 -55t-13.5 -54t-53.5 -15q-41 0 -54.5 15z" />
    <glyph glyph-name="wgrave" unicode="&#x1e81;" horiz-adv-x="750" 
d="M5 0zM746 500l-109 -500h-200l-61 282l-62 -282h-200l-109 500h146l73 -371h10l77 371h129l77 -371h10l73 371h146zM313 582q-14 2 -24 11l-32 27q-9 8 -9 14t8 15l53 63q6 8 13 8q4 0 9 -4l170 -124l-31 -45z" />
    <glyph glyph-name="x" unicode="x" horiz-adv-x="533" 
d="M355 0l-96 143l-85 -143h-159l164 260l-162 240h163l94 -140l83 140h159l-162 -257l164 -243h-163z" />
    <glyph glyph-name="y" unicode="y" horiz-adv-x="486" 
d="M482 500l-126 -460h-1q-22 -83 -51.5 -130t-74 -67t-113.5 -20q-57 0 -103 13l6 78l94 12q34 5 51.5 13.5t27.5 26.5t19 54l5 20h-85l-126 460h146l88 -331h10l87 331h146z" />
    <glyph glyph-name="yacute" unicode="&#xfd;" horiz-adv-x="486" 
d="M5 0zM482 500l-126 -460h-1q-22 -83 -51.5 -130t-74 -67t-113.5 -20q-57 0 -103 13l6 78l94 12q34 5 51.5 13.5t27.5 26.5t19 54l5 20h-85l-126 460h146l88 -331h10l87 331h146zM143 597l170 124q5 4 10 4q4 0 6.5 -2t6.5 -6l52 -63q8 -9 8 -14q0 -7 -9 -15l-32 -27
q-10 -9 -24 -11l-157 -35z" />
    <glyph glyph-name="ycircumflex" unicode="&#x177;" horiz-adv-x="486" 
d="M5 0zM482 500l-126 -460h-1q-22 -83 -51.5 -130t-74 -67t-113.5 -20q-57 0 -103 13l6 78l94 12q34 5 51.5 13.5t27.5 26.5t19 54l5 20h-85l-126 460h146l88 -331h10l87 331h146zM113 588l101 125q5 8 13 8h33q7 0 13 -8l101 -125l-43 -41l-88 68l-88 -68z" />
    <glyph glyph-name="ydieresis" unicode="&#xff;" horiz-adv-x="486" 
d="M5 0zM482 500l-126 -460h-1q-22 -83 -51.5 -130t-74 -67t-113.5 -20q-57 0 -103 13l6 78l94 12q34 5 51.5 13.5t27.5 26.5t19 54l5 20h-85l-126 460h146l88 -331h10l87 331h146zM90.5 579q-13.5 15 -13.5 54t14 55t54 16t53.5 -16t13.5 -55t-13.5 -54t-53.5 -15
q-41 0 -54.5 15zM286.5 579q-13.5 15 -13.5 54t14 55t54 16t53.5 -16t13.5 -55t-13.5 -54t-53.5 -15q-41 0 -54.5 15z" />
    <glyph glyph-name="ygrave" unicode="&#x1ef3;" horiz-adv-x="486" 
d="M5 0zM482 500l-126 -460h-1q-22 -83 -51.5 -130t-74 -67t-113.5 -20q-57 0 -103 13l6 78l94 12q34 5 51.5 13.5t27.5 26.5t19 54l5 20h-85l-126 460h146l88 -331h10l87 331h146zM181 582q-14 2 -24 11l-32 27q-9 8 -9 14t8 15l53 63q6 8 13 8q4 0 9 -4l170 -124l-31 -45z
" />
    <glyph glyph-name="z" unicode="z" horiz-adv-x="501" 
d="M270 393h-204l-10 107h404v-82l-235 -305l3 -6h233v-107h-423v82l236 305z" />
    <glyph glyph-name="zacute" unicode="&#x17a;" horiz-adv-x="501" 
d="M38 0zM270 393h-204l-10 107h404v-82l-235 -305l3 -6h233v-107h-423v82l236 305zM166 597l170 124q5 4 10 4q4 0 6.5 -2t6.5 -6l52 -63q8 -9 8 -14q0 -7 -9 -15l-32 -27q-10 -9 -24 -11l-157 -35z" />
    <glyph glyph-name="zcaron" unicode="&#x17e;" horiz-adv-x="501" 
d="M38 0zM270 393h-204l-10 107h404v-82l-235 -305l3 -6h233v-107h-423v82l236 305zM266 652l88 69l43 -42l-101 -125q-6 -7 -13 -7h-33q-9 0 -13 7l-101 125l42 42z" />
    <glyph glyph-name="zdotaccent" unicode="&#x17c;" horiz-adv-x="501" 
d="M38 0zM270 393h-204l-10 107h404v-82l-235 -305l3 -6h233v-107h-423v82l236 305zM200.5 582q-17.5 17 -17.5 65q0 49 17.5 66.5t66.5 17.5q47 0 64.5 -17.5t17.5 -66.5q0 -48 -17 -65t-65 -17q-49 0 -66.5 17z" />
    <glyph glyph-name="ordfeminine" unicode="&#xaa;" horiz-adv-x="414" 
d="M342 720q39 -29 39 -96v-274h-62l-32 39q-60 -49 -135 -49q-69 0 -100 30t-31 96q0 48 18.5 73.5t64 36t132.5 10.5h19v65q-25 5 -54 5q-65 0 -146 -19l-16 87q78 25 177 25q87 0 126 -29zM242.5 436q12.5 8 12.5 28v62h-61q-33 0 -45 -8t-12 -30v-60h60q33 0 45.5 8z
M47.5 277.5q11.5 10.5 43.5 10.5h276v-55q0 -29 -11.5 -39.5t-43.5 -10.5h-276v55q0 29 11.5 39.5z" />
    <glyph glyph-name="ordmasculine" unicode="&#xba;" horiz-adv-x="515" 
d="M138.5 370.5q-43.5 20.5 -63 65.5t-19.5 124t19.5 124t63 65.5t118.5 20.5q76 0 119.5 -20.5t63 -65.5t19.5 -124t-19.5 -124t-63 -65.5t-119.5 -20.5q-75 0 -118.5 20.5zM289 447q21 0 28.5 4t7.5 17v205h-100q-21 0 -28.5 -4t-7.5 -17v-205h100zM90.5 279.5
q12.5 10.5 47.5 10.5h301v-55q0 -29 -12.5 -39.5t-47.5 -10.5h-301v55q0 29 12.5 39.5z" />
    <glyph glyph-name="uni0394" unicode="&#x394;" horiz-adv-x="674" 
d="M43 0zM631 52l-19 -52h-550l-19 52l206 573h179zM447 137q0 9 -2 14l-118 329h-13l-133 -366h237q29 0 29 23z" />
    <glyph glyph-name="uni03A9" unicode="&#x3a9;" horiz-adv-x="695" 
d="M209 276q0 -41 17 -54.5t57 -13.5l-15 -208h-229v92l136 9l3 46q-48 11 -76 36.5t-40 71t-12 120.5q0 101 28.5 158t93 82t176.5 25t176.5 -25t93.5 -82t29 -158q0 -75 -12.5 -120.5t-40 -71t-76.5 -36.5l3 -46l136 -9v-92h-229l-15 208h74v259q0 34 -15.5 45.5
t-51.5 11.5h-211v-248z" />
    <glyph glyph-name="pi" unicode="&#x3c0;" horiz-adv-x="637" 
d="M524 109q28 -5 47 -6l-7 -100q-54 -14 -88 -14q-52 0 -76.5 22.5t-24.5 69.5v302h-73q-41 0 -47 -38l-58 -345h-111l27 394l-50 12v94h412q5 14 6 36l111 -7q0 -54 -6 -84t-20.5 -43.5t-41.5 -16.5v-276z" />
    <glyph glyph-name="uni0621" unicode="&#x621;" horiz-adv-x="439" 
d="M414 230v-126l-394 -106v126l98 26q-28 39 -28 123q0 116 68.5 171t210.5 55v-134q-41 0 -85.5 -9.5t-72.5 -24.5v-103q0 -22 6.5 -32t23.5 -10q10 0 30 5z" />
    <glyph glyph-name="uni0627" unicode="&#x627;" horiz-adv-x="290" 
d="M85 630h119v-630h-119v630z" />
    <glyph glyph-name="uni0627.short" horiz-adv-x="290" 
d="M85 470h119v-470h-119v470z" />
    <glyph glyph-name="uniFE8E.short" horiz-adv-x="290" 
d="M85 470h119v-336h106v-134h-225v470z" />
    <glyph glyph-name="uni0623" unicode="&#x623;" horiz-adv-x="290" 
d="M29 0zM85 470h119v-470h-119v470zM261 698v-59l-232 -62v58l40 11q-9 24 -9 62q0 76 44.5 108t129.5 36v-69q-51 -3 -95 -22v-66q0 -12 4 -17.5t14 -5.5q4 0 22 4z" />
    <glyph glyph-name="uni0625" unicode="&#x625;" horiz-adv-x="290" 
d="M29 0zM85 630h119v-630h-119v630zM261 -231v-59l-232 -62v58l40 11q-9 24 -9 62q0 76 44.5 108t129.5 36v-69q-51 -3 -95 -22v-66q0 -12 4 -17.5t14 -5.5q4 0 22 4z" />
    <glyph glyph-name="uni0622" unicode="&#x622;" horiz-adv-x="290" 
d="M13 0zM85 470h119v-470h-119v470zM131.5 615q-11.5 8 -34.5 33l-64 -30l-20 36q54 42 78 55.5t40 13.5q14 0 25.5 -7.5t34.5 -33.5l64 30l20 -36q-51 -41 -76 -55t-41 -14q-15 0 -26.5 8z" />
    <glyph glyph-name="uni0671" unicode="&#x671;" horiz-adv-x="290" 
d="M0 0zM85 470h119v-470h-119v470zM264.5 800.5q30.5 -19.5 30.5 -62.5v-148h-323v58h30q4 82 46 127t119 45q67 0 97.5 -19.5zM206 648v103q-12 6 -39 6q-37 0 -55.5 -26.5t-20.5 -82.5h115z" />
    <glyph glyph-name="uni066E" unicode="&#x66e;" horiz-adv-x="904" 
d="M97 50q-37 50 -37 164q0 102 30 190l114 -19q-25 -77 -25 -138q0 -71 15 -113h505v336h119v-470h-599q-85 0 -122 50z" />
    <glyph glyph-name="uni0628" unicode="&#x628;" horiz-adv-x="904" 
d="M60 0zM97 50q-37 50 -37 164q0 102 30 190l114 -19q-25 -77 -25 -138q0 -71 15 -113h505v336h119v-470h-599q-85 0 -122 50zM419.5 -213q-16.5 12 -28.5 28.5t-12 29.5q0 20 25 44.5t45 25.5q20 -1 44.5 -25.5t24.5 -44.5q0 -12 -12 -29t-28.5 -29t-28.5 -12
q-13 0 -29.5 12z" />
    <glyph glyph-name="uni067E" unicode="&#x67e;" horiz-adv-x="904" 
d="M60 0zM97 50q-37 50 -37 164q0 102 30 190l114 -19q-25 -77 -25 -138q0 -71 15 -113h505v336h119v-470h-599q-85 0 -122 50zM296 -75zM419.5 -380q-16.5 12 -28.5 28.5t-12 29.5q0 20 25 44.5t45 25.5q20 -1 44.5 -25.5t24.5 -44.5q0 -12 -12 -29t-28.5 -29t-28.5 -12
q-13 0 -29.5 12zM336.5 -203q-16.5 12 -28.5 28.5t-12 29.5q0 20 25 44.5t45 25.5q20 -1 44.5 -25.5t24.5 -44.5q0 -12 -12 -29t-28.5 -29t-28.5 -12q-13 0 -29.5 12zM503.5 -203q-16.5 12 -28.5 28.5t-12 29.5q0 20 25 44.5t45 25.5q20 -1 44.5 -25.5t24.5 -44.5
q0 -12 -12 -29t-28.5 -29t-28.5 -12q-13 0 -29.5 12z" />
    <glyph glyph-name="uni062A" unicode="&#x62a;" horiz-adv-x="904" 
d="M60 0zM97 50q-37 50 -37 164q0 102 30 190l114 -19q-25 -77 -25 -138q0 -71 15 -113h505v336h119v-470h-599q-85 0 -122 50zM336.5 499q-16.5 12 -28.5 28.5t-12 29.5q0 20 25 44.5t45 25.5q20 -1 44.5 -25.5t24.5 -44.5q0 -12 -12 -29t-28.5 -29t-28.5 -12
q-13 0 -29.5 12zM503.5 499q-16.5 12 -28.5 28.5t-12 29.5q0 20 25 44.5t45 25.5q20 -1 44.5 -25.5t24.5 -44.5q0 -12 -12 -29t-28.5 -29t-28.5 -12q-13 0 -29.5 12z" />
    <glyph glyph-name="uni062B" unicode="&#x62b;" horiz-adv-x="904" 
d="M60 0zM97 50q-37 50 -37 164q0 102 30 190l114 -19q-25 -77 -25 -138q0 -71 15 -113h505v336h119v-470h-599q-85 0 -122 50zM336.5 499q-16.5 12 -28.5 28.5t-12 29.5q0 20 25 44.5t45 25.5q20 -1 44.5 -25.5t24.5 -44.5q0 -12 -12 -29t-28.5 -29t-28.5 -12
q-13 0 -29.5 12zM503.5 499q-16.5 12 -28.5 28.5t-12 29.5q0 20 25 44.5t45 25.5q20 -1 44.5 -25.5t24.5 -44.5q0 -12 -12 -29t-28.5 -29t-28.5 -12q-13 0 -29.5 12zM419.5 676q-16.5 12 -28.5 28.5t-12 29.5q0 20 25 44.5t45 25.5q20 -1 44.5 -25.5t24.5 -44.5
q0 -12 -12 -29t-28.5 -29t-28.5 -12q-13 0 -29.5 12z" />
    <glyph glyph-name="uni0679" unicode="&#x679;" horiz-adv-x="904" 
d="M60 0zM97 50q-37 50 -37 164q0 102 30 190l114 -19q-25 -77 -25 -138q0 -71 15 -113h505v336h119v-470h-599q-85 0 -122 50zM577 681.5q20 -18.5 20 -63.5v-128h-318v58h30v215h89v-115q15 25 45 38.5t69 13.5q45 0 65 -18.5zM508 548v82q-17 7 -39 7q-35 0 -52 -22.5
t-19 -66.5h110z" />
    <glyph glyph-name="uni062C" unicode="&#x62c;" horiz-adv-x="573" 
d="M573 140q-213 0 -308.5 -31t-95.5 -101v-153q46 -8 125 -8q43 0 84.5 5.5t95.5 17.5l15 -127q-96 -30 -229 -30q-84 0 -129.5 21.5t-64.5 73t-19 147.5q0 93 33.5 154.5t105 96.5t187.5 47q-28 49 -78.5 72t-130.5 23q-51 0 -92 -6l-18 132q69 8 128 8q136 0 215 -52.5
t120 -170.5h56v-119zM293.5 28q22.5 22 40.5 22t40 -22t22 -41q0 -17 -22.5 -40t-39.5 -23t-40 23t-23 40q0 19 22.5 41z" />
    <glyph glyph-name="uni0686" unicode="&#x686;" horiz-adv-x="574" 
d="M573 259v-119q-213 0 -308.5 -31t-95.5 -101v-153q23 -6 56 -6q38 0 84 8l15 -127q-54 -15 -96 -15q-72 0 -111 23.5t-54.5 75t-15.5 141.5q0 93 33.5 154.5t105 96.5t187.5 47q-28 49 -78.5 72t-130.5 23q-51 0 -92 -6l-18 132q69 8 128 8q136 0 215 -52.5t120 -170.5
h56zM376.5 -48q-22.5 -23 -39.5 -23t-40 22.5t-23 40.5t22.5 40t40.5 23q18 -1 40 -23t22 -40q0 -17 -22.5 -40zM528 32q22 -22 22 -40q0 -17 -22.5 -40t-39.5 -23t-40 22.5t-23 40.5t22.5 40t40.5 23q18 -1 40 -23zM452 -127q22 -22 22 -40q0 -17 -22.5 -40t-39.5 -23
t-40 22.5t-23 40.5t22.5 40t40.5 23q18 -1 40 -23z" />
    <glyph glyph-name="uni062D" unicode="&#x62d;" horiz-adv-x="573" 
d="M264.5 109q-95.5 -31 -95.5 -101v-153q46 -8 125 -8q43 0 84.5 5.5t95.5 17.5l15 -127q-96 -30 -229 -30q-84 0 -129.5 21.5t-64.5 73t-19 147.5q0 93 33.5 154.5t105 96.5t187.5 47q-28 49 -78.5 72t-130.5 23q-51 0 -92 -6l-18 132q69 8 128 8q136 0 215 -52.5
t120 -170.5h56v-119q-213 0 -308.5 -31z" />
    <glyph glyph-name="uni062E" unicode="&#x62e;" horiz-adv-x="573" 
d="M47 0zM264.5 109q-95.5 -31 -95.5 -101v-153q46 -8 125 -8q43 0 84.5 5.5t95.5 17.5l15 -127q-96 -30 -229 -30q-84 0 -129.5 21.5t-64.5 73t-19 147.5q0 93 33.5 154.5t105 96.5t187.5 47q-28 49 -78.5 72t-130.5 23q-51 0 -92 -6l-18 132q69 8 128 8q136 0 215 -52.5
t120 -170.5h56v-119q-213 0 -308.5 -31zM259.5 622q-16.5 12 -28.5 28.5t-12 29.5q0 20 25 44.5t45 25.5q20 -1 44.5 -25.5t24.5 -44.5q0 -12 -12 -29t-28.5 -29t-28.5 -12q-13 0 -29.5 12z" />
    <glyph glyph-name="uni062F" unicode="&#x62f;" horiz-adv-x="527" 
d="M20 134h314q-24 95 -44.5 141.5t-48 64t-75.5 17.5q-47 0 -97 -12l-33 131q58 15 130 15q95 0 144.5 -27.5t85.5 -106t81 -253.5v-104h-457v134z" />
    <glyph glyph-name="uni0630" unicode="&#x630;" horiz-adv-x="527" 
d="M20 0zM20 134h314q-24 95 -44.5 141.5t-48 64t-75.5 17.5q-47 0 -97 -12l-33 131q58 15 130 15q95 0 144.5 -27.5t85.5 -106t81 -253.5v-104h-457v134zM165.5 599q-16.5 12 -28.5 28.5t-12 29.5q0 20 25 44.5t45 25.5q20 -1 44.5 -25.5t24.5 -44.5q0 -12 -12 -29
t-28.5 -29t-28.5 -12q-13 0 -29.5 12z" />
    <glyph glyph-name="uni0688" unicode="&#x688;" horiz-adv-x="527" 
d="M20 0zM20 134h314q-24 95 -44.5 141.5t-48 64t-75.5 17.5q-47 0 -97 -12l-33 131q58 15 130 15q95 0 144.5 -27.5t85.5 -106t81 -253.5v-104h-457v134zM323 781.5q20 -18.5 20 -63.5v-128h-318v58h30v215h89v-115q15 25 45 38.5t69 13.5q45 0 65 -18.5zM254 648v82
q-17 7 -39 7q-35 0 -52 -22.5t-19 -66.5h110z" />
    <glyph glyph-name="uni0631" unicode="&#x631;" horiz-adv-x="326" 
d="M23 -165q40 18 61 39t29.5 53.5t8.5 86.5v456h119v-456q0 -113 -39.5 -179t-132.5 -107z" />
    <glyph glyph-name="uni0632" unicode="&#x632;" horiz-adv-x="326" 
d="M23 0zM23 -165q40 18 61 39t29.5 53.5t8.5 86.5v456h119v-456q0 -113 -39.5 -179t-132.5 -107zM151.5 599q-16.5 12 -28.5 28.5t-12 29.5q0 20 25 44.5t45 25.5q20 -1 44.5 -25.5t24.5 -44.5q0 -12 -12 -29t-28.5 -29t-28.5 -12q-13 0 -29.5 12z" />
    <glyph glyph-name="uni0691" unicode="&#x691;" horiz-adv-x="326" 
d="M11 0zM23 -165q40 18 61 39t29.5 53.5t8.5 86.5v456h119v-456q0 -113 -39.5 -179t-132.5 -107zM309 781.5q20 -18.5 20 -63.5v-128h-318v58h30v215h89v-115q15 25 45 38.5t69 13.5q45 0 65 -18.5zM240 648v82q-17 7 -39 7q-35 0 -52 -22.5t-19 -66.5h110z" />
    <glyph glyph-name="uni0698" unicode="&#x698;" horiz-adv-x="326" 
d="M23 0zM23 -165q40 18 61 39t29.5 53.5t8.5 86.5v456h119v-456q0 -113 -39.5 -179t-132.5 -107zM68.5 599q-16.5 12 -28.5 28.5t-12 29.5q0 20 25 44.5t45 25.5q20 -1 44.5 -25.5t24.5 -44.5q0 -12 -12 -29t-28.5 -29t-28.5 -12q-13 0 -29.5 12zM235.5 599
q-16.5 12 -28.5 28.5t-12 29.5q0 20 25 44.5t45 25.5q20 -1 44.5 -25.5t24.5 -44.5q0 -12 -12 -29t-28.5 -29t-28.5 -12q-13 0 -29.5 12zM151.5 776q-16.5 12 -28.5 28.5t-12 29.5q0 20 25 44.5t45 25.5q20 -1 44.5 -25.5t24.5 -44.5q0 -12 -12 -29t-28.5 -29t-28.5 -12
q-13 0 -29.5 12z" />
    <glyph glyph-name="uni0633" unicode="&#x633;" horiz-adv-x="1321" 
d="M1235.5 370.5q7.5 -56.5 7.5 -107.5q0 -102 -22 -159t-70 -80.5t-130 -23.5q-62 0 -101.5 7t-64.5 24q-27 -17 -70 -24t-110 -7h-88v-14q0 -94 -20.5 -141t-76.5 -66t-172 -19q-108 0 -161 19.5t-72.5 68.5t-19.5 148q0 126 29 216l119 -19q-29 -104 -29 -173
q0 -75 11 -126h157q64 0 90 11t26 42v433h119v-246h133q40 0 58 11t18 42v193h119v-193q0 -31 18 -42t58 -11h122q11 47 11 123q0 78 -27 194l118 18q13 -42 20.5 -98.5z" />
    <glyph glyph-name="uni0634" unicode="&#x634;" horiz-adv-x="1321" 
d="M65 0zM1235.5 370.5q7.5 -56.5 7.5 -107.5q0 -102 -22 -159t-70 -80.5t-130 -23.5q-62 0 -101.5 7t-64.5 24q-27 -17 -70 -24t-110 -7h-88v-14q0 -94 -20.5 -141t-76.5 -66t-172 -19q-108 0 -161 19.5t-72.5 68.5t-19.5 148q0 126 29 216l119 -19q-29 -104 -29 -173
q0 -75 11 -126h157q64 0 90 11t26 42v433h119v-246h133q40 0 58 11t18 42v193h119v-193q0 -31 18 -42t58 -11h122q11 47 11 123q0 78 -27 194l118 18q13 -42 20.5 -98.5zM747.5 599q-16.5 12 -28.5 28.5t-12 29.5q0 20 25 44.5t45 25.5q20 -1 44.5 -25.5t24.5 -44.5
q0 -12 -12 -29t-28.5 -29t-28.5 -12q-13 0 -29.5 12zM914.5 599q-16.5 12 -28.5 28.5t-12 29.5q0 20 25 44.5t45 25.5q20 -1 44.5 -25.5t24.5 -44.5q0 -12 -12 -29t-28.5 -29t-28.5 -12q-13 0 -29.5 12zM830.5 776q-16.5 12 -28.5 28.5t-12 29.5q0 20 25 44.5t45 25.5
q20 -1 44.5 -25.5t24.5 -44.5q0 -12 -12 -29t-28.5 -29t-28.5 -12q-13 0 -29.5 12z" />
    <glyph glyph-name="uni0635" unicode="&#x635;" horiz-adv-x="1163" 
d="M1006.5 466q39.5 -14 56 -47t16.5 -93v-326h-492v-14q0 -94 -20.5 -141t-76.5 -66t-172 -19q-108 0 -161 19.5t-72.5 68.5t-19.5 148q0 126 29 216l119 -19q-29 -104 -29 -173q0 -75 11 -126h157q64 0 90 11t26 42v523h119v-156q31 77 114.5 121.5t194.5 44.5
q71 0 110.5 -14zM960 134v201q-35 11 -116 11q-117 0 -180.5 -52.5t-74.5 -159.5h371z" />
    <glyph glyph-name="uni0636" unicode="&#x636;" horiz-adv-x="1163" 
d="M65 0zM1006.5 466q39.5 -14 56 -47t16.5 -93v-326h-492v-14q0 -94 -20.5 -141t-76.5 -66t-172 -19q-108 0 -161 19.5t-72.5 68.5t-19.5 148q0 126 29 216l119 -19q-29 -104 -29 -173q0 -75 11 -126h157q64 0 90 11t26 42v523h119v-156q31 77 114.5 121.5t194.5 44.5
q71 0 110.5 -14zM960 134v201q-35 11 -116 11q-117 0 -180.5 -52.5t-74.5 -159.5h371zM823.5 599q-16.5 12 -28.5 28.5t-12 29.5q0 20 25 44.5t45 25.5q20 -1 44.5 -25.5t24.5 -44.5q0 -12 -12 -29t-28.5 -29t-28.5 -12q-13 0 -29.5 12z" />
    <glyph glyph-name="uni0637" unicode="&#x637;" horiz-adv-x="827" 
d="M673.5 466q39.5 -14 56 -47t16.5 -93v-326h-726v134h115v496h119v-316q31 77 114.5 121.5t194.5 44.5q71 0 110.5 -14zM627 134v201q-35 11 -116 11q-117 0 -180.5 -52.5t-74.5 -159.5h371z" />
    <glyph glyph-name="uni0638" unicode="&#x638;" horiz-adv-x="827" 
d="M20 0zM673.5 466q39.5 -14 56 -47t16.5 -93v-326h-726v134h115v496h119v-316q31 77 114.5 121.5t194.5 44.5q71 0 110.5 -14zM627 134v201q-35 11 -116 11q-117 0 -180.5 -52.5t-74.5 -159.5h371zM470.5 599q-16.5 12 -28.5 28.5t-12 29.5q0 20 25 44.5t45 25.5
q20 -1 44.5 -25.5t24.5 -44.5q0 -12 -12 -29t-28.5 -29t-28.5 -12q-13 0 -29.5 12z" />
    <glyph glyph-name="uni0639" unicode="&#x639;" horiz-adv-x="580" 
d="M242 339v-195q89 22 232 22v-112q-159 0 -232 -28.5t-73 -91.5v-124q46 -8 125 -8q43 0 84.5 5.5t95.5 17.5l15 -127q-96 -30 -229 -30q-84 0 -129.5 21.5t-64.5 73t-19 147.5q0 68 22.5 115.5t69.5 77.5q-19 48 -19 140q0 93 18.5 143.5t62.5 72.5t125 22q95 0 186 -27
l-19 -127q-86 19 -154 19q-62 0 -97 -7z" />
    <glyph glyph-name="uni063A" unicode="&#x63a;" horiz-adv-x="580" 
d="M47 0zM242 339v-195q89 22 232 22v-112q-159 0 -232 -28.5t-73 -91.5v-124q46 -8 125 -8q43 0 84.5 5.5t95.5 17.5l15 -127q-96 -30 -229 -30q-84 0 -129.5 21.5t-64.5 73t-19 147.5q0 68 22.5 115.5t69.5 77.5q-19 48 -19 140q0 93 18.5 143.5t62.5 72.5t125 22
q95 0 186 -27l-19 -127q-86 19 -154 19q-62 0 -97 -7zM295.5 599q-16.5 12 -28.5 28.5t-12 29.5q0 20 25 44.5t45 25.5q20 -1 44.5 -25.5t24.5 -44.5q0 -12 -12 -29t-28.5 -29t-28.5 -12q-13 0 -29.5 12z" />
    <glyph glyph-name="uni0641" unicode="&#x641;" horiz-adv-x="1004" 
d="M60 0zM97 50q-37 50 -37 164q0 102 30 190l114 -19q-25 -77 -25 -138q0 -71 15 -113h280q-8 32 -11.5 64t-3.5 82q0 75 22.5 118.5t73.5 63.5t139 20q65 0 116 -8t108 -27v-447h-699q-85 0 -122 50zM789.5 143.5q9.5 9.5 9.5 34.5v167h-170q-25 0 -34 -9.5t-9 -36.5v-165
h170q24 0 33.5 9.5zM689.5 599q-16.5 12 -28.5 28.5t-12 29.5q0 20 25 44.5t45 25.5q20 -1 44.5 -25.5t24.5 -44.5q0 -12 -12 -29t-28.5 -29t-28.5 -12q-13 0 -29.5 12z" />
    <glyph glyph-name="uni06A4" unicode="&#x6a4;" horiz-adv-x="1004" 
d="M60 0zM97 50q-37 50 -37 164q0 102 30 190l114 -19q-25 -77 -25 -138q0 -71 15 -113h280q-8 32 -11.5 64t-3.5 82q0 75 22.5 118.5t73.5 63.5t139 20q65 0 116 -8t108 -27v-447h-699q-85 0 -122 50zM789.5 143.5q9.5 9.5 9.5 34.5v167h-170q-25 0 -34 -9.5t-9 -36.5v-165
h170q24 0 33.5 9.5zM606.5 599q-16.5 12 -28.5 28.5t-12 29.5q0 20 25 44.5t45 25.5q20 -1 44.5 -25.5t24.5 -44.5q0 -12 -12 -29t-28.5 -29t-28.5 -12q-13 0 -29.5 12zM773.5 599q-16.5 12 -28.5 28.5t-12 29.5q0 20 25 44.5t45 25.5q20 -1 44.5 -25.5t24.5 -44.5
q0 -12 -12 -29t-28.5 -29t-28.5 -12q-13 0 -29.5 12zM689.5 776q-16.5 12 -28.5 28.5t-12 29.5q0 20 25 44.5t45 25.5q20 -1 44.5 -25.5t24.5 -44.5q0 -12 -12 -29t-28.5 -29t-28.5 -12q-13 0 -29.5 12z" />
    <glyph glyph-name="uni06A1" unicode="&#x6a1;" horiz-adv-x="1004" 
d="M97 50q-37 50 -37 164q0 102 30 190l114 -19q-25 -77 -25 -138q0 -71 15 -113h280q-8 32 -11.5 64t-3.5 82q0 75 22.5 118.5t73.5 63.5t139 20q65 0 116 -8t108 -27v-447h-699q-85 0 -122 50zM789.5 143.5q9.5 9.5 9.5 34.5v167h-170q-25 0 -34 -9.5t-9 -36.5v-165h170
q24 0 33.5 9.5z" />
    <glyph glyph-name="uni066F" unicode="&#x66f;" horiz-adv-x="913" 
d="M725 474q51 -8 102 -27v-530q0 -100 -46 -143.5t-151 -43.5h-416q-85 0 -122 58.5t-37 192.5q0 58 8 117.5t22 109.5l114 -18q-25 -98 -25 -176q0 -98 14 -150h520v136h-158q-68 0 -107 23.5t-57 76.5t-18 145q0 91 22.5 142t73 73t139.5 22q71 0 122 -8zM698.5 143.5
q9.5 9.5 9.5 34.5v170h-161q-30 0 -41 -9.5t-11 -36.5v-168h170q24 0 33.5 9.5z" />
    <glyph glyph-name="uni0642" unicode="&#x642;" horiz-adv-x="913" 
d="M55 0zM725 474q51 -8 102 -27v-530q0 -100 -46 -143.5t-151 -43.5h-416q-85 0 -122 58.5t-37 192.5q0 58 8 117.5t22 109.5l114 -18q-25 -98 -25 -176q0 -98 14 -150h520v136h-158q-68 0 -107 23.5t-57 76.5t-18 145q0 91 22.5 142t73 73t139.5 22q71 0 122 -8z
M698.5 143.5q9.5 9.5 9.5 34.5v170h-161q-30 0 -41 -9.5t-11 -36.5v-168h170q24 0 33.5 9.5zM486.5 599q-16.5 12 -28.5 28.5t-12 29.5q0 20 25 44.5t45 25.5q20 -1 44.5 -25.5t24.5 -44.5q0 -12 -12 -29t-28.5 -29t-28.5 -12q-13 0 -29.5 12zM653.5 599
q-16.5 12 -28.5 28.5t-12 29.5q0 20 25 44.5t45 25.5q20 -1 44.5 -25.5t24.5 -44.5q0 -12 -12 -29t-28.5 -29t-28.5 -12q-13 0 -29.5 12z" />
    <glyph glyph-name="uni0643" unicode="&#x643;" horiz-adv-x="896" 
d="M559 498v-59l-232 -62v58l40 11q-9 24 -9 62q0 76 44.5 108t129.5 36v-69q-51 -3 -95 -22v-66q0 -12 4 -17.5t14 -5.5q4 0 22 4zM699 134v496h119v-630h-599q-85 0 -122 50t-37 164q0 102 30 190l114 -19q-25 -77 -25 -138q0 -71 15 -113h505z" />
    <glyph glyph-name="uni06A9" unicode="&#x6a9;" horiz-adv-x="869" 
d="M97 50q-37 50 -37 164q0 102 30 190l114 -19q-25 -77 -25 -138q0 -71 15 -113h470v163h-229q-53 0 -80.5 27t-27.5 79q0 71 45 166t109 157l97 -53q-47 -46 -87.5 -116.5t-51.5 -125.5h190q61 0 93.5 -14t46.5 -46.5t14 -93.5v-277h-564q-85 0 -122 50z" />
    <glyph glyph-name="uni06AF" unicode="&#x6af;" horiz-adv-x="869" 
d="M60 0zM97 50q-37 50 -37 164q0 102 30 190l114 -19q-25 -77 -25 -138q0 -71 15 -113h470v163h-229q-53 0 -80.5 27t-27.5 79q0 71 45 166t109 157l97 -53q-47 -46 -87.5 -116.5t-51.5 -125.5h190q61 0 93.5 -14t46.5 -46.5t14 -93.5v-277h-564q-85 0 -122 50zM207 671.5
q-43 -93.5 -52 -165.5l102 -34q11 74 47.5 151t97.5 145l-97 52q-55 -55 -98 -148.5z" />
    <glyph glyph-name="uni0644" unicode="&#x644;" horiz-adv-x="673" 
d="M352 -105q64 0 90 11t26 42v686h119v-648q0 -94 -20.5 -141t-76.5 -66t-172 -19q-106 0 -159 20t-73.5 69t-20.5 147q0 63 8.5 128t23.5 118l112 -19q-25 -112 -25 -203q0 -77 11 -125h157z" />
    <glyph glyph-name="uni0645" unicode="&#x645;" horiz-adv-x="674" 
d="M144 0q-15 -54 -15 -137q0 -35 7 -75.5t23 -101.5l-117 -20q-15 48 -23.5 107.5t-8.5 117.5q0 113 26 170t83 69q-9 42 -9 110q0 51 9 97.5t28 100.5l-1 1q53 20 117.5 31.5t130.5 11.5q106 0 151.5 -35t45.5 -117v-330h-447zM381 348q-70 0 -138 -13q-14 -51 -14 -95
q0 -65 10 -106h233v207q-32 7 -91 7z" />
    <glyph glyph-name="uni0646" unicode="&#x646;" horiz-adv-x="673" 
d="M65 0zM352 -105q64 0 90 11t26 42v522h119v-484q0 -94 -20.5 -141t-76.5 -66t-172 -19q-106 0 -159 20t-73.5 69t-20.5 147q0 63 8.5 128t23.5 118l112 -19q-25 -112 -25 -203q0 -77 11 -125h157zM298.5 599q-16.5 12 -28.5 28.5t-12 29.5q0 20 25 44.5t45 25.5
q20 -1 44.5 -25.5t24.5 -44.5q0 -12 -12 -29t-28.5 -29t-28.5 -12q-13 0 -29.5 12z" />
    <glyph glyph-name="uni06BA" unicode="&#x6ba;" horiz-adv-x="673" 
d="M352 -105q64 0 90 11t26 42v522h119v-484q0 -94 -20.5 -141t-76.5 -66t-172 -19q-106 0 -159 20t-73.5 69t-20.5 147q0 63 8.5 128t23.5 118l112 -19q-25 -112 -25 -203q0 -77 11 -125h157z" />
    <glyph glyph-name="uni0647" unicode="&#x647;" horiz-adv-x="637" 
d="M552 0h-256q-95 0 -141.5 18.5t-64 67t-17.5 149.5q0 100 17.5 149t64 67.5t141.5 18.5h256v-470zM251 336q-27 0 -39.5 -10.5t-12.5 -33.5v-114q0 -23 12.5 -33.5t39.5 -10.5h181v202h-181z" />
    <glyph glyph-name="uni06C1" unicode="&#x6c1;" horiz-adv-x="637" 
d="M73 0zM552 0h-256q-95 0 -141.5 18.5t-64 67t-17.5 149.5q0 100 17.5 149t64 67.5t141.5 18.5h256v-470zM251 336q-27 0 -39.5 -10.5t-12.5 -33.5v-114q0 -23 12.5 -33.5t39.5 -10.5h181v202h-181z" />
    <glyph glyph-name="uni06C2" unicode="&#x6c2;" horiz-adv-x="637" 
d="M73 0zM552 0h-256q-95 0 -141.5 18.5t-64 67t-17.5 149.5q0 100 17.5 149t64 67.5t141.5 18.5h256v-470zM251 336q-27 0 -39.5 -10.5t-12.5 -33.5v-114q0 -23 12.5 -33.5t39.5 -10.5h181v202h-181zM447 698v-59l-232 -62v58l40 11q-9 24 -9 62q0 76 44.5 108t129.5 36
v-69q-51 -3 -95 -22v-66q0 -12 4 -17.5t14 -5.5q4 0 22 4z" />
    <glyph glyph-name="uni06BE" unicode="&#x6be;" horiz-adv-x="754" 
d="M704 104v-104h-684v134h64q2 91 17 133.5t52.5 56.5t115.5 14q81 0 119 -14t53.5 -56t17.5 -134h115l-40 159q-15 57 -47 90.5t-90 49t-152 15.5l7 130q125 0 202 -22t122.5 -73.5t68.5 -142.5zM188 134h166v107h-124q-22 0 -32 -8t-10 -26v-73z" />
    <glyph glyph-name="uni0629" unicode="&#x629;" horiz-adv-x="637" 
d="M73 0zM552 0h-256q-95 0 -141.5 18.5t-64 67t-17.5 149.5q0 100 17.5 149t64 67.5t141.5 18.5h256v-470zM251 336q-27 0 -39.5 -10.5t-12.5 -33.5v-114q0 -23 12.5 -33.5t39.5 -10.5h181v202h-181zM218.5 599q-16.5 12 -28.5 28.5t-12 29.5q0 20 25 44.5t45 25.5
q20 -1 44.5 -25.5t24.5 -44.5q0 -12 -12 -29t-28.5 -29t-28.5 -12q-13 0 -29.5 12zM385.5 599q-16.5 12 -28.5 28.5t-12 29.5q0 20 25 44.5t45 25.5q20 -1 44.5 -25.5t24.5 -44.5q0 -12 -12 -29t-28.5 -29t-28.5 -12q-13 0 -29.5 12z" />
    <glyph glyph-name="uni06C3" unicode="&#x6c3;" horiz-adv-x="637" 
d="M73 0zM552 0h-256q-95 0 -141.5 18.5t-64 67t-17.5 149.5q0 100 17.5 149t64 67.5t141.5 18.5h256v-470zM251 336q-27 0 -39.5 -10.5t-12.5 -33.5v-114q0 -23 12.5 -33.5t39.5 -10.5h181v202h-181zM218.5 599q-16.5 12 -28.5 28.5t-12 29.5q0 20 25 44.5t45 25.5
q20 -1 44.5 -25.5t24.5 -44.5q0 -12 -12 -29t-28.5 -29t-28.5 -12q-13 0 -29.5 12zM385.5 599q-16.5 12 -28.5 28.5t-12 29.5q0 20 25 44.5t45 25.5q20 -1 44.5 -25.5t24.5 -44.5q0 -12 -12 -29t-28.5 -29t-28.5 -12q-13 0 -29.5 12z" />
    <glyph glyph-name="uni0648" unicode="&#x648;" horiz-adv-x="612" 
d="M425 474q51 -8 102 -27v-313q0 -102 -61 -215.5t-157 -193.5l-78 90q45 37 82.5 85t60.5 100h-124q-68 0 -107 23.5t-57 76.5t-18 145q0 91 22.5 142t73 73t139.5 22q71 0 122 -8zM364 134q24 0 33.5 9.5t9.5 34.5v170h-161q-30 0 -41 -9.5t-11 -36.5v-168h170z" />
    <glyph glyph-name="uni0624" unicode="&#x624;" horiz-adv-x="612" 
d="M68 0zM425 474q51 -8 102 -27v-313q0 -102 -61 -215.5t-157 -193.5l-78 90q45 37 82.5 85t60.5 100h-124q-68 0 -107 23.5t-57 76.5t-18 145q0 91 22.5 142t73 73t139.5 22q71 0 122 -8zM364 134q24 0 33.5 9.5t9.5 34.5v170h-161q-30 0 -41 -9.5t-11 -36.5v-168h170z
M418 698v-59l-232 -62v58l40 11q-9 24 -9 62q0 76 44.5 108t129.5 36v-69q-51 -3 -95 -22v-66q0 -12 4 -17.5t14 -5.5q4 0 22 4z" />
    <glyph glyph-name="uni0649" unicode="&#x649;" horiz-adv-x="867" 
d="M73.5 48.5q8.5 57.5 23.5 103.5l116 -20q-14 -53 -21.5 -93.5t-7.5 -76.5q0 -67 11 -110h282q75 0 115.5 4.5t58 15.5t17.5 33v154l-135 15q-69 8 -104.5 28.5t-49 60t-13.5 108.5q0 82 17.5 126t61.5 63.5t128 19.5q113 0 207 -22l-20 -127q-93 15 -164 15
q-69 0 -103 -5v-132l143 -15q59 -6 91.5 -26t46 -57t13.5 -97v-75q0 -87 -31 -134t-110 -67t-229 -20q-145 0 -218.5 17.5t-103.5 63.5t-30 137q0 55 8.5 112.5z" />
    <glyph glyph-name="uni064A" unicode="&#x64a;" horiz-adv-x="867" 
d="M65 0zM73.5 48.5q8.5 57.5 23.5 103.5l116 -20q-14 -53 -21.5 -93.5t-7.5 -76.5q0 -67 11 -110h282q75 0 115.5 4.5t58 15.5t17.5 33v154l-135 15q-69 8 -104.5 28.5t-49 60t-13.5 108.5q0 82 17.5 126t61.5 63.5t128 19.5q113 0 207 -22l-20 -127q-93 15 -164 15
q-69 0 -103 -5v-132l143 -15q59 -6 91.5 -26t46 -57t13.5 -97v-75q0 -87 -31 -134t-110 -67t-229 -20q-145 0 -218.5 17.5t-103.5 63.5t-30 137q0 55 8.5 112.5zM281 -263zM321.5 -458q-16.5 12 -28.5 28.5t-12 29.5q0 20 25 44.5t45 25.5q20 -1 44.5 -25.5t24.5 -44.5
q0 -12 -12 -29t-28.5 -29t-28.5 -12q-13 0 -29.5 12zM321.5 -281q-16.5 12 -28.5 28.5t-12 29.5q0 20 25 44.5t45 25.5q20 -1 44.5 -25.5t24.5 -44.5q0 -12 -12 -29t-28.5 -29t-28.5 -12q-13 0 -29.5 12z" />
    <glyph glyph-name="uni0626" unicode="&#x626;" horiz-adv-x="867" 
d="M62 0zM73.5 48.5q8.5 57.5 23.5 103.5l116 -20q-14 -53 -21.5 -93.5t-7.5 -76.5q0 -67 11 -110h282q75 0 115.5 4.5t58 15.5t17.5 33v154l-135 15q-69 8 -104.5 28.5t-49 60t-13.5 108.5q0 82 17.5 126t61.5 63.5t128 19.5q113 0 207 -22l-20 -127q-93 15 -164 15
q-69 0 -103 -5v-132l143 -15q59 -6 91.5 -26t46 -57t13.5 -97v-75q0 -87 -31 -134t-110 -67t-229 -20q-145 0 -218.5 17.5t-103.5 63.5t-30 137q0 55 8.5 112.5zM294 388v-59l-232 -62v58l40 11q-9 24 -9 62q0 76 44.5 108t129.5 36v-69q-51 -3 -95 -22v-66q0 -12 4 -17.5
t14 -5.5q4 0 22 4z" />
    <glyph glyph-name="uni06CC" unicode="&#x6cc;" horiz-adv-x="867" 
d="M65 0zM73.5 48.5q8.5 57.5 23.5 103.5l116 -20q-14 -53 -21.5 -93.5t-7.5 -76.5q0 -67 11 -110h282q75 0 115.5 4.5t58 15.5t17.5 33v154l-135 15q-69 8 -104.5 28.5t-49 60t-13.5 108.5q0 82 17.5 126t61.5 63.5t128 19.5q113 0 207 -22l-20 -127q-93 15 -164 15
q-69 0 -103 -5v-132l143 -15q59 -6 91.5 -26t46 -57t13.5 -97v-75q0 -87 -31 -134t-110 -67t-229 -20q-145 0 -218.5 17.5t-103.5 63.5t-30 137q0 55 8.5 112.5z" />
    <glyph glyph-name="uni06D2" unicode="&#x6d2;" horiz-adv-x="781" 
d="M508 -142.5q61 5.5 150 19.5l19 -127q-143 -32 -323 -32q-132 0 -196.5 19t-88.5 66.5t-24 142.5v169h541q10 50 10 137q0 37 -3 77h120q2 -52 2 -85q0 -96 -18 -148t-60 -74t-119 -22h-354v-95q0 -22 18.5 -33t61 -15.5t121.5 -4.5q82 0 143 5.5z" />
    <glyph glyph-name="uni06D3" unicode="&#x6d3;" horiz-adv-x="781" 
d="M45 0zM508 -142.5q61 5.5 150 19.5l19 -127q-143 -32 -323 -32q-132 0 -196.5 19t-88.5 66.5t-24 142.5v169h541q10 50 10 137q0 37 -3 77h120q2 -52 2 -85q0 -96 -18 -148t-60 -74t-119 -22h-354v-95q0 -22 18.5 -33t61 -15.5t121.5 -4.5q82 0 143 5.5zM421 323v-59
l-232 -62v58l40 11q-9 24 -9 62q0 76 44.5 108t129.5 36v-69q-51 -3 -95 -22v-66q0 -12 4 -17.5t14 -5.5q4 0 22 4z" />
    <glyph glyph-name="uni0640" unicode="&#x640;" horiz-adv-x="244" 
d="M-20 134h284v-134h-284v134z" />
    <glyph glyph-name="uni06280626.fina" horiz-adv-x="1157" 
d="M62 0zM1177 134v-134h-225v336h-459v-127l143 -15q59 -6 91.5 -26t46 -57t13.5 -97v-75q0 -87 -31 -134t-110 -67t-229 -20q-145 0 -218.5 17.5t-103.5 63.5t-30 137q0 55 8.5 112.5t23.5 103.5l116 -20q-14 -53 -21.5 -93.5t-7.5 -76.5q0 -67 11 -110h282
q75 0 115.5 4.5t58 15.5t17.5 33v154l-135 15q-68 7 -104 28.5t-49.5 60.5t-13.5 108q0 78 17.5 120t61.5 60.5t128 18.5h498v-336h106zM982.5 -188q-16.5 12 -28.5 28.5t-12 29.5q0 20 25 44.5t45 25.5q20 -1 44.5 -25.5t24.5 -44.5q0 -12 -12 -29t-28.5 -29t-28.5 -12
q-13 0 -29.5 12zM294 388v-59l-232 -62v58l40 11q-9 24 -9 62q0 76 44.5 108t129.5 36v-69q-51 -3 -95 -22v-66q0 -12 4 -17.5t14 -5.5q4 0 22 4z" />
    <glyph glyph-name="uni067E0631.fina" horiz-adv-x="654" 
d="M23 0zM674 134v-134h-225v336h-208v-322q0 -113 -39.5 -179t-132.5 -107l-46 107q40 18 61 39t29.5 53.5t8.5 86.5v456h446v-336h106zM478.5 -375q-16.5 12 -28.5 28.5t-12 29.5q0 20 25 44.5t45 25.5q20 -1 44.5 -25.5t24.5 -44.5q0 -12 -12 -29t-28.5 -29t-28.5 -12
q-13 0 -29.5 12zM395.5 -198q-16.5 12 -28.5 28.5t-12 29.5q0 20 25 44.5t45 25.5q20 -1 44.5 -25.5t24.5 -44.5q0 -12 -12 -29t-28.5 -29t-28.5 -12q-13 0 -29.5 12zM562.5 -198q-16.5 12 -28.5 28.5t-12 29.5q0 20 25 44.5t45 25.5q20 -1 44.5 -25.5t24.5 -44.5
q0 -12 -12 -29t-28.5 -29t-28.5 -12q-13 0 -29.5 12z" />
    <glyph glyph-name="uni067E0632.fina" horiz-adv-x="654" 
d="M23 0zM674 134v-134h-225v336h-208v-322q0 -113 -39.5 -179t-132.5 -107l-46 107q40 18 61 39t29.5 53.5t8.5 86.5v456h446v-336h106zM478.5 -375q-16.5 12 -28.5 28.5t-12 29.5q0 20 25 44.5t45 25.5q20 -1 44.5 -25.5t24.5 -44.5q0 -12 -12 -29t-28.5 -29t-28.5 -12
q-13 0 -29.5 12zM395.5 -198q-16.5 12 -28.5 28.5t-12 29.5q0 20 25 44.5t45 25.5q20 -1 44.5 -25.5t24.5 -44.5q0 -12 -12 -29t-28.5 -29t-28.5 -12q-13 0 -29.5 12zM562.5 -198q-16.5 12 -28.5 28.5t-12 29.5q0 20 25 44.5t45 25.5q20 -1 44.5 -25.5t24.5 -44.5
q0 -12 -12 -29t-28.5 -29t-28.5 -12q-13 0 -29.5 12zM151.5 599q-16.5 12 -28.5 28.5t-12 29.5q0 20 25 44.5t45 25.5q20 -1 44.5 -25.5t24.5 -44.5q0 -12 -12 -29t-28.5 -29t-28.5 -12q-13 0 -29.5 12z" />
    <glyph glyph-name="uni067E0646.fina" horiz-adv-x="1000" 
d="M65 0zM298.5 607q-16.5 12 -28.5 28.5t-12 29.5q0 20 25 44.5t45 25.5q20 -1 44.5 -25.5t24.5 -44.5q0 -12 -12 -29t-28.5 -29t-28.5 -12q-13 0 -29.5 12zM1021 134v-134h-225v336h-209v-350q0 -94 -20.5 -141t-76.5 -66t-172 -19q-106 0 -159 20t-73.5 69t-20.5 147
q0 63 8.5 128t23.5 118l112 -19q-25 -112 -25 -203q0 -77 11 -125h157q64 0 90 11t26 42v522h447v-336h106zM826.5 -375q-16.5 12 -28.5 28.5t-12 29.5q0 20 25 44.5t45 25.5q20 -1 44.5 -25.5t24.5 -44.5q0 -12 -12 -29t-28.5 -29t-28.5 -12q-13 0 -29.5 12zM743.5 -198
q-16.5 12 -28.5 28.5t-12 29.5q0 20 25 44.5t45 25.5q20 -1 44.5 -25.5t24.5 -44.5q0 -12 -12 -29t-28.5 -29t-28.5 -12q-13 0 -29.5 12zM910.5 -198q-16.5 12 -28.5 28.5t-12 29.5q0 20 25 44.5t45 25.5q20 -1 44.5 -25.5t24.5 -44.5q0 -12 -12 -29t-28.5 -29t-28.5 -12
q-13 0 -29.5 12z" />
    <glyph glyph-name="uni067E0649.fina" horiz-adv-x="1157" 
d="M65 0zM1177 134v-134h-225v336h-459v-127l143 -15q59 -6 91.5 -26t46 -57t13.5 -97v-75q0 -87 -31 -134t-110 -67t-229 -20q-145 0 -218.5 17.5t-103.5 63.5t-30 137q0 55 8.5 112.5t23.5 103.5l116 -20q-14 -53 -21.5 -93.5t-7.5 -76.5q0 -67 11 -110h282
q75 0 115.5 4.5t58 15.5t17.5 33v154l-135 15q-68 7 -104 28.5t-49.5 60.5t-13.5 108q0 78 17.5 120t61.5 60.5t128 18.5h498v-336h106zM982.5 -355q-16.5 12 -28.5 28.5t-12 29.5q0 20 25 44.5t45 25.5q20 -1 44.5 -25.5t24.5 -44.5q0 -12 -12 -29t-28.5 -29t-28.5 -12
q-13 0 -29.5 12zM899.5 -178q-16.5 12 -28.5 28.5t-12 29.5q0 20 25 44.5t45 25.5q20 -1 44.5 -25.5t24.5 -44.5q0 -12 -12 -29t-28.5 -29t-28.5 -12q-13 0 -29.5 12zM1066.5 -178q-16.5 12 -28.5 28.5t-12 29.5q0 20 25 44.5t45 25.5q20 -1 44.5 -25.5t24.5 -44.5
q0 -12 -12 -29t-28.5 -29t-28.5 -12q-13 0 -29.5 12z" />
    <glyph glyph-name="uni067E064A.fina" horiz-adv-x="1157" 
d="M65 0zM1177 134v-134h-225v336h-459v-127l143 -15q59 -6 91.5 -26t46 -57t13.5 -97v-75q0 -87 -31 -134t-110 -67t-229 -20q-145 0 -218.5 17.5t-103.5 63.5t-30 137q0 55 8.5 112.5t23.5 103.5l116 -20q-14 -53 -21.5 -93.5t-7.5 -76.5q0 -67 11 -110h282
q75 0 115.5 4.5t58 15.5t17.5 33v154l-135 15q-68 7 -104 28.5t-49.5 60.5t-13.5 108q0 78 17.5 120t61.5 60.5t128 18.5h498v-336h106zM982.5 -355q-16.5 12 -28.5 28.5t-12 29.5q0 20 25 44.5t45 25.5q20 -1 44.5 -25.5t24.5 -44.5q0 -12 -12 -29t-28.5 -29t-28.5 -12
q-13 0 -29.5 12zM899.5 -178q-16.5 12 -28.5 28.5t-12 29.5q0 20 25 44.5t45 25.5q20 -1 44.5 -25.5t24.5 -44.5q0 -12 -12 -29t-28.5 -29t-28.5 -12q-13 0 -29.5 12zM1066.5 -178q-16.5 12 -28.5 28.5t-12 29.5q0 20 25 44.5t45 25.5q20 -1 44.5 -25.5t24.5 -44.5
q0 -12 -12 -29t-28.5 -29t-28.5 -12q-13 0 -29.5 12zM321.5 -458q-16.5 12 -28.5 28.5t-12 29.5q0 20 25 44.5t45 25.5q20 -1 44.5 -25.5t24.5 -44.5q0 -12 -12 -29t-28.5 -29t-28.5 -12q-13 0 -29.5 12zM488.5 -458q-16.5 12 -28.5 28.5t-12 29.5q0 20 25 44.5t45 25.5
q20 -1 44.5 -25.5t24.5 -44.5q0 -12 -12 -29t-28.5 -29t-28.5 -12q-13 0 -29.5 12z" />
    <glyph glyph-name="uni067E0626.fina" horiz-adv-x="1157" 
d="M62 0zM1177 134v-134h-225v336h-459v-127l143 -15q59 -6 91.5 -26t46 -57t13.5 -97v-75q0 -87 -31 -134t-110 -67t-229 -20q-145 0 -218.5 17.5t-103.5 63.5t-30 137q0 55 8.5 112.5t23.5 103.5l116 -20q-14 -53 -21.5 -93.5t-7.5 -76.5q0 -67 11 -110h282
q75 0 115.5 4.5t58 15.5t17.5 33v154l-135 15q-68 7 -104 28.5t-49.5 60.5t-13.5 108q0 78 17.5 120t61.5 60.5t128 18.5h498v-336h106zM982.5 -355q-16.5 12 -28.5 28.5t-12 29.5q0 20 25 44.5t45 25.5q20 -1 44.5 -25.5t24.5 -44.5q0 -12 -12 -29t-28.5 -29t-28.5 -12
q-13 0 -29.5 12zM899.5 -178q-16.5 12 -28.5 28.5t-12 29.5q0 20 25 44.5t45 25.5q20 -1 44.5 -25.5t24.5 -44.5q0 -12 -12 -29t-28.5 -29t-28.5 -12q-13 0 -29.5 12zM1066.5 -178q-16.5 12 -28.5 28.5t-12 29.5q0 20 25 44.5t45 25.5q20 -1 44.5 -25.5t24.5 -44.5
q0 -12 -12 -29t-28.5 -29t-28.5 -12q-13 0 -29.5 12zM294 388v-59l-232 -62v58l40 11q-9 24 -9 62q0 76 44.5 108t129.5 36v-69q-51 -3 -95 -22v-66q0 -12 4 -17.5t14 -5.5q4 0 22 4z" />
    <glyph glyph-name="uni062A0626.fina" horiz-adv-x="1157" 
d="M62 0zM1177 134v-134h-225v336h-459v-127l143 -15q59 -6 91.5 -26t46 -57t13.5 -97v-75q0 -87 -31 -134t-110 -67t-229 -20q-145 0 -218.5 17.5t-103.5 63.5t-30 137q0 55 8.5 112.5t23.5 103.5l116 -20q-14 -53 -21.5 -93.5t-7.5 -76.5q0 -67 11 -110h282
q75 0 115.5 4.5t58 15.5t17.5 33v154l-135 15q-68 7 -104 28.5t-49.5 60.5t-13.5 108q0 78 17.5 120t61.5 60.5t128 18.5h498v-336h106zM899.5 599q-16.5 12 -28.5 28.5t-12 29.5q0 20 25 44.5t45 25.5q20 -1 44.5 -25.5t24.5 -44.5q0 -12 -12 -29t-28.5 -29t-28.5 -12
q-13 0 -29.5 12zM1066.5 599q-16.5 12 -28.5 28.5t-12 29.5q0 20 25 44.5t45 25.5q20 -1 44.5 -25.5t24.5 -44.5q0 -12 -12 -29t-28.5 -29t-28.5 -12q-13 0 -29.5 12zM294 388v-59l-232 -62v58l40 11q-9 24 -9 62q0 76 44.5 108t129.5 36v-69q-51 -3 -95 -22v-66
q0 -12 4 -17.5t14 -5.5q4 0 22 4z" />
    <glyph glyph-name="uni062B0626.fina" horiz-adv-x="1157" 
d="M62 0zM1177 134v-134h-225v336h-459v-127l143 -15q59 -6 91.5 -26t46 -57t13.5 -97v-75q0 -87 -31 -134t-110 -67t-229 -20q-145 0 -218.5 17.5t-103.5 63.5t-30 137q0 55 8.5 112.5t23.5 103.5l116 -20q-14 -53 -21.5 -93.5t-7.5 -76.5q0 -67 11 -110h282
q75 0 115.5 4.5t58 15.5t17.5 33v154l-135 15q-68 7 -104 28.5t-49.5 60.5t-13.5 108q0 78 17.5 120t61.5 60.5t128 18.5h498v-336h106zM899.5 599q-16.5 12 -28.5 28.5t-12 29.5q0 20 25 44.5t45 25.5q20 -1 44.5 -25.5t24.5 -44.5q0 -12 -12 -29t-28.5 -29t-28.5 -12
q-13 0 -29.5 12zM1066.5 599q-16.5 12 -28.5 28.5t-12 29.5q0 20 25 44.5t45 25.5q20 -1 44.5 -25.5t24.5 -44.5q0 -12 -12 -29t-28.5 -29t-28.5 -12q-13 0 -29.5 12zM982.5 776q-16.5 12 -28.5 28.5t-12 29.5q0 20 25 44.5t45 25.5q20 -1 44.5 -25.5t24.5 -44.5
q0 -12 -12 -29t-28.5 -29t-28.5 -12q-13 0 -29.5 12zM294 388v-59l-232 -62v58l40 11q-9 24 -9 62q0 76 44.5 108t129.5 36v-69q-51 -3 -95 -22v-66q0 -12 4 -17.5t14 -5.5q4 0 22 4z" />
    <glyph glyph-name="uni06330632" horiz-adv-x="1302" 
d="M23 0zM1216.5 370.5q7.5 -56.5 7.5 -107.5q0 -102 -22 -159t-70 -80.5t-130 -23.5q-62 0 -101.5 7t-64.5 24q-27 -17 -70 -24t-110 -7h-207v336h-208v-322q0 -113 -39.5 -179t-132.5 -107l-46 107q40 18 61 39t29.5 53.5t8.5 86.5v456h446v-336h133q40 0 58 11t18 42v193
h119v-193q0 -31 18 -42t58 -11h122q11 47 11 123q0 78 -27 194l118 18q13 -42 20.5 -98.5zM151.5 599q-16.5 12 -28.5 28.5t-12 29.5q0 20 25 44.5t45 25.5q20 -1 44.5 -25.5t24.5 -44.5q0 -12 -12 -29t-28.5 -29t-28.5 -12q-13 0 -29.5 12z" />
    <glyph glyph-name="uni06330632.fina" horiz-adv-x="1310" 
d="M23 0zM1329 134v-134h-327q-62 0 -101.5 7t-64.5 24q-27 -17 -70 -24t-110 -7h-207v336h-208v-322q0 -113 -39.5 -179t-132.5 -107l-46 107q40 18 61 39t29.5 53.5t8.5 86.5v456h446v-336h133q40 0 58 11t18 42v193h119v-193q0 -31 18 -42t58 -11h122q11 47 11 123
q0 78 -27 194l118 18q13 -42 20.5 -98.5t7.5 -107.5q0 -78 -13 -129h118zM151.5 599q-16.5 12 -28.5 28.5t-12 29.5q0 20 25 44.5t45 25.5q20 -1 44.5 -25.5t24.5 -44.5q0 -12 -12 -29t-28.5 -29t-28.5 -12q-13 0 -29.5 12z" />
    <glyph glyph-name="uni06330626" horiz-adv-x="1805" 
d="M62 0zM1071 470v-470h-119v336h-459v-127l143 -15q59 -6 91.5 -26t46 -57t13.5 -97v-75q0 -87 -31 -134t-110 -67t-229 -20q-145 0 -218.5 17.5t-103.5 63.5t-30 137q0 55 8.5 112.5t23.5 103.5l116 -20q-14 -53 -21.5 -93.5t-7.5 -76.5q0 -67 11 -110h282
q75 0 115.5 4.5t58 15.5t17.5 33v154l-135 15q-68 7 -104 28.5t-49.5 60.5t-13.5 108q0 78 17.5 120t61.5 60.5t128 18.5h498zM1719.5 370.5q7.5 -56.5 7.5 -107.5q0 -102 -22 -159t-70 -80.5t-130 -23.5q-61 0 -101 7t-65 24q-26 -17 -69 -24t-110 -7h-88v134h133
q39 0 57 10t19 37q-1 13 -1 42v157h120v-157q0 -29 -1 -42q1 -27 19 -37t57 -10h122q11 47 11 123q0 78 -27 194l118 18q13 -42 20.5 -98.5zM294 388v-59l-232 -62v58l40 11q-9 24 -9 62q0 76 44.5 108t129.5 36v-69q-51 -3 -95 -22v-66q0 -12 4 -17.5t14 -5.5q4 0 22 4z
" />
    <glyph glyph-name="uni06330626.fina" horiz-adv-x="1813" 
d="M62 0zM1071 470v-470h-119v336h-459v-127l143 -15q59 -6 91.5 -26t46 -57t13.5 -97v-75q0 -87 -31 -134t-110 -67t-229 -20q-145 0 -218.5 17.5t-103.5 63.5t-30 137q0 55 8.5 112.5t23.5 103.5l116 -20q-14 -53 -21.5 -93.5t-7.5 -76.5q0 -67 11 -110h282
q75 0 115.5 4.5t58 15.5t17.5 33v154l-135 15q-68 7 -104 28.5t-49.5 60.5t-13.5 108q0 78 17.5 120t61.5 60.5t128 18.5h498zM1833 134v-134h-327h-1q-61 0 -101 7t-65 24q-26 -17 -69 -24t-110 -7h-88v134h133q39 0 57 10t19 37q-1 13 -1 42v157h120v-157q0 -29 -1 -42
q1 -27 19 -37t57 -10h122q11 47 11 123q0 78 -27 194l118 18q13 -42 20.5 -98.5t7.5 -107.5q0 -78 -13 -129h119zM294 388v-59l-232 -62v58l40 11q-9 24 -9 62q0 76 44.5 108t129.5 36v-69q-51 -3 -95 -22v-66q0 -12 4 -17.5t14 -5.5q4 0 22 4z" />
    </font>
</defs>
</svg>
